{
copyright = "Copyright (c) 2019, Carl Enlund";
designer = "Carl Enlund";
familyName = "Helmet Neue";
customParameters = (
{
name = glyphOrder;
value = (
.notdef,
.null,
nonmarkingreturn,
space,
exclam,
quotedbl,
numbersign,
dollar,
percent,
ampersand,
quotesingle,
parenleft,
parenright,
asterisk,
plus,
comma,
hyphen,
period,
slash,
zero,
one,
two,
three,
four,
five,
six,
seven,
eight,
nine,
colon,
semicolon,
less,
equal,
greater,
question,
at,
A,
B,
C,
D,
E,
F,
G,
H,
I,
J,
K,
L,
M,
N,
O,
P,
Q,
R,
S,
T,
U,
V,
W,
X,
Y,
Z,
bracketleft,
backslash,
bracketright,
asciicircum,
underscore,
grave,
a,
b,
c,
d,
e,
f,
g,
h,
i,
j,
k,
l,
m,
n,
o,
p,
q,
r,
s,
t,
u,
v,
w,
x,
y,
z,
braceleft,
bar,
braceright,
asciitilde,
exclamdown,
cent,
sterling,
currency,
yen,
brokenbar,
section,
copyright,
ordfeminine,
guillemotleft,
registered,
degree,
twosuperior,
threesuperior,
paragraph,
periodcentered,
onesuperior,
ordmasculine,
guillemotright,
questiondown,
Agrave,
Aacute,
Acircumflex,
Atilde,
Adieresis,
Aring,
AE,
Ccedilla,
Egrave,
Eacute,
Ecircumflex,
Edieresis,
Igrave,
Iacute,
Icircumflex,
Idieresis,
Eth,
Ntilde,
Ograve,
Oacute,
Ocircumflex,
Otilde,
Odieresis,
multiply,
Oslash,
Ugrave,
Uacute,
Ucircumflex,
Udieresis,
Yacute,
Thorn,
germandbls,
agrave,
aacute,
acircumflex,
atilde,
adieresis,
aring,
ae,
ccedilla,
egrave,
eacute,
ecircumflex,
edieresis,
igrave,
iacute,
icircumflex,
idieresis,
eth,
ntilde,
ograve,
oacute,
ocircumflex,
otilde,
odieresis,
divide,
oslash,
ugrave,
uacute,
ucircumflex,
udieresis,
yacute,
thorn,
ydieresis,
Amacron,
amacron,
Abreve,
abreve,
Aogonek,
aogonek,
Cacute,
cacute,
Cdotaccent,
cdotaccent,
Ccaron,
ccaron,
Dcaron,
dcaron,
Dcroat,
dcroat,
Emacron,
emacron,
Edotaccent,
edotaccent,
Eogonek,
eogonek,
Ecaron,
ecaron,
Gbreve,
gbreve,
Gdotaccent,
gdotaccent,
Gcommaaccent,
gcommaaccent,
Hbar,
hbar,
Imacron,
imacron,
Iogonek,
iogonek,
Idotaccent,
idotless,
Kcommaaccent,
kcommaaccent,
Lacute,
lacute,
Lcommaaccent,
lcommaaccent,
Lcaron,
lcaron,
Lslash,
lslash,

glyphs = (
{
glyphname = .notdef;
layers = (
{
layerId = "fe8db221-af1a-4d91-ba78-10cb572f3b89";
name = Regular;
paths = (
{
closed = 1;
nodes = (
"471 0 LINE",
"471 553 LINE",
"72 553 LINE",
"72 0 LINE"
);
},
{
closed = 1;
nodes = (
"394 72 LINE",
"148 72 LINE",
"148 481 LINE",
"394 481 LINE"
);
}
);
width = 543;
}
);
},
{
glyphname = exclam;
layers = (
{
layerId = "fe8db221-af1a-4d91-ba78-10cb572f3b89";
name = Regular;
paths = (
{
closed = 1;
nodes = (
"159 -5 OFFCURVE",
"175 1 OFFCURVE",
"187 13 CURVE SMOOTH",
"199 25 OFFCURVE",
"205 40 OFFCURVE",
"205 59 CURVE SMOOTH",
"205 78 OFFCURVE",
"199 93 OFFCURVE",
"187 105 CURVE SMOOTH",
"175 117 OFFCURVE",
"159 123 OFFCURVE",
"138 123 CURVE SMOOTH",
"118 123 OFFCURVE",
"102 117 OFFCURVE",
"90 105 CURVE SMOOTH",
"78 93 OFFCURVE",
"72 78 OFFCURVE",
"72 59 CURVE SMOOTH",
"72 40 OFFCURVE",
"78 25 OFFCURVE",
"90 13 CURVE SMOOTH",
"102 1 OFFCURVE",
"118 -5 OFFCURVE",
"138 -5 CURVE SMOOTH"
);
},
{
closed = 1;
nodes = (
"182 179 LINE",
"192 553 LINE",
"84 553 LINE",
"95 179 LINE"
);
}
);
width = 276;
}
);
unicode = 0021;
},
{
glyphname = quotedbl;
layers = (
{
layerId = "fe8db221-af1a-4d91-ba78-10cb572f3b89";
name = Regular;
paths = (
{
closed = 1;
nodes = (
"333 348 LINE",
"353 579 LINE",
"236 579 LINE",
"256 348 LINE"
);
},
{
closed = 1;
nodes = (
"154 348 LINE",
"174 579 LINE",
"56 579 LINE",
"77 348 LINE"
);
}
);
width = 410;
}
);
unicode = 0022;
},
{
glyphname = numbersign;
layers = (
{
layerId = "fe8db221-af1a-4d91-ba78-10cb572f3b89";
name = Regular;
paths = (
{
closed = 1;
nodes = (
"487 415 LINE",
"507 553 LINE",
"430 553 LINE",
"410 415 LINE",
"282 415 LINE",
"302 553 LINE",
"223 553 LINE",
"202 415 LINE",
"51 415 LINE",
"51 343 LINE",
"192 343 LINE",
"173 220 LINE",
"51 220 LINE",
"51 148 LINE",
"163 148 LINE",
"141 0 LINE",
"220 0 LINE",
"242 148 LINE",
"371 148 LINE",
"349 0 LINE",
"428 0 LINE",
"449 148 LINE",
"594 148 LINE",
"594 220 LINE",
"460 220 LINE",
"477 343 LINE",
"594 343 LINE",
"594 415 LINE"
);
},
{
closed = 1;
nodes = (
"399 343 LINE",
"381 220 LINE",
"253 220 LINE",
"271 343 LINE"
);
}
);
width = 645;
}
);
unicode = 0023;
},
{
glyphname = dollar;
layers = (
{
components = (
{
name = S;
alignment = -1;
}
);
layerId = "fe8db221-af1a-4d91-ba78-10cb572f3b89";
name = Regular;
paths = (
{
closed = 1;
nodes = (
"264 655 LINE",
"264 -102 LINE",
"310 -102 LINE",
"310 655 LINE"
);
}
);
width = 573;
}
);
unicode = 0024;
},
{
glyphname = percent;
layers = (
{
layerId = "fe8db221-af1a-4d91-ba78-10cb572f3b89";
name = Regular;
paths = (
{
closed = 1;
nodes = (
"738 230 OFFCURVE",
"683 297 OFFCURVE",
"595 297 CURVE SMOOTH",
"508 297 OFFCURVE",
"451 233 OFFCURVE",
"451 149 CURVE SMOOTH",
"451 66 OFFCURVE",
"506 0 OFFCURVE",
"595 0 CURVE SMOOTH",
"681 0 OFFCURVE",
"738 64 OFFCURVE",
"738 149 CURVE SMOOTH"
);
},
{
closed = 1;
nodes = (
"669 106 OFFCURVE",
"643 63 OFFCURVE",
"595 63 CURVE SMOOTH",
"548 63 OFFCURVE",
"520 104 OFFCURVE",
"520 149 CURVE SMOOTH",
"520 191 OFFCURVE",
"548 234 OFFCURVE",
"595 234 CURVE SMOOTH",
"639 234 OFFCURVE",
"669 193 OFFCURVE",
"669 149 CURVE SMOOTH"
);
},
{
closed = 1;
nodes = (
"41 322 OFFCURVE",
"96 256 OFFCURVE",
"185 256 CURVE SMOOTH",
"271 256 OFFCURVE",
"329 321 OFFCURVE",
"329 404 CURVE SMOOTH",
"329 485 OFFCURVE",
"273 553 OFFCURVE",
"185 553 CURVE SMOOTH",
"99 553 OFFCURVE",
"41 488 OFFCURVE",
"41 404 CURVE SMOOTH"
);
},
{
closed = 1;
nodes = (
"111 448 OFFCURVE",
"136 490 OFFCURVE",
"185 490 CURVE SMOOTH",
"232 490 OFFCURVE",
"259 449 OFFCURVE",
"259 404 CURVE SMOOTH",
"259 360 OFFCURVE",
"228 319 OFFCURVE",
"185 319 CURVE SMOOTH",
"141 319 OFFCURVE",
"111 361 OFFCURVE",
"111 404 CURVE SMOOTH"
);
},
{
closed = 1;
nodes = (
"521 553 LINE",
"188 0 LINE",
"261 0 LINE",
"594 553 LINE"
);
}
);
width = 780;
}
);
unicode = 0025;
},
{
glyphname = ampersand;
layers = (
{
layerId = "fe8db221-af1a-4d91-ba78-10cb572f3b89";
name = Regular;
paths = (
{
closed = 1;
nodes = (
"454 278 LINE",
"454 241 OFFCURVE",
"442 202 OFFCURVE",
"422 169 CURVE",
"301 286 LINE",
"343 302 OFFCURVE",
"386 327 OFFCURVE",
"409 364 CURVE SMOOTH",
"420 382 OFFCURVE",
"426 405 OFFCURVE",
"425 433 CURVE",
"425 509 OFFCURVE",
"356 566 OFFCURVE",
"267 566 CURVE SMOOTH",
"179 566 OFFCURVE",
"103 515 OFFCURVE",
"103 424 CURVE SMOOTH",
"103 391 OFFCURVE",
"112 363 OFFCURVE",
"131 340 CURVE",
"158 309 LINE",
"91 283 OFFCURVE",
"42 233 OFFCURVE",
"44 157 CURVE",
"44 46 OFFCURVE",
"135 -9 OFFCURVE",
"250 -9 CURVE",
"251 -9 LINE",
"319 -9 OFFCURVE",
"376 9 OFFCURVE",
"427 52 CURVE",
"482 0 LINE",
"597 0 LINE",
"483 111 LINE",
"518 157 OFFCURVE",
"543 222 OFFCURVE",
"543 278 CURVE"
);
},
{
closed = 1;
nodes = (
"367 108 LINE",
"331 84 OFFCURVE",
"295 70 OFFCURVE",
"255 70 CURVE SMOOTH",
"194 70 OFFCURVE",
"140 100 OFFCURVE",
"141 166 CURVE",
"141 208 OFFCURVE",
"170 232 OFFCURVE",
"213 254 CURVE"
);
},
{
closed = 1;
nodes = (
"209 378 OFFCURVE",
"198 386 OFFCURVE",
"198 423 CURVE SMOOTH",
"198 461 OFFCURVE",
"230 487 OFFCURVE",
"270 487 CURVE SMOOTH",
"305 487 OFFCURVE",
"341 464 OFFCURVE",
"342 424 CURVE",
"342 397 OFFCURVE",
"329 378 OFFCURVE",
"303 365 CURVE SMOOTH",
"286 357 OFFCURVE",
"267 349 OFFCURVE",
"247 341 CURVE"
);
}
);
width = 594;
}
);
unicode = 0026;
},
{
glyphname = quotesingle;
layers = (
{
layerId = "fe8db221-af1a-4d91-ba78-10cb572f3b89";
name = Regular;
paths = (
{
closed = 1;
nodes = (
"154 348 LINE",
"174 579 LINE",
"56 579 LINE",
"77 348 LINE"
);
}
);
width = 230;
}
);
unicode = 0027;
},
{
glyphname = parenleft;
layers = (
{
layerId = "fe8db221-af1a-4d91-ba78-10cb572f3b89";
name = Regular;
paths = (
{
closed = 1;
nodes = (
"202 645 LINE",
"104 562 OFFCURVE",
"69 405 OFFCURVE",
"69 248 CURVE SMOOTH",
"69 94 OFFCURVE",
"104 -66 OFFCURVE",
"202 -148 CURVE",
"264 -148 LINE",
"181 -32 OFFCURVE",
"156 96 OFFCURVE",
"156 248 CURVE SMOOTH",
"156 397 OFFCURVE",
"179 528 OFFCURVE",
"264 645 CURVE"
);
}
);
width = 276;
}
);
unicode = 0028;
},
{
glyphname = parenright;
layers = (
{
layerId = "fe8db221-af1a-4d91-ba78-10cb572f3b89";
name = Regular;
paths = (
{
closed = 1;
nodes = (
"13 645 LINE",
"96 528 OFFCURVE",
"120 400 OFFCURVE",
"120 248 CURVE SMOOTH",
"120 99 OFFCURVE",
"96 -30 OFFCURVE",
"13 -148 CURVE",
"74 -148 LINE",
"170 -69 OFFCURVE",
"207 91 OFFCURVE",
"207 248 CURVE SMOOTH",
"207 402 OFFCURVE",
"172 563 OFFCURVE",
"74 645 CURVE"
);
}
);
width = 277;
}
);
unicode = 0029;
},
{
glyphname = asterisk;
layers = (
{
layerId = "fe8db221-af1a-4d91-ba78-10cb572f3b89";
name = Regular;
paths = (
{
closed = 1;
nodes = (
"335 172 LINE",
"401 220 LINE",
"313 335 LINE",
"458 378 LINE",
"432 456 LINE",
"291 406 LINE",
"295 553 LINE",
"208 553 LINE",
"212 406 LINE",
"71 456 LINE",
"46 378 LINE",
"191 335 LINE",
"103 220 LINE",
"169 172 LINE",
"252 293 LINE"
);
}
);
width = 504;
}
);
unicode = 002A;
},
{
glyphname = plus;
layers = (
{
layerId = "fe8db221-af1a-4d91-ba78-10cb572f3b89";
name = Regular;
paths = (
{
closed = 1;
nodes = (
"233 297 LINE",
"51 297 LINE",
"51 220 LINE",
"233 220 LINE",
"233 38 LINE",
"320 38 LINE",
"320 220 LINE",
"502 220 LINE",
"502 297 LINE",
"320 297 LINE",
"320 468 LINE",
"233 468 LINE"
);
}
);
width = 553;
}
);
unicode = 002B;
},
{
glyphname = comma;
layers = (
{
layerId = "fe8db221-af1a-4d91-ba78-10cb572f3b89";
name = Regular;
paths = (
{
closed = 1;
nodes = (
"123 -108 LINE",
"205 123 LINE",
"87 123 LINE",
"46 -108 LINE"
);
}
);
width = 251;
}
);
unicode = 002C;
},
{
glyphname = hyphen;
layers = (
{
layerId = "fe8db221-af1a-4d91-ba78-10cb572f3b89";
name = Regular;
paths = (
{
closed = 1;
nodes = (
"51 305 LINE",
"51 223 LINE",
"348 223 LINE",
"348 305 LINE"
);
}
);
width = 400;
}
);
unicode = 002D;
},
{
glyphname = period;
layers = (
{
layerId = "fe8db221-af1a-4d91-ba78-10cb572f3b89";
name = Regular;
paths = (
{
closed = 1;
nodes = (
"163 -5 OFFCURVE",
"189 19 OFFCURVE",
"189 59 CURVE SMOOTH",
"189 96 OFFCURVE",
"166 123 OFFCURVE",
"123 123 CURVE SMOOTH",
"83 123 OFFCURVE",
"56 98 OFFCURVE",
"56 59 CURVE SMOOTH",
"56 23 OFFCURVE",
"80 -5 OFFCURVE",
"123 -5 CURVE SMOOTH"
);
}
);
width = 246;
}
);
unicode = 002E;
},
{
glyphname = slash;
layers = (
{
layerId = "fe8db221-af1a-4d91-ba78-10cb572f3b89";
name = Regular;
paths = (
{
closed = 1;
nodes = (
"105 -61 LINE",
"353 553 LINE",
"269 553 LINE",
"20 -61 LINE"
);
}
);
width = 378;
}
);
unicode = 002F;
},
{
glyphname = zero;
layers = (
{
layerId = "fe8db221-af1a-4d91-ba78-10cb572f3b89";
name = Regular;
paths = (
{
closed = 1;
nodes = (
"435 163 OFFCURVE",
"390 69 OFFCURVE",
"292 69 CURVE SMOOTH",
"193 69 OFFCURVE",
"148 165 OFFCURVE",
"148 274 CURVE SMOOTH",
"148 383 OFFCURVE",
"195 479 OFFCURVE",
"292 479 CURVE SMOOTH",
"387 479 OFFCURVE",
"435 387 OFFCURVE",
"435 274 CURVE SMOOTH"
);
},
{
closed = 1;
nodes = (
"455 -10 OFFCURVE",
"540 107 OFFCURVE",
"540 274 CURVE SMOOTH",
"540 438 OFFCURVE",
"457 563 OFFCURVE",
"292 563 CURVE SMOOTH",
"129 563 OFFCURVE",
"44 442 OFFCURVE",
"44 274 CURVE SMOOTH",
"44 109 OFFCURVE",
"126 -10 OFFCURVE",
"292 -10 CURVE SMOOTH"
);
}
);
width = 583;
}
);
unicode = 0030;
},
{
glyphname = one;
layers = (
{
layerId = "fe8db221-af1a-4d91-ba78-10cb572f3b89";
name = Regular;
paths = (
{
closed = 1;
nodes = (
"200 553 LINE",
"128 507 OFFCURVE",
"100 491 OFFCURVE",
"31 461 CURVE",
"31 369 LINE",
"97 397 OFFCURVE",
"132 416 OFFCURVE",
"200 461 CURVE",
"200 0 LINE",
"302 0 LINE",
"302 553 LINE"
);
}
);
width = 379;
}
);
unicode = 0031;
},
{
glyphname = two;
layers = (
{
layerId = "fe8db221-af1a-4d91-ba78-10cb572f3b89";
name = Regular;
paths = (
{
closed = 1;
nodes = (
"148 369 LINE",
"148 433 OFFCURVE",
"188 484 OFFCURVE",
"259 484 CURVE SMOOTH",
"324 484 OFFCURVE",
"369 448 OFFCURVE",
"369 389 CURVE SMOOTH",
"369 331 OFFCURVE",
"320 295 OFFCURVE",
"247 253 CURVE SMOOTH",
"125 183 OFFCURVE",
"52 135 OFFCURVE",
"52 28 CURVE",
"51 0 LINE",
"476 0 LINE",
"476 82 LINE",
"171 82 LINE",
"193 116 OFFCURVE",
"242 148 OFFCURVE",
"287 170 CURVE",
"394 226 OFFCURVE",
"476 286 OFFCURVE",
"476 389 CURVE SMOOTH",
"476 504 OFFCURVE",
"378 566 OFFCURVE",
"259 566 CURVE SMOOTH",
"143 566 OFFCURVE",
"41 491 OFFCURVE",
"41 369 CURVE"
);
}
);
width = 517;
}
);
unicode = 0032;
},
{
glyphname = three;
layers = (
{
layerId = "fe8db221-af1a-4d91-ba78-10cb572f3b89";
name = Regular;
paths = (
{
closed = 1;
nodes = (
"195 69 OFFCURVE",
"148 104 OFFCURVE",
"148 174 CURVE",
"41 174 LINE",
"41 55 OFFCURVE",
"139 -13 OFFCURVE",
"259 -13 CURVE SMOOTH",
"367 -13 OFFCURVE",
"476 44 OFFCURVE",
"476 154 CURVE SMOOTH",
"476 214 OFFCURVE",
"442 253 OFFCURVE",
"376 284 CURVE",
"427 308 OFFCURVE",
"463 346 OFFCURVE",
"463 407 CURVE SMOOTH",
"463 510 OFFCURVE",
"365 566 OFFCURVE",
"259 566 CURVE SMOOTH",
"146 566 OFFCURVE",
"44 501 OFFCURVE",
"44 387 CURVE",
"151 387 LINE",
"151 445 OFFCURVE",
"191 484 OFFCURVE",
"259 484 CURVE SMOOTH",
"318 484 OFFCURVE",
"356 454 OFFCURVE",
"356 402 CURVE SMOOTH",
"356 352 OFFCURVE",
"314 325 OFFCURVE",
"253 325 CURVE SMOOTH",
"202 325 LINE",
"202 246 LINE",
"248 246 LINE SMOOTH",
"307 246 OFFCURVE",
"369 218 OFFCURVE",
"369 156 CURVE",
"368 102 OFFCURVE",
"324 69 OFFCURVE",
"259 69 CURVE SMOOTH"
);
}
);
width = 517;
}
);
unicode = 0033;
},
{
glyphname = four;
layers = (
{
layerId = "fe8db221-af1a-4d91-ba78-10cb572f3b89";
name = Regular;
paths = (
{
closed = 1;
nodes = (
"141 195 LINE",
"335 443 LINE",
"335 195 LINE"
);
},
{
closed = 1;
nodes = (
"36 118 LINE",
"335 118 LINE",
"335 0 LINE",
"438 0 LINE",
"438 118 LINE",
"509 118 LINE",
"509 195 LINE",
"438 195 LINE",
"438 553 LINE",
"317 553 LINE",
"36 192 LINE"
);
}
);
width = 545;
}
);
unicode = 0034;
},
{
glyphname = five;
layers = (
{
layerId = "fe8db221-af1a-4d91-ba78-10cb572f3b89";
name = Regular;
paths = (
{
closed = 1;
nodes = (
"190 69 OFFCURVE",
"148 118 OFFCURVE",
"148 184 CURVE",
"41 184 LINE",
"41 64 OFFCURVE",
"140 -13 OFFCURVE",
"259 -13 CURVE SMOOTH",
"374 -13 OFFCURVE",
"476 59 OFFCURVE",
"476 177 CURVE",
"476 178 LINE",
"476 293 OFFCURVE",
"392 364 OFFCURVE",
"278 364 CURVE SMOOTH",
"238 364 OFFCURVE",
"208 358 OFFCURVE",
"174 340 CURVE",
"193 471 LINE",
"445 471 LINE",
"445 553 LINE",
"108 553 LINE",
"69 278 LINE",
"161 246 LINE",
"186 269 OFFCURVE",
"217 282 OFFCURVE",
"259 282 CURVE SMOOTH",
"323 282 OFFCURVE",
"369 234 OFFCURVE",
"369 174 CURVE SMOOTH",
"369 116 OFFCURVE",
"326 69 OFFCURVE",
"259 69 CURVE SMOOTH"
);
}
);
width = 517;
}
);
unicode = 0035;
},
{
glyphname = six;
layers = (
{
layerId = "fe8db221-af1a-4d91-ba78-10cb572f3b89";
name = Regular;
paths = (
{
closed = 1;
nodes = (
"207 69 OFFCURVE",
"159 114 OFFCURVE",
"159 174 CURVE SMOOTH",
"159 238 OFFCURVE",
"205 282 OFFCURVE",
"269 282 CURVE SMOOTH",
"329 282 OFFCURVE",
"379 240 OFFCURVE",
"379 174 CURVE SMOOTH",
"379 116 OFFCURVE",
"335 69 OFFCURVE",
"270 69 CURVE SMOOTH"
);
},
{
closed = 1;
nodes = (
"148 395 OFFCURVE",
"176 484 OFFCURVE",
"275 484 CURVE SMOOTH",
"329 484 OFFCURVE",
"369 451 OFFCURVE",
"369 404 CURVE",
"476 404 LINE",
"476 498 OFFCURVE",
"383 566 OFFCURVE",
"274 566 CURVE SMOOTH",
"112 566 OFFCURVE",
"46 450 OFFCURVE",
"46 276 CURVE SMOOTH",
"46 105 OFFCURVE",
"115 -13 OFFCURVE",
"282 -13 CURVE SMOOTH",
"390 -13 OFFCURVE",
"486 62 OFFCURVE",
"486 177 CURVE",
"486 178 LINE",
"486 290 OFFCURVE",
"400 364 OFFCURVE",
"290 364 CURVE SMOOTH",
"230 364 OFFCURVE",
"184 344 OFFCURVE",
"151 296 CURVE"
);
}
);
width = 533;
}
);
unicode = 0036;
},
{
glyphname = seven;
layers = (
{
layerId = "fe8db221-af1a-4d91-ba78-10cb572f3b89";
name = Regular;
paths = (
{
closed = 1;
nodes = (
"345 471 LINE",
"232 325 OFFCURVE",
"144 168 OFFCURVE",
"113 0 CURVE",
"220 0 LINE",
"249 171 OFFCURVE",
"346 337 OFFCURVE",
"468 492 CURVE",
"468 553 LINE",
"23 553 LINE",
"23 471 LINE"
);
}
);
width = 492;
}
);
unicode = 0037;
},
{
glyphname = eight;
layers = (
{
layerId = "fe8db221-af1a-4d91-ba78-10cb572f3b89";
name = Regular;
paths = (
{
closed = 1;
nodes = (
"437 307 OFFCURVE",
"471 349 OFFCURVE",
"471 407 CURVE SMOOTH",
"471 513 OFFCURVE",
"378 566 OFFCURVE",
"268 566 CURVE SMOOTH",
"161 566 OFFCURVE",
"67 513 OFFCURVE",
"67 407 CURVE SMOOTH",
"67 349 OFFCURVE",
"95 310 OFFCURVE",
"156 286 CURVE",
"90 258 OFFCURVE",
"46 217 OFFCURVE",
"46 154 CURVE SMOOTH",
"46 44 OFFCURVE",
"155 -13 OFFCURVE",
"268 -13 CURVE SMOOTH",
"379 -13 OFFCURVE",
"491 43 OFFCURVE",
"491 154 CURVE SMOOTH",
"491 215 OFFCURVE",
"450 256 OFFCURVE",
"381 285 CURVE"
);
},
{
closed = 1;
nodes = (
"204 69 OFFCURVE",
"154 102 OFFCURVE",
"154 158 CURVE SMOOTH",
"154 218 OFFCURVE",
"207 251 OFFCURVE",
"268 251 CURVE SMOOTH",
"327 251 OFFCURVE",
"383 221 OFFCURVE",
"383 158 CURVE SMOOTH",
"383 105 OFFCURVE",
"334 69 OFFCURVE",
"268 69 CURVE SMOOTH"
);
},
{
closed = 1;
nodes = (
"213 320 OFFCURVE",
"171 354 OFFCURVE",
"171 404 CURVE SMOOTH",
"171 450 OFFCURVE",
"211 484 OFFCURVE",
"268 484 CURVE SMOOTH",
"323 484 OFFCURVE",
"366 453 OFFCURVE",
"366 404 CURVE SMOOTH",
"366 355 OFFCURVE",
"327 320 OFFCURVE",
"268 320 CURVE SMOOTH"
);
}
);
width = 536;
}
);
unicode = 0038;
},
{
glyphname = nine;
layers = (
{
layerId = "fe8db221-af1a-4d91-ba78-10cb572f3b89";
name = Regular;
paths = (
{
closed = 1;
nodes = (
"325 484 OFFCURVE",
"373 437 OFFCURVE",
"373 379 CURVE SMOOTH",
"373 315 OFFCURVE",
"327 271 OFFCURVE",
"263 271 CURVE SMOOTH",
"203 271 OFFCURVE",
"153 313 OFFCURVE",
"153 379 CURVE SMOOTH",
"153 435 OFFCURVE",
"199 484 OFFCURVE",
"263 484 CURVE SMOOTH"
);
},
{
closed = 1;
nodes = (
"383 150 OFFCURVE",
"353 69 OFFCURVE",
"258 69 CURVE SMOOTH",
"205 69 OFFCURVE",
"164 101 OFFCURVE",
"164 148 CURVE",
"56 148 LINE",
"56 55 OFFCURVE",
"134 -13 OFFCURVE",
"259 -13 CURVE SMOOTH",
"421 -13 OFFCURVE",
"486 104 OFFCURVE",
"486 276 CURVE SMOOTH",
"486 447 OFFCURVE",
"417 566 OFFCURVE",
"251 566 CURVE SMOOTH",
"144 566 OFFCURVE",
"46 489 OFFCURVE",
"46 376 CURVE",
"46 375 LINE",
"46 264 OFFCURVE",
"134 189 OFFCURVE",
"243 189 CURVE SMOOTH",
"299 189 OFFCURVE",
"348 207 OFFCURVE",
"382 257 CURVE"
);
}
);
width = 533;
}
);
unicode = 0039;
},
{
glyphname = colon;
layers = (
{
layerId = "fe8db221-af1a-4d91-ba78-10cb572f3b89";
name = Regular;
paths = (
{
closed = 1;
nodes = (
"173 333 OFFCURVE",
"200 358 OFFCURVE",
"200 397 CURVE SMOOTH",
"200 433 OFFCURVE",
"176 461 OFFCURVE",
"133 461 CURVE SMOOTH",
"93 461 OFFCURVE",
"67 437 OFFCURVE",
"67 397 CURVE SMOOTH",
"67 360 OFFCURVE",
"90 333 OFFCURVE",
"133 333 CURVE SMOOTH"
);
},
{
closed = 1;
nodes = (
"173 -5 OFFCURVE",
"200 20 OFFCURVE",
"200 59 CURVE SMOOTH",
"200 95 OFFCURVE",
"176 123 OFFCURVE",
"133 123 CURVE SMOOTH",
"93 123 OFFCURVE",
"67 99 OFFCURVE",
"67 59 CURVE SMOOTH",
"67 22 OFFCURVE",
"90 -5 OFFCURVE",
"133 -5 CURVE SMOOTH"
);
}
);
width = 267;
}
);
unicode = 003A;
},
{
glyphname = semicolon;
layers = (
{
layerId = "fe8db221-af1a-4d91-ba78-10cb572f3b89";
name = Regular;
paths = (
{
closed = 1;
nodes = (
"131 -108 LINE",
"212 123 LINE",
"95 123 LINE",
"54 -108 LINE"
);
},
{
closed = 1;
nodes = (
"186 333 OFFCURVE",
"212 357 OFFCURVE",
"212 397 CURVE SMOOTH",
"212 434 OFFCURVE",
"189 461 OFFCURVE",
"146 461 CURVE SMOOTH",
"106 461 OFFCURVE",
"79 436 OFFCURVE",
"79 397 CURVE SMOOTH",
"79 361 OFFCURVE",
"103 333 OFFCURVE",
"146 333 CURVE SMOOTH"
);
}
);
width = 268;
}
);
unicode = 003B;
},
{
glyphname = less;
layers = (
{
layerId = "fe8db221-af1a-4d91-ba78-10cb572f3b89";
name = Regular;
paths = (
{
closed = 1;
nodes = (
"38 220 LINE",
"458 41 LINE",
"458 128 LINE",
"134 259 LINE",
"458 389 LINE",
"458 476 LINE",
"38 297 LINE"
);
}
);
width = 510;
}
);
unicode = 003C;
},
{
glyphname = equal;
layers = (
{
layerId = "fe8db221-af1a-4d91-ba78-10cb572f3b89";
name = Regular;
paths = (
{
closed = 1;
nodes = (
"517 108 LINE",
"517 184 LINE",
"67 184 LINE",
"67 108 LINE"
);
},
{
closed = 1;
nodes = (
"517 333 LINE",
"517 410 LINE",
"67 410 LINE",
"67 333 LINE"
);
}
);
width = 583;
}
);
unicode = 003D;
},
{
glyphname = greater;
layers = (
{
layerId = "fe8db221-af1a-4d91-ba78-10cb572f3b89";
name = Regular;
paths = (
{
closed = 1;
nodes = (
"51 128 LINE",
"51 41 LINE",
"471 220 LINE",
"471 297 LINE",
"51 476 LINE",
"51 389 LINE",
"375 258 LINE"
);
}
);
width = 509;
}
);
unicode = 003E;
},
{
glyphname = question;
layers = (
{
layerId = "fe8db221-af1a-4d91-ba78-10cb572f3b89";
name = Regular;
paths = (
{
closed = 1;
nodes = (
"285 -5 OFFCURVE",
"312 21 OFFCURVE",
"312 59 CURVE SMOOTH",
"312 95 OFFCURVE",
"288 123 OFFCURVE",
"246 123 CURVE SMOOTH",
"206 123 OFFCURVE",
"179 98 OFFCURVE",
"179 59 CURVE SMOOTH",
"179 23 OFFCURVE",
"203 -5 OFFCURVE",
"246 -5 CURVE SMOOTH"
);
},
{
closed = 1;
nodes = (
"141 389 LINE",
"141 445 OFFCURVE",
"182 484 OFFCURVE",
"246 484 CURVE SMOOTH",
"308 484 OFFCURVE",
"353 455 OFFCURVE",
"353 397 CURVE SMOOTH",
"353 381 OFFCURVE",
"349 368 OFFCURVE",
"340 358 CURVE SMOOTH",
"322 338 OFFCURVE",
"291 320 OFFCURVE",
"258 301 CURVE SMOOTH",
"214 275 OFFCURVE",
"192 231 OFFCURVE",
"192 179 CURVE",
"300 179 LINE",
"300 202 OFFCURVE",
"306 218 OFFCURVE",
"321 234 CURVE SMOOTH",
"363 279 OFFCURVE",
"413 281 OFFCURVE",
"448 342 CURVE SMOOTH",
"457 358 OFFCURVE",
"461 378 OFFCURVE",
"461 402 CURVE SMOOTH",
"461 513 OFFCURVE",
"361 566 OFFCURVE",
"246 566 CURVE SMOOTH",
"135 566 OFFCURVE",
"33 503 OFFCURVE",
"33 389 CURVE"
);
}
);
width = 494;
}
);
unicode = 003F;
},
{
glyphname = at;
layers = (
{
layerId = "fe8db221-af1a-4d91-ba78-10cb572f3b89";
name = Regular;
paths = (
{
closed = 1;
nodes = (
"539 347 OFFCURVE",
"578 297 OFFCURVE",
"578 225 CURVE SMOOTH",
"578 138 OFFCURVE",
"527 60 OFFCURVE",
"440 60 CURVE SMOOTH",
"371 60 OFFCURVE",
"333 106 OFFCURVE",
"333 183 CURVE SMOOTH",
"333 268 OFFCURVE",
"382 347 OFFCURVE",
"468 347 CURVE SMOOTH"
);
},
{
closed = 1;
nodes = (
"330 420 OFFCURVE",
"243 314 OFFCURVE",
"243 179 CURVE SMOOTH",
"243 69 OFFCURVE",
"299 -10 OFFCURVE",
"417 -10 CURVE SMOOTH",
"488 -10 OFFCURVE",
"538 13 OFFCURVE",
"573 72 CURVE",
"582 27 OFFCURVE",
"627 1 OFFCURVE",
"676 1 CURVE SMOOTH",
"805 1 OFFCURVE",
"869 128 OFFCURVE",
"869 275 CURVE SMOOTH",
"869 484 OFFCURVE",
"702 620 OFFCURVE",
"492 620 CURVE SMOOTH",
"248 620 OFFCURVE",
"51 430 OFFCURVE",
"51 179 CURVE SMOOTH",
"51 -45 OFFCURVE",
"227 -193 OFFCURVE",
"463 -193 CURVE SMOOTH",
"521 -193 OFFCURVE",
"552 -187 OFFCURVE",
"629 -164 CURVE",
"629 -108 LINE",
"559 -128 OFFCURVE",
"536 -132 OFFCURVE",
"462 -132 CURVE SMOOTH",
"269 -132 OFFCURVE",
"123 -9 OFFCURVE",
"123 179 CURVE SMOOTH",
"123 383 OFFCURVE",
"289 553 OFFCURVE",
"502 553 CURVE SMOOTH",
"666 553 OFFCURVE",
"797 440 OFFCURVE",
"797 270 CURVE SMOOTH",
"797 174 OFFCURVE",
"767 60 OFFCURVE",
"694 60 CURVE SMOOTH",
"670 60 OFFCURVE",
"656 74 OFFCURVE",
"656 102 CURVE SMOOTH",
"656 106 OFFCURVE",
"656 111 OFFCURVE",
"657 116 CURVE",
"686 401 LINE",
"604 401 LINE",
"595 347 LINE",
"567 397 OFFCURVE",
"534 420 OFFCURVE",
"460 420 CURVE SMOOTH"
);
}
);
width = 915;
}
);
unicode = 0040;
},
{
glyphname = A;
layers = (
{
anchors = (
{
name = bottom;
position = "{328, 0}";
},
{
name = ogonek;
position = "{640, 10}";
},
{
name = top;
position = "{328, 860}";
}
);
layerId = "fe8db221-af1a-4d91-ba78-10cb572f3b89";
name = Regular;
paths = (
{
closed = 1;
nodes = (
"279 553 LINE",
"13 0 LINE",
"120 0 LINE",
"175 121 LINE",
"474 121 LINE",
"529 0 LINE",
"643 0 LINE",
"376 553 LINE"
);
},
{
closed = 1;
nodes = (
"440 198 LINE",
"210 198 LINE",
"326 450 LINE"
);
}
);
width = 655;
}
);
unicode = 0041;
},
{
glyphname = B;
layers = (
{
anchors = (
{
name = bottom;
position = "{304, 0}";
},
{
name = top;
position = "{304, 860}";
}
);
layerId = "fe8db221-af1a-4d91-ba78-10cb572f3b89";
name = Regular;
paths = (
{
closed = 1;
nodes = (
"333 471 LINE SMOOTH",
"394 471 OFFCURVE",
"435 448 OFFCURVE",
"435 395 CURVE SMOOTH",
"435 345 OFFCURVE",
"397 320 OFFCURVE",
"333 320 CURVE SMOOTH",
"174 320 LINE",
"174 471 LINE"
);
},
{
closed = 1;
nodes = (
"348 243 LINE SMOOTH",
"412 243 OFFCURVE",
"461 223 OFFCURVE",
"461 160 CURVE SMOOTH",
"461 102 OFFCURVE",
"420 82 OFFCURVE",
"348 82 CURVE SMOOTH",
"174 82 LINE",
"174 243 LINE"
);
},
{
closed = 1;
nodes = (
"568 219 OFFCURVE",
"532 259 OFFCURVE",
"472 284 CURVE",
"517 309 OFFCURVE",
"543 347 OFFCURVE",
"543 394 CURVE SMOOTH",
"543 499 OFFCURVE",
"456 553 OFFCURVE",
"333 553 CURVE SMOOTH",
"72 553 LINE",
"72 0 LINE",
"343 0 LINE SMOOTH",
"468 0 OFFCURVE",
"568 41 OFFCURVE",
"568 159 CURVE SMOOTH"
);
}
);
width = 607;
}
);
unicode = 0042;
},
{
glyphname = C;
layers = (
{
anchors = (
{
name = bottom;
position = "{335, 0}";
},
{
name = top;
position = "{335, 860}";
}
);
layerId = "fe8db221-af1a-4d91-ba78-10cb572f3b89";
name = Regular;
paths = (
{
closed = 1;
nodes = (
"607 358 LINE",
"575 485 OFFCURVE",
"475 568 OFFCURVE",
"335 568 CURVE SMOOTH",
"161 568 OFFCURVE",
"41 445 OFFCURVE",
"41 276 CURVE SMOOTH",
"41 109 OFFCURVE",
"160 -15 OFFCURVE",
"335 -15 CURVE SMOOTH",
"472 -15 OFFCURVE",
"574 66 OFFCURVE",
"607 195 CURVE",
"504 195 LINE",
"480 122 OFFCURVE",
"418 69 OFFCURVE",
"335 69 CURVE SMOOTH",
"225 69 OFFCURVE",
"148 155 OFFCURVE",
"148 276 CURVE SMOOTH",
"148 396 OFFCURVE",
"223 484 OFFCURVE",
"335 484 CURVE SMOOTH",
"416 484 OFFCURVE",
"479 433 OFFCURVE",
"504 358 CURVE"
);
}
);
width = 637;
}
);
unicode = 0043;
},
{
glyphname = D;
layers = (
{
anchors = (
{
name = bottom;
position = "{332, 0}";
},
{
name = center;
position = "{156, 276}";
},
{
name = top;
position = "{332, 860}";
}
);
layerId = "fe8db221-af1a-4d91-ba78-10cb572f3b89";
name = Regular;
paths = (
{
closed = 1;
nodes = (
"517 222 OFFCURVE",
"499 176 OFFCURVE",
"463 138 CURVE SMOOTH",
"428 101 OFFCURVE",
"374 82 OFFCURVE",
"302 82 CURVE SMOOTH",
"174 82 LINE",
"174 471 LINE",
"302 471 LINE SMOOTH",
"374 471 OFFCURVE",
"428 452 OFFCURVE",
"463 415 CURVE SMOOTH",
"499 377 OFFCURVE",
"517 331 OFFCURVE",
"517 276 CURVE SMOOTH"
);
},
{
closed = 1;
nodes = (
"302 0 LINE SMOOTH",
"408 0 OFFCURVE",
"488 27 OFFCURVE",
"541 82 CURVE SMOOTH",
"595 137 OFFCURVE",
"622 201 OFFCURVE",
"622 276 CURVE SMOOTH",
"622 351 OFFCURVE",
"595 416 OFFCURVE",
"541 471 CURVE SMOOTH",
"488 526 OFFCURVE",
"408 553 OFFCURVE",
"302 553 CURVE SMOOTH",
"72 553 LINE",
"72 0 LINE"
);
}
);
width = 663;
}
);
unicode = 0044;
},
{
glyphname = E;
layers = (
{
anchors = (
{
name = bottom;
position = "{285, 0}";
},
{
name = ogonek;
position = "{395, 10}";
},
{
name = top;
position = "{285, 860}";
},
{
name = topleft;
position = "{20, 860}";
}
);
layerId = "fe8db221-af1a-4d91-ba78-10cb572f3b89";
name = Regular;
paths = (
{
closed = 1;
nodes = (
"72 0 LINE",
"522 0 LINE",
"522 82 LINE",
"174 82 LINE",
"174 241 LINE",
"486 241 LINE",
"486 323 LINE",
"174 323 LINE",
"174 471 LINE",
"522 471 LINE",
"522 553 LINE",
"72 553 LINE"
);
}
);
width = 569;
}
);
unicode = 0045;
},
{
glyphname = F;
layers = (
{
anchors = (
{
name = bottom;
position = "{281, 0}";
},
{
name = top;
position = "{281, 860}";
}
);
layerId = "fe8db221-af1a-4d91-ba78-10cb572f3b89";
name = Regular;
paths = (
{
closed = 1;
nodes = (
"72 0 LINE",
"174 0 LINE",
"174 225 LINE",
"486 225 LINE",
"486 307 LINE",
"174 307 LINE",
"174 471 LINE",
"522 471 LINE",
"522 553 LINE",
"72 553 LINE"
);
}
);
width = 561;
}
);
unicode = 0046;
},
{
glyphname = G;
layers = (
{
anchors = (
{
name = bottom;
position = "{331, 0}";
},
{
name = top;
position = "{331, 860}";
}
);
layerId = "fe8db221-af1a-4d91-ba78-10cb572f3b89";
name = Regular;
paths = (
{
closed = 1;
nodes = (
"598 379 LINE",
"589 429 OFFCURVE",
"561 473 OFFCURVE",
"514 511 CURVE SMOOTH",
"467 549 OFFCURVE",
"407 568 OFFCURVE",
"334 568 CURVE SMOOTH",
"161 568 OFFCURVE",
"41 445 OFFCURVE",
"41 276 CURVE SMOOTH",
"41 110 OFFCURVE",
"161 -15 OFFCURVE",
"336 -15 CURVE SMOOTH",
"416 -15 OFFCURVE",
"477 11 OFFCURVE",
"518 64 CURVE SMOOTH",
"523 70 LINE",
"525 37 OFFCURVE",
"527 13 OFFCURVE",
"529 0 CURVE",
"605 0 LINE",
"605 292 LINE",
"324 292 LINE",
"324 215 LINE",
"521 215 LINE",
"504 128 OFFCURVE",
"436 69 OFFCURVE",
"339 69 CURVE SMOOTH",
"229 69 OFFCURVE",
"148 155 OFFCURVE",
"148 276 CURVE SMOOTH",
"148 397 OFFCURVE",
"221 484 OFFCURVE",
"336 484 CURVE",
"416 483 OFFCURVE",
"480 447 OFFCURVE",
"498 379 CURVE"
);
}
);
width = 661;
}
);
unicode = 0047;
},
{
glyphname = H;
layers = (
{
anchors = (
{
name = bottom;
position = "{348, 0}";
},
{
name = center;
position = "{348, 430}";
},
{
name = top;
position = "{348, 860}";
},
{
name = topleft;
position = "{20, 860}";
}
);
layerId = "fe8db221-af1a-4d91-ba78-10cb572f3b89";
name = Regular;
paths = (
{
closed = 1;
nodes = (
"72 0 LINE",
"174 0 LINE",
"174 241 LINE",
"522 241 LINE",
"522 0 LINE",
"625 0 LINE",
"625 553 LINE",
"522 553 LINE",
"522 323 LINE",
"174 323 LINE",
"174 553 LINE",
"72 553 LINE"
);
}
);
width = 696;
}
);
unicode = 0048;
},
{
glyphname = I;
layers = (
{
anchors = (
{
name = bottom;
position = "{128, 0}";
},
{
name = ogonek;
position = "{179, 10}";
},
{
name = top;
position = "{128, 860}";
},
{
name = topleft;
position = "{20, 860}";
}
);
layerId = "fe8db221-af1a-4d91-ba78-10cb572f3b89";
name = Regular;
paths = (
{
closed = 1;
nodes = (
"77 0 LINE",
"179 0 LINE",
"179 553 LINE",
"77 553 LINE"
);
}
);
width = 256;
}
);
unicode = 0049;
},
{
glyphname = J;
layers = (
{
anchors = (
{
name = bottom;
position = "{260, 0}";
},
{
name = top;
position = "{260, 860}";
}
);
layerId = "fe8db221-af1a-4d91-ba78-10cb572f3b89";
name = Regular;
paths = (
{
closed = 1;
nodes = (
"453 553 LINE",
"351 553 LINE",
"351 205 LINE SMOOTH",
"351 156 OFFCURVE",
"340 122 OFFCURVE",
"318 102 CURVE SMOOTH",
"296 82 OFFCURVE",
"270 72 OFFCURVE",
"239 72 CURVE SMOOTH",
"208 72 OFFCURVE",
"181 81 OFFCURVE",
"159 99 CURVE SMOOTH",
"136 118 OFFCURVE",
"125 146 OFFCURVE",
"125 184 CURVE",
"28 184 LINE",
"28 116 OFFCURVE",
"49 67 OFFCURVE",
"90 36 CURVE SMOOTH",
"131 5 OFFCURVE",
"180 -10 OFFCURVE",
"238 -10 CURVE SMOOTH",
"298 -10 OFFCURVE",
"349 7 OFFCURVE",
"390 40 CURVE SMOOTH",
"432 73 OFFCURVE",
"453 128 OFFCURVE",
"453 205 CURVE SMOOTH"
);
}
);
width = 520;
}
);
unicode = 004A;
},
{
glyphname = K;
layers = (
{
anchors = (
{
name = bottom;
position = "{320, 0}";
},
{
name = top;
position = "{320, 860}";
}
);
layerId = "fe8db221-af1a-4d91-ba78-10cb572f3b89";
name = Regular;
paths = (
{
closed = 1;
nodes = (
"602 553 LINE",
"471 553 LINE",
"174 286 LINE",
"174 553 LINE",
"72 553 LINE",
"72 0 LINE",
"174 0 LINE",
"174 165 LINE",
"300 279 LINE",
"504 0 LINE",
"630 0 LINE",
"374 346 LINE"
);
}
);
width = 640;
}
);
unicode = 004B;
},
{
glyphname = L;
layers = (
{
anchors = (
{
name = bottom;
position = "{262, 0}";
},
{
name = center;
position = "{121, 329}";
},
{
name = top;
position = "{262, 860}";
},
{
name = topright;
position = "{503, 860}";
}
);
layerId = "fe8db221-af1a-4d91-ba78-10cb572f3b89";
name = Regular;
paths = (
{
closed = 1;
nodes = (
"174 82 LINE",
"174 553 LINE",
"72 553 LINE",
"72 0 LINE",
"492 0 LINE",
"492 82 LINE"
);
}
);
width = 523;
}
);
unicode = 004C;
},
{
glyphname = M;
layers = (
{
anchors = (
{
name = bottom;
position = "{410, 0}";
},
{
name = top;
position = "{410, 860}";
}
);
layerId = "fe8db221-af1a-4d91-ba78-10cb572f3b89";
name = Regular;
paths = (
{
closed = 1;
nodes = (
"645 0 LINE",
"748 0 LINE",
"748 553 LINE",
"595 553 LINE",
"413 112 LINE",
"226 553 LINE",
"72 553 LINE",
"72 0 LINE",
"174 0 LINE",
"174 213 LINE",
"168 453 LINE",
"267 231 OFFCURVE",
"334 80 OFFCURVE",
"370 0 CURVE",
"456 0 LINE",
"651 453 LINE",
"645 213 LINE"
);
}
);
width = 819;
}
);
unicode = 004D;
},
{
glyphname = N;
layers = (
{
anchors = (
{
name = bottom;
position = "{348, 0}";
},
{
name = top;
position = "{348, 860}";
}
);
layerId = "fe8db221-af1a-4d91-ba78-10cb572f3b89";
name = Regular;
paths = (
{
closed = 1;
nodes = (
"72 0 LINE",
"174 0 LINE",
"174 430 LINE",
"507 0 LINE",
"625 0 LINE",
"625 553 LINE",
"522 553 LINE",
"522 123 LINE",
"189 553 LINE",
"72 553 LINE"
);
}
);
width = 696;
}
);
unicode = 004E;
},
{
glyphname = O;
layers = (
{
anchors = (
{
name = bottom;
position = "{336, 0}";
},
{
name = center;
position = "{336, 277}";
},
{
name = ogonek;
position = "{419, 10}";
},
{
name = top;
position = "{336, 860}";
},
{
name = topleft;
position = "{20, 860}";
},
{
name = topright;
position = "{651, 860}";
}
);
layerId = "fe8db221-af1a-4d91-ba78-10cb572f3b89";
name = Regular;
paths = (
{
closed = 1;
nodes = (
"522 156 OFFCURVE",
"448 69 OFFCURVE",
"335 69 CURVE SMOOTH",
"225 69 OFFCURVE",
"148 155 OFFCURVE",
"148 276 CURVE SMOOTH",
"148 396 OFFCURVE",
"223 484 OFFCURVE",
"335 484 CURVE SMOOTH",
"447 484 OFFCURVE",
"522 399 OFFCURVE",
"522 276 CURVE SMOOTH"
);
},
{
closed = 1;
nodes = (
"509 -15 OFFCURVE",
"630 107 OFFCURVE",
"630 276 CURVE SMOOTH",
"630 444 OFFCURVE",
"512 568 OFFCURVE",
"335 568 CURVE SMOOTH",
"161 568 OFFCURVE",
"41 445 OFFCURVE",
"41 276 CURVE SMOOTH",
"41 109 OFFCURVE",
"160 -15 OFFCURVE",
"335 -15 CURVE SMOOTH"
);
}
);
width = 671;
}
);
unicode = 004F;
},
{
glyphname = P;
layers = (
{
anchors = (
{
name = bottom;
position = "{306, 0}";
},
{
name = top;
position = "{306, 860}";
}
);
layerId = "fe8db221-af1a-4d91-ba78-10cb572f3b89";
name = Regular;
paths = (
{
closed = 1;
nodes = (
"471 345 OFFCURVE",
"461 321 OFFCURVE",
"440 307 CURVE SMOOTH",
"420 294 OFFCURVE",
"391 287 OFFCURVE",
"353 287 CURVE SMOOTH",
"174 287 LINE",
"174 471 LINE",
"353 471 LINE SMOOTH",
"391 471 OFFCURVE",
"420 464 OFFCURVE",
"440 451 CURVE SMOOTH",
"461 437 OFFCURVE",
"471 413 OFFCURVE",
"471 379 CURVE SMOOTH"
);
},
{
closed = 1;
nodes = (
"353 205 LINE SMOOTH",
"425 205 OFFCURVE",
"480 220 OFFCURVE",
"519 251 CURVE SMOOTH",
"558 282 OFFCURVE",
"578 324 OFFCURVE",
"579 379 CURVE",
"579 380 LINE",
"579 434 OFFCURVE",
"559 476 OFFCURVE",
"520 507 CURVE SMOOTH",
"481 538 OFFCURVE",
"425 553 OFFCURVE",
"353 553 CURVE SMOOTH",
"72 553 LINE",
"72 0 LINE",
"174 0 LINE",
"174 205 LINE"
);
}
);
width = 612;
}
);
unicode = 0050;
},
{
color = 9;
glyphname = Q;
layers = (
{
anchors = (
{
name = bottom;
position = "{333, 0}";
},
{
name = top;
position = "{333, 860}";
}
);
layerId = "fe8db221-af1a-4d91-ba78-10cb572f3b89";
name = Regular;
paths = (
{
closed = 1;
nodes = (
"517 222 OFFCURVE",
"504 177 OFFCURVE",
"477 141 CURVE",
"388 230 LINE",
"336 178 LINE",
"421 93 LINE",
"395 79 OFFCURVE",
"366 72 OFFCURVE",
"333 72 CURVE SMOOTH",
"278 72 OFFCURVE",
"234 91 OFFCURVE",
"200 128 CURVE SMOOTH",
"165 165 OFFCURVE",
"148 215 OFFCURVE",
"148 276 CURVE SMOOTH",
"148 338 OFFCURVE",
"165 388 OFFCURVE",
"200 425 CURVE SMOOTH",
"234 462 OFFCURVE",
"278 481 OFFCURVE",
"333 481 CURVE SMOOTH",
"388 481 OFFCURVE",
"432 462 OFFCURVE",
"466 425 CURVE SMOOTH",
"500 388 OFFCURVE",
"517 338 OFFCURVE",
"517 276 CURVE SMOOTH"
);
},
{
closed = 1;
nodes = (
"393 -13 OFFCURVE",
"445 0 OFFCURVE",
"488 25 CURVE",
"546 -32 LINE",
"598 20 LINE",
"547 72 LINE",
"599 127 OFFCURVE",
"625 195 OFFCURVE",
"625 276 CURVE SMOOTH",
"625 358 OFFCURVE",
"598 427 OFFCURVE",
"545 483 CURVE SMOOTH",
"492 538 OFFCURVE",
"422 566 OFFCURVE",
"333 566 CURVE SMOOTH",
"244 566 OFFCURVE",
"173 538 OFFCURVE",
"120 483 CURVE SMOOTH",
"67 427 OFFCURVE",
"41 358 OFFCURVE",
"41 276 CURVE SMOOTH",
"41 195 OFFCURVE",
"67 126 OFFCURVE",
"120 70 CURVE SMOOTH",
"173 15 OFFCURVE",
"244 -13 OFFCURVE",
"333 -13 CURVE SMOOTH"
);
}
);
width = 666;
}
);
unicode = 0051;
},
{
glyphname = R;
layers = (
{
anchors = (
{
name = bottom;
position = "{309, 0}";
},
{
name = top;
position = "{309, 860}";
}
);
layerId = "fe8db221-af1a-4d91-ba78-10cb572f3b89";
name = Regular;
paths = (
{
closed = 1;
nodes = (
"456 353 OFFCURVE",
"446 331 OFFCURVE",
"425 317 CURVE SMOOTH",
"404 304 OFFCURVE",
"375 297 OFFCURVE",
"338 297 CURVE SMOOTH",
"174 297 LINE",
"174 471 LINE",
"338 471 LINE SMOOTH",
"375 471 OFFCURVE",
"404 464 OFFCURVE",
"425 451 CURVE SMOOTH",
"446 437 OFFCURVE",
"456 415 OFFCURVE",
"456 384 CURVE SMOOTH"
);
},
{
closed = 1;
nodes = (
"420 223 LINE",
"455 231 OFFCURVE",
"484 243 OFFCURVE",
"506 261 CURVE SMOOTH",
"544 292 OFFCURVE",
"563 333 OFFCURVE",
"563 384 CURVE SMOOTH",
"563 435 OFFCURVE",
"544 476 OFFCURVE",
"506 507 CURVE SMOOTH",
"467 538 OFFCURVE",
"411 553 OFFCURVE",
"338 553 CURVE SMOOTH",
"72 553 LINE",
"72 0 LINE",
"174 0 LINE",
"174 215 LINE",
"308 215 LINE",
"466 0 LINE",
"589 0 LINE"
);
}
);
width = 617;
}
);
unicode = 0052;
},
{
glyphname = S;
layers = (
{
anchors = (
{
name = bottom;
position = "{287, 0}";
},
{
name = top;
position = "{287, 860}";
}
);
layerId = "fe8db221-af1a-4d91-ba78-10cb572f3b89";
name = Regular;
paths = (
{
closed = 1;
nodes = (
"352 484 OFFCURVE",
"410 448 OFFCURVE",
"410 389 CURVE",
"517 389 LINE",
"517 431 OFFCURVE",
"505 465 OFFCURVE",
"481 490 CURVE SMOOTH",
"431 543 OFFCURVE",
"359 566 OFFCURVE",
"287 566 CURVE SMOOTH",
"222 566 OFFCURVE",
"145 546 OFFCURVE",
"98 498 CURVE",
"71 473 OFFCURVE",
"56 436 OFFCURVE",
"56 399 CURVE SMOOTH",
"56 340 OFFCURVE",
"86 299 OFFCURVE",
"136 275 CURVE SMOOTH",
"227 230 OFFCURVE",
"277 248 OFFCURVE",
"369 214 CURVE SMOOTH",
"402 202 OFFCURVE",
"425 185 OFFCURVE",
"425 154 CURVE SMOOTH",
"425 91 OFFCURVE",
"359 69 OFFCURVE",
"287 69 CURVE SMOOTH",
"218 69 OFFCURVE",
"148 100 OFFCURVE",
"148 169 CURVE",
"41 169 LINE",
"41 127 OFFCURVE",
"54 89 OFFCURVE",
"83 59 CURVE SMOOTH",
"131 8 OFFCURVE",
"214 -13 OFFCURVE",
"287 -13 CURVE SMOOTH",
"359 -13 OFFCURVE",
"440 4 OFFCURVE",
"490 54 CURVE",
"519 81 OFFCURVE",
"532 118 OFFCURVE",
"532 159 CURVE SMOOTH",
"532 213 OFFCURVE",
"509 255 OFFCURVE",
"453 282 CURVE SMOOTH",
"373 321 OFFCURVE",
"307 311 OFFCURVE",
"219 341 CURVE",
"186 351 OFFCURVE",
"164 369 OFFCURVE",
"164 399 CURVE SMOOTH",
"164 453 OFFCURVE",
"220 484 OFFCURVE",
"287 484 CURVE SMOOTH"
);
}
);
width = 573;
}
);
unicode = 0053;
},
{
glyphname = T;
layers = (
{
anchors = (
{
name = bottom;
position = "{305, 0}";
},
{
name = center;
position = "{295, 280}";
},
{
name = top;
position = "{295, 860}";
}
);
layerId = "fe8db221-af1a-4d91-ba78-10cb572f3b89";
name = Regular;
paths = (
{
closed = 1;
nodes = (
"243 0 LINE",
"346 0 LINE",
"346 471 LINE",
"566 471 LINE",
"566 553 LINE",
"23 553 LINE",
"23 471 LINE",
"243 471 LINE"
);
}
);
width = 589;
}
);
unicode = 0054;
},
{
glyphname = U;
layers = (
{
anchors = (
{
name = bottom;
position = "{333, 0}";
},
{
name = ogonek;
position = "{403, 10}";
},
{
name = top;
position = "{334, 860}";
},
{
name = topright;
position = "{646, 860}";
}
);
guideLines = (
{
position = "{0, 155}";
},
{
position = "{0, 90}";
}
);
hints = (
{
horizontal = 1;
place = "{-13, 85}";
type = Stem;
},
{
horizontal = 1;
place = "{282, 0}";
type = Stem;
},
{
horizontal = 1;
place = "{282, 0}";
type = Stem;
}
);
layerId = "fe8db221-af1a-4d91-ba78-10cb572f3b89";
name = Regular;
paths = (
{
closed = 1;
nodes = (
"501 -13 OFFCURVE",
"599 90 OFFCURVE",
"599 282 CURVE SMOOTH",
"599 553 LINE",
"497 553 LINE",
"497 282 LINE SMOOTH",
"497 155 OFFCURVE",
"445 72 OFFCURVE",
"334 72 CURVE SMOOTH",
"225 72 OFFCURVE",
"169 155 OFFCURVE",
"169 282 CURVE SMOOTH",
"169 553 LINE",
"67 553 LINE",
"67 282 LINE SMOOTH",
"67 90 OFFCURVE",
"165 -13 OFFCURVE",
"334 -13 CURVE SMOOTH"
);
}
);
width = 666;
}
);
unicode = 0055;
},
{
glyphname = V;
layers = (
{
anchors = (
{
name = bottom;
position = "{330, 0}";
},
{
name = top;
position = "{330, 860}";
}
);
layerId = "fe8db221-af1a-4d91-ba78-10cb572f3b89";
name = Regular;
paths = (
{
closed = 1;
nodes = (
"538 553 LINE",
"332 103 LINE",
"128 553 LINE",
"13 553 LINE",
"279 0 LINE",
"381 0 LINE",
"648 553 LINE"
);
}
);
width = 660;
}
);
unicode = 0056;
},
{
glyphname = W;
layers = (
{
anchors = (
{
name = bottom;
position = "{410, 0}";
},
{
name = top;
position = "{410, 860}";
}
);
layerId = "fe8db221-af1a-4d91-ba78-10cb572f3b89";
name = Regular;
paths = (
{
closed = 1;
nodes = (
"699 553 LINE",
"592 140 LINE",
"458 553 LINE",
"366 553 LINE",
"234 148 LINE",
"126 553 LINE",
"13 553 LINE",
"177 0 LINE",
"279 0 LINE",
"410 414 LINE",
"540 0 LINE",
"648 0 LINE",
"806 553 LINE"
);
}
);
width = 820;
}
);
unicode = 0057;
},
{
glyphname = X;
layers = (
{
anchors = (
{
name = bottom;
position = "{292, 0}";
},
{
name = top;
position = "{292, 860}";
}
);
layerId = "fe8db221-af1a-4d91-ba78-10cb572f3b89";
name = Regular;
paths = (
{
closed = 1;
nodes = (
"143 553 LINE",
"26 553 LINE",
"222 282 LINE",
"119 141 OFFCURVE",
"50 48 OFFCURVE",
"15 0 CURVE",
"133 0 LINE",
"292 220 LINE",
"451 0 LINE",
"568 0 LINE",
"362 282 LINE",
"558 553 LINE",
"440 553 LINE",
"292 345 LINE"
);
}
);
width = 583;
}
);
unicode = 0058;
},
{
glyphname = Y;
layers = (
{
anchors = (
{
name = bottom;
position = "{295, 0}";
},
{
name = top;
position = "{295, 860}";
},
{
name = topleft;
position = "{20, 860}";
}
);
layerId = "fe8db221-af1a-4d91-ba78-10cb572f3b89";
name = Regular;
paths = (
{
closed = 1;
nodes = (
"244 0 LINE",
"346 0 LINE",
"346 210 LINE",
"574 553 LINE",
"456 553 LINE",
"296 297 LINE",
"139 553 LINE",
"15 553 LINE",
"244 208 LINE"
);
}
);
width = 590;
}
);
unicode = 0059;
},
{
glyphname = Z;
layers = (
{
anchors = (
{
name = bottom;
position = "{277, 0}";
},
{
name = top;
position = "{277, 860}";
}
);
layerId = "fe8db221-af1a-4d91-ba78-10cb572f3b89";
name = Regular;
paths = (
{
closed = 1;
nodes = (
"184 82 LINE",
"502 492 LINE",
"502 553 LINE",
"51 553 LINE",
"51 471 LINE",
"369 471 LINE",
"51 61 LINE",
"51 0 LINE",
"502 0 LINE",
"502 82 LINE"
);
}
);
width = 553;
}
);
unicode = 005A;
},
{
glyphname = bracketleft;
layers = (
{
layerId = "fe8db221-af1a-4d91-ba78-10cb572f3b89";
name = Regular;
paths = (
{
closed = 1;
nodes = (
"72 -154 LINE",
"243 -154 LINE",
"243 -92 LINE",
"156 -92 LINE",
"156 579 LINE",
"243 579 LINE",
"243 640 LINE",
"72 640 LINE"
);
}
);
width = 258;
}
);
unicode = 005B;
},
{
glyphname = backslash;
layers = (
{
layerId = "fe8db221-af1a-4d91-ba78-10cb572f3b89";
name = Regular;
paths = (
{
closed = 1;
nodes = (
"358 -61 LINE",
"110 553 LINE",
"26 553 LINE",
"274 -61 LINE"
);
}
);
width = 379;
}
);
unicode = 005C;
},
{
glyphname = bracketright;
layers = (
{
layerId = "fe8db221-af1a-4d91-ba78-10cb572f3b89";
name = Regular;
paths = (
{
closed = 1;
nodes = (
"15 640 LINE",
"15 579 LINE",
"102 579 LINE",
"102 -92 LINE",
"15 -92 LINE",
"15 -154 LINE",
"187 -154 LINE",
"187 640 LINE"
);
}
);
width = 259;
}
);
unicode = 005D;
},
{
glyphname = asciicircum;
layers = (
{
layerId = "fe8db221-af1a-4d91-ba78-10cb572f3b89";
name = Regular;
paths = (
{
closed = 1;
nodes = (
"185 553 LINE",
"41 256 LINE",
"128 256 LINE",
"225 466 LINE",
"323 256 LINE",
"410 256 LINE",
"265 553 LINE"
);
}
);
width = 450;
}
);
unicode = 005E;
},
{
glyphname = underscore;
layers = (
{
layerId = "fe8db221-af1a-4d91-ba78-10cb572f3b89";
name = Regular;
paths = (
{
closed = 1;
nodes = (
"466 -92 LINE",
"466 -15 LINE",
"15 -15 LINE",
"15 -92 LINE"
);
}
);
width = 481;
}
);
unicode = 005F;
},
{
glyphname = grave;
layers = (
{
layerId = "fe8db221-af1a-4d91-ba78-10cb572f3b89";
name = Regular;
paths = (
{
closed = 1;
nodes = (
"261 425 LINE",
"169 579 LINE",
"41 579 LINE",
"169 425 LINE"
);
}
);
width = 307;
}
);
unicode = 0060;
},
{
glyphname = a;
layers = (
{
anchors = (
{
name = bottom;
position = "{278, 0}";
},
{
name = ogonek;
position = "{499, 10}";
},
{
name = top;
position = "{278, 456}";
}
);
layerId = "fe8db221-af1a-4d91-ba78-10cb572f3b89";
name = Regular;
paths = (
{
closed = 1;
nodes = (
"166 315 LINE",
"166 363 OFFCURVE",
"220 381 OFFCURVE",
"274 381 CURVE SMOOTH",
"342 381 OFFCURVE",
"384 357 OFFCURVE",
"384 294 CURVE SMOOTH",
"384 266 LINE",
"261 266 LINE SMOOTH",
"140 266 OFFCURVE",
"46 235 OFFCURVE",
"46 133 CURVE SMOOTH",
"46 39 OFFCURVE",
"118 -10 OFFCURVE",
"225 -10 CURVE SMOOTH",
"294 -10 OFFCURVE",
"343 7 OFFCURVE",
"372 41 CURVE SMOOTH",
"377 47 OFFCURVE",
"381 52 OFFCURVE",
"386 58 CURVE",
"386 49 OFFCURVE",
"388 42 OFFCURVE",
"389 35 CURVE SMOOTH",
"392 19 OFFCURVE",
"395 7 OFFCURVE",
"397 0 CURVE",
"497 0 LINE",
"497 8 LINE",
"490 30 LINE",
"486 45 OFFCURVE",
"484 68 OFFCURVE",
"484 100 CURVE SMOOTH",
"484 276 LINE SMOOTH",
"484 343 OFFCURVE",
"466 391 OFFCURVE",
"429 420 CURVE SMOOTH",
"392 449 OFFCURVE",
"341 463 OFFCURVE",
"274 463 CURVE SMOOTH",
"207 463 OFFCURVE",
"155 449 OFFCURVE",
"119 420 CURVE SMOOTH",
"82 391 OFFCURVE",
"64 356 OFFCURVE",
"64 315 CURVE"
);
},
{
closed = 1;
nodes = (
"384 199 LINE",
"384 108 OFFCURVE",
"338 61 OFFCURVE",
"251 61 CURVE SMOOTH",
"194 61 OFFCURVE",
"148 80 OFFCURVE",
"148 128 CURVE SMOOTH",
"148 183 OFFCURVE",
"198 199 OFFCURVE",
"261 200 CURVE"
);
}
);
width = 555;
}
);
unicode = 0061;
},
{
glyphname = b;
layers = (
{
anchors = (
{
name = bottom;
position = "{291, 0}";
},
{
name = top;
position = "{291, 456}";
}
);
layerId = "fe8db221-af1a-4d91-ba78-10cb572f3b89";
name = Regular;
paths = (
{
closed = 1;
nodes = (
"540 363 OFFCURVE",
"464 466 OFFCURVE",
"325 466 CURVE SMOOTH",
"255 466 OFFCURVE",
"205 444 OFFCURVE",
"175 399 CURVE SMOOTH",
"172 394 LINE",
"172 625 LINE",
"72 625 LINE",
"72 0 LINE",
"164 0 LINE",
"168 68 LINE",
"175 57 LINE",
"205 12 OFFCURVE",
"255 -10 OFFCURVE",
"325 -10 CURVE SMOOTH",
"462 -10 OFFCURVE",
"540 90 OFFCURVE",
"540 228 CURVE SMOOTH"
);
},
{
closed = 1;
nodes = (
"172 315 OFFCURVE",
"218 387 OFFCURVE",
"307 387 CURVE SMOOTH",
"393 387 OFFCURVE",
"440 316 OFFCURVE",
"440 228 CURVE SMOOTH",
"440 137 OFFCURVE",
"394 69 OFFCURVE",
"307 69 CURVE SMOOTH",
"221 69 OFFCURVE",
"172 138 OFFCURVE",
"172 228 CURVE SMOOTH"
);
}
);
width = 581;
}
);
unicode = 0062;
},
{
glyphname = c;
layers = (
{
anchors = (
{
name = bottom;
position = "{286, 0}";
},
{
name = top;
position = "{280, 456}";
}
);
layerId = "fe8db221-af1a-4d91-ba78-10cb572f3b89";
name = Regular;
paths = (
{
closed = 1;
nodes = (
"399 -10 OFFCURVE",
"484 59 OFFCURVE",
"507 166 CURVE",
"409 166 LINE",
"392 112 OFFCURVE",
"347 71 OFFCURVE",
"284 71 CURVE SMOOTH",
"202 71 OFFCURVE",
"143 135 OFFCURVE",
"143 228 CURVE SMOOTH",
"143 317 OFFCURVE",
"198 384 OFFCURVE",
"284 384 CURVE SMOOTH",
"344 384 OFFCURVE",
"391 347 OFFCURVE",
"409 290 CURVE",
"450 289 LINE",
"507 289 LINE",
"485 394 OFFCURVE",
"400 466 OFFCURVE",
"284 466 CURVE SMOOTH",
"137 466 OFFCURVE",
"41 371 OFFCURVE",
"41 228 CURVE SMOOTH",
"41 86 OFFCURVE",
"133 -10 OFFCURVE",
"284 -10 CURVE SMOOTH"
);
}
);
width = 542;
}
);
unicode = 0063;
},
{
glyphname = d;
layers = (
{
anchors = (
{
name = bottom;
position = "{291, 0}";
},
{
name = center;
position = "{427, 533}";
},
{
name = top;
position = "{291, 456}";
},
{
name = topright;
position = "{662, 681}";
}
);
guideLines = (
{
position = "{0, 681}";
},
{
position = "{0, 510}";
}
);
layerId = "fe8db221-af1a-4d91-ba78-10cb572f3b89";
name = Regular;
paths = (
{
closed = 1;
nodes = (
"361 387 OFFCURVE",
"410 316 OFFCURVE",
"410 228 CURVE SMOOTH",
"410 143 OFFCURVE",
"363 69 OFFCURVE",
"274 69 CURVE SMOOTH",
"187 69 OFFCURVE",
"141 137 OFFCURVE",
"141 228 CURVE SMOOTH",
"141 313 OFFCURVE",
"186 387 OFFCURVE",
"274 387 CURVE SMOOTH"
);
},
{
closed = 1;
nodes = (
"120 466 OFFCURVE",
"41 364 OFFCURVE",
"41 228 CURVE SMOOTH",
"41 94 OFFCURVE",
"118 -10 OFFCURVE",
"256 -10 CURVE SMOOTH",
"327 -10 OFFCURVE",
"377 12 OFFCURVE",
"406 57 CURVE SMOOTH",
"413 68 LINE",
"415 38 OFFCURVE",
"416 16 OFFCURVE",
"417 0 CURVE",
"509 0 LINE",
"509 625 LINE",
"410 625 LINE",
"410 393 LINE",
"406 399 LINE SMOOTH",
"377 444 OFFCURVE",
"327 466 OFFCURVE",
"256 466 CURVE SMOOTH"
);
}
);
width = 581;
}
);
unicode = 0064;
},
{
glyphname = e;
layers = (
{
anchors = (
{
name = bottom;
position = "{276, 0}";
},
{
name = ogonek;
position = "{351, 10}";
},
{
name = top;
position = "{276, 456}";
}
);
layerId = "fe8db221-af1a-4d91-ba78-10cb572f3b89";
name = Regular;
paths = (
{
closed = 1;
nodes = (
"41 89 OFFCURVE",
"129 -10 OFFCURVE",
"282 -10 CURVE SMOOTH",
"384 -10 OFFCURVE",
"466 39 OFFCURVE",
"502 131 CURVE",
"389 131 LINE",
"364 92 OFFCURVE",
"329 72 OFFCURVE",
"282 72 CURVE SMOOTH",
"204 72 OFFCURVE",
"154 122 OFFCURVE",
"145 200 CURVE",
"510 200 LINE",
"510 200 OFFCURVE",
"510 217 OFFCURVE",
"510 228 CURVE SMOOTH",
"510 365 OFFCURVE",
"418 466 OFFCURVE",
"276 466 CURVE SMOOTH",
"133 466 OFFCURVE",
"41 368 OFFCURVE",
"41 228 CURVE SMOOTH"
);
},
{
closed = 1;
nodes = (
"146 266 LINE",
"157 335 OFFCURVE",
"201 384 OFFCURVE",
"276 384 CURVE SMOOTH",
"349 384 OFFCURVE",
"394 336 OFFCURVE",
"405 266 CURVE"
);
}
);
width = 551;
}
);
unicode = 0065;
},
{
glyphname = f;
layers = (
{
anchors = (
{
name = bottom;
position = "{177, 0}";
},
{
name = top;
position = "{177, 456}";
}
);
layerId = "fe8db221-af1a-4d91-ba78-10cb572f3b89";
name = Regular;
paths = (
{
closed = 1;
nodes = (
"110 381 LINE",
"110 0 LINE",
"210 0 LINE",
"210 381 LINE",
"323 381 LINE",
"323 456 LINE",
"210 456 LINE",
"210 514 OFFCURVE",
"222 545 OFFCURVE",
"277 545 CURVE SMOOTH",
"298 545 OFFCURVE",
"312 544 OFFCURVE",
"341 540 CURVE",
"341 620 LINE",
"310 625 OFFCURVE",
"294 627 OFFCURVE",
"277 627 CURVE SMOOTH",
"157 627 OFFCURVE",
"110 574 OFFCURVE",
"110 456 CURVE",
"33 456 LINE",
"33 381 LINE"
);
}
);
width = 353;
}
);
unicode = 0066;
},
{
glyphname = g;
layers = (
{
anchors = (
{
name = bottom;
position = "{291, 0}";
},
{
name = top;
position = "{291, 456}";
}
);
layerId = "fe8db221-af1a-4d91-ba78-10cb572f3b89";
name = Regular;
paths = (
{
closed = 1;
nodes = (
"68 -49 LINE",
"72 -83 OFFCURVE",
"91 -112 OFFCURVE",
"126 -137 CURVE SMOOTH",
"161 -162 OFFCURVE",
"213 -174 OFFCURVE",
"282 -174 CURVE SMOOTH",
"419 -174 OFFCURVE",
"509 -103 OFFCURVE",
"509 38 CURVE SMOOTH",
"509 456 LINE",
"420 456 LINE",
"416 386 LINE",
"406 401 LINE SMOOTH",
"377 444 OFFCURVE",
"327 466 OFFCURVE",
"256 466 CURVE SMOOTH",
"121 466 OFFCURVE",
"41 367 OFFCURVE",
"41 233 CURVE SMOOTH",
"41 101 OFFCURVE",
"119 0 OFFCURVE",
"256 0 CURVE SMOOTH",
"327 0 OFFCURVE",
"377 22 OFFCURVE",
"406 65 CURVE SMOOTH",
"410 71 LINE",
"410 20 LINE SMOOTH",
"410 -57 OFFCURVE",
"356 -95 OFFCURVE",
"280 -95 CURVE SMOOTH",
"235 -95 OFFCURVE",
"181 -86 OFFCURVE",
"171 -49 CURVE"
);
},
{
closed = 1;
nodes = (
"360 387 OFFCURVE",
"410 318 OFFCURVE",
"410 233 CURVE SMOOTH",
"410 150 OFFCURVE",
"362 79 OFFCURVE",
"274 79 CURVE SMOOTH",
"191 79 OFFCURVE",
"141 141 OFFCURVE",
"141 233 CURVE SMOOTH",
"141 316 OFFCURVE",
"187 387 OFFCURVE",
"274 387 CURVE SMOOTH"
);
}
);
width = 581;
}
);
unicode = 0067;
},
{
glyphname = h;
layers = (
{
anchors = (
{
name = bottom;
position = "{290, 0}";
},
{
name = center;
position = "{150, 533}";
},
{
name = top;
position = "{290, 456}";
}
);
layerId = "fe8db221-af1a-4d91-ba78-10cb572f3b89";
name = Regular;
paths = (
{
closed = 1;
nodes = (
"72 625 LINE",
"72 0 LINE",
"172 0 LINE",
"172 264 LINE SMOOTH",
"172 306 OFFCURVE",
"186 336 OFFCURVE",
"213 354 CURVE SMOOTH",
"241 372 OFFCURVE",
"270 381 OFFCURVE",
"300 381 CURVE SMOOTH",
"329 381 OFFCURVE",
"355 372 OFFCURVE",
"378 354 CURVE SMOOTH",
"401 336 OFFCURVE",
"412 306 OFFCURVE",
"412 264 CURVE SMOOTH",
"412 0 LINE",
"512 0 LINE",
"512 264 LINE SMOOTH",
"512 392 OFFCURVE",
"448 463 OFFCURVE",
"325 463 CURVE SMOOTH",
"269 463 OFFCURVE",
"224 447 OFFCURVE",
"189 414 CURVE SMOOTH",
"183 408 OFFCURVE",
"177 401 OFFCURVE",
"172 394 CURVE",
"172 625 LINE"
);
}
);
width = 580;
}
);
unicode = 0068;
},
{
glyphname = i;
layers = (
{
anchors = (
{
name = _top;
position = "{121, 860}";
},
{
name = bottom;
position = "{120, 0}";
},
{
name = top;
position = "{121, 645}";
}
);
layerId = "fe8db221-af1a-4d91-ba78-10cb572f3b89";
name = Regular;
paths = (
{
closed = 1;
nodes = (
"70 456 LINE",
"70 0 LINE",
"170 0 LINE",
"170 456 LINE"
);
},
{
closed = 1;
nodes = (
"52 545 OFFCURVE",
"76 517 OFFCURVE",
"118 517 CURVE SMOOTH",
"158 517 OFFCURVE",
"185 542 OFFCURVE",
"185 581 CURVE SMOOTH",
"185 617 OFFCURVE",
"161 645 OFFCURVE",
"118 645 CURVE SMOOTH",
"79 645 OFFCURVE",
"52 619 OFFCURVE",
"52 581 CURVE SMOOTH"
);
}
);
width = 240;
}
);
unicode = 0069;
},
{
glyphname = j;
layers = (
{
layerId = "fe8db221-af1a-4d91-ba78-10cb572f3b89";
name = Regular;
paths = (
{
closed = 1;
nodes = (
"170 456 LINE",
"71 456 LINE",
"71 0 LINE SMOOTH",
"71 -33 OFFCURVE",
"67 -57 OFFCURVE",
"58 -70 CURVE",
"50 -83 OFFCURVE",
"36 -90 OFFCURVE",
"17 -90 CURVE SMOOTH",
"4 -90 OFFCURVE",
"-6 -89 OFFCURVE",
"-15 -88 CURVE",
"-23 -87 OFFCURVE",
"-31 -86 OFFCURVE",
"-40 -84 CURVE",
"-40 -164 LINE",
"-33 -166 OFFCURVE",
"-23 -168 OFFCURVE",
"-12 -169 CURVE",
"-1 -171 OFFCURVE",
"13 -172 OFFCURVE",
"28 -172 CURVE SMOOTH",
"70 -172 OFFCURVE",
"104 -160 OFFCURVE",
"131 -136 CURVE SMOOTH",
"157 -112 OFFCURVE",
"170 -67 OFFCURVE",
"171 0 CURVE"
);
},
{
closed = 1;
nodes = (
"52 545 OFFCURVE",
"76 517 OFFCURVE",
"118 517 CURVE SMOOTH",
"158 517 OFFCURVE",
"185 542 OFFCURVE",
"185 581 CURVE SMOOTH",
"185 617 OFFCURVE",
"161 645 OFFCURVE",
"118 645 CURVE SMOOTH",
"79 645 OFFCURVE",
"52 619 OFFCURVE",
"52 581 CURVE SMOOTH"
);
}
);
width = 241;
}
);
unicode = 006A;
},
{
glyphname = k;
layers = (
{
anchors = (
{
name = bottom;
position = "{268, 0}";
},
{
name = top;
position = "{268, 456}";
}
);
layerId = "fe8db221-af1a-4d91-ba78-10cb572f3b89";
name = Regular;
paths = (
{
closed = 1;
nodes = (
"72 625 LINE",
"72 0 LINE",
"172 0 LINE",
"172 127 LINE",
"249 204 LINE",
"410 0 LINE",
"528 0 LINE",
"314 269 LINE",
"502 456 LINE",
"379 456 LINE",
"172 247 LINE",
"172 625 LINE"
);
}
);
width = 535;
}
);
unicode = 006B;
},
{
glyphname = l;
layers = (
{
anchors = (
{
name = bottom;
position = "{122, 0}";
},
{
name = center;
position = "{122, 312}";
},
{
name = top;
position = "{143, 625}";
},
{
name = topright;
position = "{327, 625}";
}
);
layerId = "fe8db221-af1a-4d91-ba78-10cb572f3b89";
name = Regular;
paths = (
{
closed = 1;
nodes = (
"72 625 LINE",
"72 0 LINE",
"172 0 LINE",
"172 625 LINE"
);
}
);
width = 243;
}
);
unicode = 006C;
},
{
glyphname = m;
layers = (
{
anchors = (
{
name = bottom;
position = "{424, 0}";
},
{
name = top;
position = "{424, 456}";
}
);
layerId = "fe8db221-af1a-4d91-ba78-10cb572f3b89";
name = Regular;
paths = (
{
closed = 1;
nodes = (
"72 456 LINE",
"72 0 LINE",
"172 0 LINE",
"172 264 LINE SMOOTH",
"172 337 OFFCURVE",
"214 381 OFFCURVE",
"282 381 CURVE SMOOTH",
"343 381 OFFCURVE",
"376 339 OFFCURVE",
"376 264 CURVE SMOOTH",
"376 0 LINE",
"476 0 LINE",
"476 264 LINE SMOOTH",
"476 336 OFFCURVE",
"519 381 OFFCURVE",
"586 381 CURVE SMOOTH",
"648 381 OFFCURVE",
"681 339 OFFCURVE",
"681 264 CURVE SMOOTH",
"681 0 LINE",
"781 0 LINE",
"781 264 LINE SMOOTH",
"781 388 OFFCURVE",
"729 463 OFFCURVE",
"612 463 CURVE SMOOTH",
"548 463 OFFCURVE",
"486 439 OFFCURVE",
"454 382 CURVE",
"428 434 OFFCURVE",
"375 463 OFFCURVE",
"307 463 CURVE SMOOTH",
"247 463 OFFCURVE",
"193 435 OFFCURVE",
"166 383 CURVE",
"161 456 LINE"
);
}
);
width = 848;
}
);
unicode = 006D;
},
{
glyphname = n;
layers = (
{
anchors = (
{
name = bottom;
position = "{290, 0}";
},
{
name = top;
position = "{290, 456}";
}
);
layerId = "fe8db221-af1a-4d91-ba78-10cb572f3b89";
name = Regular;
paths = (
{
closed = 1;
nodes = (
"72 456 LINE",
"72 0 LINE",
"172 0 LINE",
"172 264 LINE SMOOTH",
"172 339 OFFCURVE",
"227 381 OFFCURVE",
"300 381 CURVE SMOOTH",
"367 381 OFFCURVE",
"412 340 OFFCURVE",
"412 264 CURVE SMOOTH",
"412 0 LINE",
"512 0 LINE",
"512 264 LINE SMOOTH",
"512 392 OFFCURVE",
"448 463 OFFCURVE",
"325 463 CURVE SMOOTH",
"262 463 OFFCURVE",
"198 440 OFFCURVE",
"165 384 CURVE",
"161 456 LINE"
);
}
);
width = 580;
}
);
unicode = 006E;
},
{
glyphname = o;
layers = (
{
anchors = (
{
name = bottom;
position = "{284, 0}";
},
{
name = center;
position = "{284, 228}";
},
{
name = ogonek;
position = "{511, 10}";
},
{
name = top;
position = "{284, 456}";
},
{
name = topright;
position = "{548, 456}";
}
);
layerId = "fe8db221-af1a-4d91-ba78-10cb572f3b89";
name = Regular;
paths = (
{
closed = 1;
nodes = (
"425 141 OFFCURVE",
"375 72 OFFCURVE",
"284 72 CURVE SMOOTH",
"197 72 OFFCURVE",
"143 138 OFFCURVE",
"143 228 CURVE SMOOTH",
"143 317 OFFCURVE",
"198 384 OFFCURVE",
"284 384 CURVE SMOOTH",
"371 384 OFFCURVE",
"425 317 OFFCURVE",
"425 228 CURVE SMOOTH"
);
},
{
closed = 1;
nodes = (
"41 159 OFFCURVE",
"63 102 OFFCURVE",
"106 57 CURVE SMOOTH",
"149 12 OFFCURVE",
"209 -10 OFFCURVE",
"284 -10 CURVE",
"285 -10 LINE",
"360 -10 OFFCURVE",
"419 12 OFFCURVE",
"462 57 CURVE SMOOTH",
"505 102 OFFCURVE",
"527 159 OFFCURVE",
"527 228 CURVE SMOOTH",
"527 297 OFFCURVE",
"505 354 OFFCURVE",
"462 399 CURVE SMOOTH",
"419 444 OFFCURVE",
"359 466 OFFCURVE",
"284 466 CURVE SMOOTH",
"209 466 OFFCURVE",
"149 444 OFFCURVE",
"106 399 CURVE SMOOTH",
"63 354 OFFCURVE",
"41 297 OFFCURVE",
"41 228 CURVE SMOOTH"
);
}
);
width = 568;
}
);
unicode = 006F;
},
{
glyphname = p;
layers = (
{
anchors = (
{
name = bottom;
position = "{291, 0}";
},
{
name = top;
position = "{291, 456}";
}
);
layerId = "fe8db221-af1a-4d91-ba78-10cb572f3b89";
name = Regular;
paths = (
{
closed = 1;
nodes = (
"540 362 OFFCURVE",
"464 466 OFFCURVE",
"325 466 CURVE SMOOTH",
"244 466 OFFCURVE",
"205 444 OFFCURVE",
"165 383 CURVE",
"161 456 LINE",
"72 456 LINE",
"72 -164 LINE",
"172 -164 LINE",
"172 62 LINE",
"205 12 OFFCURVE",
"253 -10 OFFCURVE",
"325 -10 CURVE SMOOTH",
"462 -10 OFFCURVE",
"540 90 OFFCURVE",
"540 228 CURVE SMOOTH"
);
},
{
closed = 1;
nodes = (
"172 315 OFFCURVE",
"218 387 OFFCURVE",
"307 387 CURVE SMOOTH",
"393 387 OFFCURVE",
"440 316 OFFCURVE",
"440 228 CURVE SMOOTH",
"440 137 OFFCURVE",
"394 69 OFFCURVE",
"307 69 CURVE SMOOTH",
"221 69 OFFCURVE",
"172 138 OFFCURVE",
"172 228 CURVE SMOOTH"
);
}
);
width = 581;
}
);
unicode = 0070;
},
{
glyphname = q;
layers = (
{
anchors = (
{
name = bottom;
position = "{291, 0}";
},
{
name = top;
position = "{291, 456}";
}
);
layerId = "fe8db221-af1a-4d91-ba78-10cb572f3b89";
name = Regular;
paths = (
{
closed = 1;
nodes = (
"361 387 OFFCURVE",
"410 316 OFFCURVE",
"410 228 CURVE SMOOTH",
"410 143 OFFCURVE",
"363 69 OFFCURVE",
"274 69 CURVE SMOOTH",
"187 69 OFFCURVE",
"141 137 OFFCURVE",
"141 228 CURVE SMOOTH",
"141 313 OFFCURVE",
"186 387 OFFCURVE",
"274 387 CURVE SMOOTH"
);
},
{
closed = 1;
nodes = (
"120 466 OFFCURVE",
"41 364 OFFCURVE",
"41 228 CURVE SMOOTH",
"41 94 OFFCURVE",
"118 -10 OFFCURVE",
"256 -10 CURVE SMOOTH",
"327 -10 OFFCURVE",
"377 12 OFFCURVE",
"406 57 CURVE SMOOTH",
"410 63 LINE",
"410 -164 LINE",
"509 -164 LINE",
"509 456 LINE",
"420 456 LINE",
"415 384 LINE",
"406 399 LINE SMOOTH",
"377 444 OFFCURVE",
"327 466 OFFCURVE",
"256 466 CURVE SMOOTH"
);
}
);
width = 581;
}
);
unicode = 0071;
},
{
glyphname = r;
layers = (
{
anchors = (
{
name = bottom;
position = "{132, 0}";
},
{
name = top;
position = "{191, 456}";
}
);
layerId = "fe8db221-af1a-4d91-ba78-10cb572f3b89";
name = Regular;
paths = (
{
closed = 1;
nodes = (
"72 456 LINE",
"72 0 LINE",
"172 0 LINE",
"172 258 LINE SMOOTH",
"172 301 OFFCURVE",
"186 330 OFFCURVE",
"213 345 CURVE SMOOTH",
"241 360 OFFCURVE",
"269 368 OFFCURVE",
"297 368 CURVE SMOOTH",
"308 368 OFFCURVE",
"319 367 OFFCURVE",
"329 366 CURVE",
"356 360 LINE",
"356 461 LINE",
"340 463 LINE",
"323 463 LINE SMOOTH",
"268 463 OFFCURVE",
"223 447 OFFCURVE",
"189 414 CURVE SMOOTH",
"180 405 OFFCURVE",
"172 395 OFFCURVE",
"165 384 CURVE",
"161 456 LINE"
);
}
);
width = 382;
}
);
unicode = 0072;
},
{
glyphname = s;
layers = (
{
anchors = (
{
name = bottom;
position = "{257, 0}";
},
{
name = top;
position = "{249, 456}";
}
);
layerId = "fe8db221-af1a-4d91-ba78-10cb572f3b89";
name = Regular;
paths = (
{
closed = 1;
nodes = (
"291 387 OFFCURVE",
"341 360 OFFCURVE",
"341 315 CURVE",
"444 315 LINE",
"444 410 OFFCURVE",
"355 466 OFFCURVE",
"247 466 CURVE SMOOTH",
"139 466 OFFCURVE",
"49 420 OFFCURVE",
"49 329 CURVE SMOOTH",
"49 280 OFFCURVE",
"72 245 OFFCURVE",
"115 224 CURVE SMOOTH",
"187 188 OFFCURVE",
"235 200 OFFCURVE",
"308 175 CURVE SMOOTH",
"336 166 OFFCURVE",
"354 151 OFFCURVE",
"354 126 CURVE SMOOTH",
"354 84 OFFCURVE",
"295 69 OFFCURVE",
"247 69 CURVE SMOOTH",
"198 69 OFFCURVE",
"144 87 OFFCURVE",
"143 131 CURVE",
"41 131 LINE",
"41 34 OFFCURVE",
"144 -10 OFFCURVE",
"247 -10 CURVE SMOOTH",
"354 -10 OFFCURVE",
"457 32 OFFCURVE",
"457 131 CURVE SMOOTH",
"457 180 OFFCURVE",
"433 216 OFFCURVE",
"391 236 CURVE",
"340 262 OFFCURVE",
"268 265 OFFCURVE",
"192 285 CURVE SMOOTH",
"165 292 OFFCURVE",
"152 306 OFFCURVE",
"152 329 CURVE SMOOTH",
"152 365 OFFCURVE",
"197 387 OFFCURVE",
"247 387 CURVE SMOOTH"
);
}
);
width = 497;
}
);
unicode = 0073;
},
{
glyphname = t;
layers = (
{
anchors = (
{
name = bottom;
position = "{275, 0}";
},
{
name = center;
position = "{178, 280}";
},
{
name = top;
position = "{178, 560}";
},
{
name = topright;
position = "{377, 681}";
}
);
guideLines = (
{
position = "{0, 758}";
},
{
position = "{0, 604}";
}
);
layerId = "fe8db221-af1a-4d91-ba78-10cb572f3b89";
name = Regular;
paths = (
{
closed = 1;
nodes = (
"100 563 LINE",
"100 456 LINE",
"26 456 LINE",
"26 381 LINE",
"100 381 LINE",
"100 169 LINE SMOOTH",
"100 102 OFFCURVE",
"114 57 OFFCURVE",
"143 33 CURVE SMOOTH",
"172 9 OFFCURVE",
"213 -3 OFFCURVE",
"266 -3 CURVE SMOOTH",
"283 -3 OFFCURVE",
"298 -2 OFFCURVE",
"311 1 CURVE SMOOTH",
"330 5 LINE",
"330 84 LINE",
"311 82 LINE",
"298 80 OFFCURVE",
"283 79 OFFCURVE",
"266 79 CURVE SMOOTH",
"243 79 OFFCURVE",
"227 85 OFFCURVE",
"216 97 CURVE SMOOTH",
"205 109 OFFCURVE",
"200 133 OFFCURVE",
"200 169 CURVE SMOOTH",
"200 381 LINE",
"315 381 LINE",
"315 456 LINE",
"200 456 LINE",
"200 563 LINE"
);
}
);
width = 355;
}
);
unicode = 0074;
},
{
glyphname = u;
layers = (
{
anchors = (
{
name = bottom;
position = "{290, 0}";
},
{
name = ogonek;
position = "{508, 10}";
},
{
name = top;
position = "{290, 456}";
},
{
name = topright;
position = "{560, 456}";
}
);
layerId = "fe8db221-af1a-4d91-ba78-10cb572f3b89";
name = Regular;
paths = (
{
closed = 1;
nodes = (
"508 0 LINE",
"508 456 LINE",
"409 456 LINE",
"409 192 LINE SMOOTH",
"409 150 OFFCURVE",
"395 120 OFFCURVE",
"367 101 CURVE SMOOTH",
"339 83 OFFCURVE",
"310 74 OFFCURVE",
"281 74 CURVE SMOOTH",
"251 74 OFFCURVE",
"225 83 OFFCURVE",
"202 101 CURVE SMOOTH",
"179 120 OFFCURVE",
"168 150 OFFCURVE",
"168 192 CURVE SMOOTH",
"168 456 LINE",
"68 456 LINE",
"68 192 LINE SMOOTH",
"68 123 OFFCURVE",
"85 72 OFFCURVE",
"119 40 CURVE SMOOTH",
"153 8 OFFCURVE",
"198 -8 OFFCURVE",
"255 -8 CURVE SMOOTH",
"311 -8 OFFCURVE",
"356 8 OFFCURVE",
"391 41 CURVE SMOOTH",
"399 49 OFFCURVE",
"406 57 OFFCURVE",
"412 67 CURVE",
"414 38 OFFCURVE",
"415 15 OFFCURVE",
"416 0 CURVE"
);
}
);
width = 580;
}
);
unicode = 0075;
},
{
glyphname = v;
layers = (
{
anchors = (
{
name = bottom;
position = "{264, 0}";
},
{
name = top;
position = "{264, 456}";
}
);
layerId = "fe8db221-af1a-4d91-ba78-10cb572f3b89";
name = Regular;
paths = (
{
closed = 1;
nodes = (
"310 0 LINE",
"515 456 LINE",
"410 456 LINE",
"265 109 LINE",
"123 456 LINE",
"13 456 LINE",
"218 0 LINE"
);
}
);
width = 527;
}
);
unicode = 0076;
},
{
glyphname = w;
layers = (
{
anchors = (
{
name = bottom;
position = "{366, 0}";
},
{
name = top;
position = "{366, 456}";
}
);
layerId = "fe8db221-af1a-4d91-ba78-10cb572f3b89";
name = Regular;
paths = (
{
closed = 1;
nodes = (
"617 456 LINE",
"533 136 LINE",
"421 456 LINE",
"320 456 LINE",
"208 137 LINE",
"121 456 LINE",
"13 456 LINE",
"156 0 LINE",
"250 0 LINE",
"368 343 LINE",
"485 0 LINE",
"582 0 LINE",
"720 456 LINE"
);
}
);
width = 732;
}
);
unicode = 0077;
},
{
glyphname = x;
layers = (
{
anchors = (
{
name = bottom;
position = "{259, 0}";
},
{
name = top;
position = "{259, 456}";
}
);
layerId = "fe8db221-af1a-4d91-ba78-10cb572f3b89";
name = Regular;
paths = (
{
closed = 1;
nodes = (
"133 456 LINE",
"23 456 LINE",
"192 229 LINE",
"15 0 LINE",
"125 0 LINE",
"259 170 LINE",
"392 0 LINE",
"502 0 LINE",
"325 229 LINE",
"494 456 LINE",
"384 456 LINE",
"259 290 LINE"
);
}
);
width = 517;
}
);
unicode = 0078;
},
{
glyphname = y;
layers = (
{
anchors = (
{
name = bottom;
position = "{264, 0}";
},
{
name = top;
position = "{264, 456}";
}
);
layerId = "fe8db221-af1a-4d91-ba78-10cb572f3b89";
name = Regular;
paths = (
{
closed = 1;
nodes = (
"515 456 LINE",
"410 456 LINE",
"266 109 LINE",
"123 456 LINE",
"13 456 LINE",
"217 2 LINE",
"190 -57 OFFCURVE",
"176 -86 OFFCURVE",
"130 -86 CURVE SMOOTH",
"107 -86 OFFCURVE",
"94 -85 OFFCURVE",
"73 -79 CURVE",
"73 -160 LINE",
"91 -167 OFFCURVE",
"117 -170 OFFCURVE",
"138 -170 CURVE SMOOTH",
"179 -170 OFFCURVE",
"212 -156 OFFCURVE",
"235 -129 CURVE SMOOTH",
"259 -101 OFFCURVE",
"284 -58 OFFCURVE",
"311 0 CURVE"
);
}
);
width = 527;
}
);
unicode = 0079;
},
{
glyphname = z;
layers = (
{
anchors = (
{
name = bottom;
position = "{261, 0}";
},
{
name = top;
position = "{261, 456}";
}
);
layerId = "fe8db221-af1a-4d91-ba78-10cb572f3b89";
name = Regular;
paths = (
{
closed = 1;
nodes = (
"51 61 LINE",
"51 0 LINE",
"471 0 LINE",
"471 79 LINE",
"184 79 LINE",
"471 394 LINE",
"471 456 LINE",
"51 456 LINE",
"51 376 LINE",
"338 376 LINE",
"53 62 LINE"
);
}
);
width = 522;
}
);
unicode = 007A;
},
{
glyphname = braceleft;
layers = (
{
layerId = "fe8db221-af1a-4d91-ba78-10cb572f3b89";
name = Regular;
paths = (
{
closed = 1;
nodes = (
"123 -46 LINE SMOOTH",
"123 -107 OFFCURVE",
"169 -154 OFFCURVE",
"228 -154 CURVE SMOOTH",
"289 -154 LINE",
"289 -108 LINE",
"264 -108 LINE SMOOTH",
"224 -108 OFFCURVE",
"207 -89 OFFCURVE",
"207 -49 CURVE SMOOTH",
"207 141 LINE SMOOTH",
"207 188 OFFCURVE",
"184 233 OFFCURVE",
"143 243 CURVE",
"187 254 OFFCURVE",
"207 298 OFFCURVE",
"207 346 CURVE SMOOTH",
"207 535 LINE SMOOTH",
"207 577 OFFCURVE",
"223 594 OFFCURVE",
"264 594 CURVE SMOOTH",
"289 594 LINE",
"289 640 LINE",
"228 640 LINE SMOOTH",
"172 640 OFFCURVE",
"123 596 OFFCURVE",
"123 532 CURVE SMOOTH",
"123 348 LINE SMOOTH",
"123 299 OFFCURVE",
"89 266 OFFCURVE",
"41 266 CURVE",
"41 220 LINE",
"90 220 OFFCURVE",
"123 186 OFFCURVE",
"123 138 CURVE SMOOTH"
);
}
);
width = 305;
}
);
unicode = 007B;
},
{
glyphname = bar;
layers = (
{
layerId = "fe8db221-af1a-4d91-ba78-10cb572f3b89";
name = Regular;
paths = (
{
closed = 1;
nodes = (
"77 -87 LINE",
"156 -87 LINE",
"156 553 LINE",
"77 553 LINE"
);
}
);
width = 233;
}
);
unicode = 007C;
},
{
glyphname = braceright;
layers = (
{
layerId = "fe8db221-af1a-4d91-ba78-10cb572f3b89";
name = Regular;
paths = (
{
closed = 1;
nodes = (
"77 -154 LINE SMOOTH",
"133 -154 OFFCURVE",
"182 -110 OFFCURVE",
"182 -46 CURVE SMOOTH",
"182 138 LINE SMOOTH",
"182 187 OFFCURVE",
"216 220 OFFCURVE",
"264 220 CURVE",
"264 266 LINE",
"215 266 OFFCURVE",
"182 300 OFFCURVE",
"182 348 CURVE SMOOTH",
"182 532 LINE SMOOTH",
"182 593 OFFCURVE",
"135 640 OFFCURVE",
"77 640 CURVE SMOOTH",
"15 640 LINE",
"15 594 LINE",
"41 594 LINE SMOOTH",
"78 594 OFFCURVE",
"97 579 OFFCURVE",
"97 535 CURVE SMOOTH",
"97 346 LINE SMOOTH",
"97 303 OFFCURVE",
"117 255 OFFCURVE",
"161 243 CURVE",
"120 233 OFFCURVE",
"97 185 OFFCURVE",
"97 141 CURVE SMOOTH",
"97 -49 LINE SMOOTH",
"97 -89 OFFCURVE",
"81 -108 OFFCURVE",
"41 -108 CURVE SMOOTH",
"15 -108 LINE",
"15 -154 LINE"
);
}
);
width = 304;
}
);
unicode = 007D;
},
{
glyphname = asciitilde;
layers = (
{
layerId = "fe8db221-af1a-4d91-ba78-10cb572f3b89";
name = Regular;
paths = (
{
closed = 1;
nodes = (
"110 199 LINE",
"116 230 OFFCURVE",
"150 252 OFFCURVE",
"193 252 CURVE SMOOTH",
"217 252 OFFCURVE",
"242 243 OFFCURVE",
"267 224 CURVE SMOOTH",
"293 205 OFFCURVE",
"324 195 OFFCURVE",
"359 195 CURVE SMOOTH",
"425 195 OFFCURVE",
"500 253 OFFCURVE",
"501 323 CURVE",
"442 323 LINE",
"438 293 OFFCURVE",
"400 270 OFFCURVE",
"360 270 CURVE SMOOTH",
"336 270 OFFCURVE",
"311 280 OFFCURVE",
"284 299 CURVE SMOOTH",
"257 318 OFFCURVE",
"227 327 OFFCURVE",
"193 327 CURVE SMOOTH",
"127 327 OFFCURVE",
"52 272 OFFCURVE",
"51 199 CURVE"
);
}
);
width = 552;
}
);
unicode = 007E;
},
{
glyphname = exclamdown;
layers = (
{
layerId = "fe8db221-af1a-4d91-ba78-10cb572f3b89";
name = Regular;
paths = (
{
closed = 1;
nodes = (
"205 433 OFFCURVE",
"181 461 OFFCURVE",
"138 461 CURVE SMOOTH",
"99 461 OFFCURVE",
"72 435 OFFCURVE",
"72 397 CURVE SMOOTH",
"72 361 OFFCURVE",
"96 333 OFFCURVE",
"138 333 CURVE SMOOTH",
"178 333 OFFCURVE",
"205 358 OFFCURVE",
"205 397 CURVE SMOOTH"
);
},
{
closed = 1;
nodes = (
"95 276 LINE",
"84 -97 LINE",
"192 -97 LINE",
"182 276 LINE"
);
}
);
width = 276;
}
);
unicode = 00A1;
},
{
glyphname = cent;
layers = (
{
components = (
{
name = c;
alignment = -1;
}
);
layerId = "fe8db221-af1a-4d91-ba78-10cb572f3b89";
name = Regular;
paths = (
{
closed = 1;
nodes = (
"297 -97 LINE",
"297 553 LINE",
"250 553 LINE",
"250 -97 LINE"
);
}
);
width = 542;
}
);
unicode = 00A2;
},
{
glyphname = sterling;
layers = (
{
layerId = "fe8db221-af1a-4d91-ba78-10cb572f3b89";
name = Regular;
paths = (
{
closed = 1;
nodes = (
"113 289 LINE",
"51 289 LINE",
"51 218 LINE",
"113 218 LINE",
"113 159 LINE SMOOTH",
"113 112 OFFCURVE",
"99 82 OFFCURVE",
"56 82 CURVE SMOOTH",
"51 82 LINE",
"51 0 LINE",
"517 0 LINE",
"517 82 LINE",
"184 82 LINE",
"209 98 OFFCURVE",
"215 133 OFFCURVE",
"215 169 CURVE SMOOTH",
"215 218 LINE",
"369 218 LINE",
"369 289 LINE",
"215 289 LINE",
"215 348 LINE SMOOTH",
"215 429 OFFCURVE",
"246 481 OFFCURVE",
"317 481 CURVE SMOOTH",
"381 481 OFFCURVE",
"420 442 OFFCURVE",
"420 369 CURVE",
"517 369 LINE",
"517 495 OFFCURVE",
"439 563 OFFCURVE",
"315 563 CURVE SMOOTH",
"188 563 OFFCURVE",
"113 485 OFFCURVE",
"113 348 CURVE SMOOTH"
);
}
);
width = 553;
}
);
unicode = 00A3;
},
{
glyphname = currency;
layers = (
{
layerId = "fe8db221-af1a-4d91-ba78-10cb572f3b89";
name = Regular;
paths = (
{
closed = 1;
nodes = (
"465 458 LINE",
"416 409 LINE",
"381 436 OFFCURVE",
"328 456 OFFCURVE",
"279 456 CURVE SMOOTH",
"232 456 OFFCURVE",
"179 438 OFFCURVE",
"141 409 CURVE",
"92 458 LINE",
"49 415 LINE",
"97 366 LINE",
"71 330 OFFCURVE",
"51 278 OFFCURVE",
"51 228 CURVE SMOOTH",
"51 180 OFFCURVE",
"70 128 OFFCURVE",
"98 89 CURVE",
"51 41 LINE",
"95 -2 LINE",
"142 45 LINE",
"180 18 OFFCURVE",
"233 0 OFFCURVE",
"279 0 CURVE SMOOTH",
"325 0 OFFCURVE",
"377 18 OFFCURVE",
"415 46 CURVE",
"462 -2 LINE",
"506 42 LINE",
"458 89 LINE",
"487 127 OFFCURVE",
"506 181 OFFCURVE",
"506 228 CURVE SMOOTH",
"506 272 OFFCURVE",
"490 324 OFFCURVE",
"460 366 CURVE",
"508 415 LINE"
);
},
{
closed = 1;
nodes = (
"192 61 OFFCURVE",
"116 130 OFFCURVE",
"116 226 CURVE SMOOTH",
"116 324 OFFCURVE",
"185 396 OFFCURVE",
"279 396 CURVE SMOOTH",
"374 396 OFFCURVE",
"441 322 OFFCURVE",
"441 226 CURVE SMOOTH",
"441 134 OFFCURVE",
"370 61 OFFCURVE",
"279 61 CURVE SMOOTH"
);
}
);
width = 557;
}
);
unicode = 00A4;
},
{
glyphname = yen;
layers = (
{
layerId = "fe8db221-af1a-4d91-ba78-10cb572f3b89";
name = Regular;
paths = (
{
closed = 1;
nodes = (
"348 189 LINE",
"471 189 LINE",
"471 246 LINE",
"354 246 LINE",
"558 553 LINE",
"443 553 LINE",
"298 319 LINE",
"154 553 LINE",
"36 553 LINE",
"240 246 LINE",
"123 246 LINE",
"123 189 LINE",
"246 189 LINE",
"246 133 LINE",
"123 133 LINE",
"123 77 LINE",
"246 77 LINE",
"246 0 LINE",
"348 0 LINE",
"348 77 LINE",
"471 77 LINE",
"471 133 LINE",
"348 133 LINE"
);
}
);
width = 590;
}
);
unicode = 00A5;
},
{
glyphname = brokenbar;
layers = (
{
layerId = "fe8db221-af1a-4d91-ba78-10cb572f3b89";
name = Regular;
paths = (
{
closed = 1;
nodes = (
"77 205 LINE",
"77 -87 LINE",
"156 -87 LINE",
"156 205 LINE"
);
},
{
closed = 1;
nodes = (
"156 275 LINE",
"156 553 LINE",
"77 553 LINE",
"77 275 LINE"
);
}
);
width = 233;
}
);
unicode = 00A6;
},
{
glyphname = section;
layers = (
{
layerId = "fe8db221-af1a-4d91-ba78-10cb572f3b89";
name = Regular;
paths = (
{
closed = 1;
nodes = (
"226 -91 OFFCURVE",
"174 -58 OFFCURVE",
"174 -5 CURVE",
"76 -5 LINE",
"76 -110 OFFCURVE",
"176 -166 OFFCURVE",
"287 -166 CURVE SMOOTH",
"392 -166 OFFCURVE",
"498 -112 OFFCURVE",
"498 -14 CURVE SMOOTH",
"498 32 OFFCURVE",
"480 64 OFFCURVE",
"442 89 CURVE",
"490 120 OFFCURVE",
"509 141 OFFCURVE",
"509 193 CURVE SMOOTH",
"509 285 OFFCURVE",
"427 326 OFFCURVE",
"326 337 CURVE",
"245 348 OFFCURVE",
"171 365 OFFCURVE",
"171 413 CURVE SMOOTH",
"171 461 OFFCURVE",
"219 491 OFFCURVE",
"279 491 CURVE SMOOTH",
"338 491 OFFCURVE",
"387 458 OFFCURVE",
"387 404 CURVE",
"485 404 LINE",
"485 443 OFFCURVE",
"474 474 OFFCURVE",
"453 497 CURVE SMOOTH",
"411 542 OFFCURVE",
"343 566 OFFCURVE",
"279 566 CURVE SMOOTH",
"181 566 OFFCURVE",
"73 514 OFFCURVE",
"73 413 CURVE SMOOTH",
"73 367 OFFCURVE",
"90 336 OFFCURVE",
"129 310 CURVE",
"81 279 OFFCURVE",
"61 257 OFFCURVE",
"61 206 CURVE SMOOTH",
"61 107 OFFCURVE",
"142 81 OFFCURVE",
"253 60 CURVE",
"335 46 OFFCURVE",
"399 37 OFFCURVE",
"399 -14 CURVE SMOOTH",
"399 -61 OFFCURVE",
"347 -91 OFFCURVE",
"287 -91 CURVE SMOOTH"
);
},
{
closed = 1;
nodes = (
"226 273 OFFCURVE",
"242 270 OFFCURVE",
"258 268 CURVE SMOOTH",
"339 258 OFFCURVE",
"415 239 OFFCURVE",
"415 189 CURVE SMOOTH",
"415 159 OFFCURVE",
"398 137 OFFCURVE",
"359 122 CURVE",
"345 126 OFFCURVE",
"329 129 OFFCURVE",
"313 131 CURVE SMOOTH",
"230 143 OFFCURVE",
"156 159 OFFCURVE",
"156 210 CURVE SMOOTH",
"156 242 OFFCURVE",
"173 261 OFFCURVE",
"212 277 CURVE"
);
}
);
width = 555;
}
);
unicode = 00A7;
},
{
glyphname = copyright;
layers = (
{
layerId = "fe8db221-af1a-4d91-ba78-10cb572f3b89";
name = Regular;
paths = (
{
closed = 1;
nodes = (
"484 323 LINE",
"466 392 OFFCURVE",
"415 437 OFFCURVE",
"336 437 CURVE SMOOTH",
"242 437 OFFCURVE",
"177 371 OFFCURVE",
"177 279 CURVE SMOOTH",
"177 189 OFFCURVE",
"238 120 OFFCURVE",
"336 120 CURVE SMOOTH",
"412 120 OFFCURVE",
"465 164 OFFCURVE",
"484 234 CURVE",
"428 234 LINE",
"417 197 OFFCURVE",
"381 166 OFFCURVE",
"336 166 CURVE SMOOTH",
"274 166 OFFCURVE",
"235 216 OFFCURVE",
"235 279 CURVE SMOOTH",
"235 343 OFFCURVE",
"275 391 OFFCURVE",
"336 391 CURVE SMOOTH",
"380 391 OFFCURVE",
"415 364 OFFCURVE",
"428 323 CURVE"
);
},
{
closed = 1;
nodes = (
"620 436 OFFCURVE",
"498 563 OFFCURVE",
"330 563 CURVE SMOOTH",
"166 563 OFFCURVE",
"41 440 OFFCURVE",
"41 276 CURVE SMOOTH",
"41 116 OFFCURVE",
"163 -10 OFFCURVE",
"330 -10 CURVE SMOOTH",
"495 -10 OFFCURVE",
"620 115 OFFCURVE",
"620 276 CURVE SMOOTH"
);
},
{
closed = 1;
nodes = (
"467 512 OFFCURVE",
"566 410 OFFCURVE",
"566 276 CURVE SMOOTH",
"566 145 OFFCURVE",
"468 41 OFFCURVE",
"330 41 CURVE SMOOTH",
"194 41 OFFCURVE",
"95 142 OFFCURVE",
"95 276 CURVE SMOOTH",
"95 412 OFFCURVE",
"194 512 OFFCURVE",
"330 512 CURVE SMOOTH"
);
}
);
width = 660;
}
);
unicode = 00A9;
},
{
glyphname = ordfeminine;
layers = (
{
layerId = "fe8db221-af1a-4d91-ba78-10cb572f3b89";
name = Regular;
paths = (
{
closed = 1;
nodes = (
"131 445 LINE",
"131 462 OFFCURVE",
"139 474 OFFCURVE",
"154 481 CURVE SMOOTH",
"169 488 OFFCURVE",
"187 492 OFFCURVE",
"207 492 CURVE SMOOTH",
"227 492 OFFCURVE",
"245 488 OFFCURVE",
"261 480 CURVE SMOOTH",
"277 471 OFFCURVE",
"285 455 OFFCURVE",
"285 431 CURVE SMOOTH",
"285 411 LINE",
"198 411 LINE SMOOTH",
"147 411 OFFCURVE",
"109 403 OFFCURVE",
"84 387 CURVE SMOOTH",
"59 372 OFFCURVE",
"46 348 OFFCURVE",
"46 317 CURVE SMOOTH",
"46 286 OFFCURVE",
"57 261 OFFCURVE",
"80 242 CURVE SMOOTH",
"102 224 OFFCURVE",
"133 215 OFFCURVE",
"173 215 CURVE SMOOTH",
"221 215 OFFCURVE",
"256 227 OFFCURVE",
"277 251 CURVE",
"286 263 LINE",
"287 254 OFFCURVE",
"288 247 OFFCURVE",
"290 241 CURVE",
"294 222 LINE",
"365 222 LINE",
"365 228 LINE",
"360 243 LINE",
"357 254 OFFCURVE",
"356 270 OFFCURVE",
"356 293 CURVE SMOOTH",
"356 418 LINE SMOOTH",
"356 465 OFFCURVE",
"343 499 OFFCURVE",
"317 520 CURVE SMOOTH",
"291 540 OFFCURVE",
"254 550 OFFCURVE",
"207 550 CURVE SMOOTH",
"160 550 OFFCURVE",
"124 540 OFFCURVE",
"98 520 CURVE SMOOTH",
"72 499 OFFCURVE",
"59 474 OFFCURVE",
"59 445 CURVE"
);
},
{
closed = 1;
nodes = (
"285 364 LINE",
"285 327 OFFCURVE",
"276 302 OFFCURVE",
"258 288 CURVE SMOOTH",
"240 273 OFFCURVE",
"218 266 OFFCURVE",
"191 266 CURVE SMOOTH",
"167 266 OFFCURVE",
"149 270 OFFCURVE",
"137 279 CURVE",
"125 287 OFFCURVE",
"119 298 OFFCURVE",
"119 313 CURVE SMOOTH",
"119 330 OFFCURVE",
"126 342 OFFCURVE",
"139 351 CURVE SMOOTH",
"152 360 OFFCURVE",
"171 364 OFFCURVE",
"198 364 CURVE SMOOTH"
);
}
);
width = 411;
}
);
unicode = 00AA;
},
{
glyphname = guillemotleft;
layers = (
{
layerId = "fe8db221-af1a-4d91-ba78-10cb572f3b89";
name = Regular;
paths = (
{
closed = 1;
nodes = (
"417 435 LINE",
"346 435 LINE",
"218 230 LINE",
"346 26 LINE",
"417 26 LINE",
"320 230 LINE"
);
},
{
closed = 1;
nodes = (
"192 333 OFFCURVE",
"224 401 OFFCURVE",
"241 435 CURVE",
"169 435 LINE",
"41 230 LINE",
"169 26 LINE",
"241 26 LINE",
"192 128 OFFCURVE",
"160 196 OFFCURVE",
"143 230 CURVE"
);
}
);
width = 463;
}
);
unicode = 00AB;
},
{
glyphname = registered;
layers = (
{
layerId = "fe8db221-af1a-4d91-ba78-10cb572f3b89";
name = Regular;
paths = (
{
closed = 1;
nodes = (
"414 305 OFFCURVE",
"392 290 OFFCURVE",
"350 290 CURVE SMOOTH",
"261 290 LINE",
"261 384 LINE",
"350 384 LINE SMOOTH",
"388 384 OFFCURVE",
"414 372 OFFCURVE",
"414 337 CURVE SMOOTH"
);
},
{
closed = 1;
nodes = (
"467 512 OFFCURVE",
"566 410 OFFCURVE",
"566 276 CURVE SMOOTH",
"566 145 OFFCURVE",
"468 41 OFFCURVE",
"330 41 CURVE SMOOTH",
"194 41 OFFCURVE",
"95 142 OFFCURVE",
"95 276 CURVE SMOOTH",
"95 412 OFFCURVE",
"194 512 OFFCURVE",
"330 512 CURVE SMOOTH"
);
},
{
closed = 1;
nodes = (
"620 436 OFFCURVE",
"498 563 OFFCURVE",
"330 563 CURVE SMOOTH",
"169 563 OFFCURVE",
"41 443 OFFCURVE",
"41 276 CURVE SMOOTH",
"41 116 OFFCURVE",
"163 -10 OFFCURVE",
"330 -10 CURVE SMOOTH",
"495 -10 OFFCURVE",
"620 115 OFFCURVE",
"620 276 CURVE SMOOTH"
);
},
{
closed = 1;
nodes = (
"395 250 LINE",
"442 260 OFFCURVE",
"472 290 OFFCURVE",
"472 337 CURVE SMOOTH",
"472 398 OFFCURVE",
"423 429 OFFCURVE",
"350 429 CURVE SMOOTH",
"206 429 LINE",
"206 129 LINE",
"261 129 LINE",
"261 245 LINE",
"335 245 LINE",
"420 129 LINE",
"486 129 LINE"
);
}
);
width = 660;
}
);
unicode = 00AE;
},
{
glyphname = degree;
layers = (
{
layerId = "fe8db221-af1a-4d91-ba78-10cb572f3b89";
name = Regular;
paths = (
{
closed = 1;
nodes = (
"46 369 OFFCURVE",
"91 320 OFFCURVE",
"164 320 CURVE SMOOTH",
"234 320 OFFCURVE",
"282 367 OFFCURVE",
"282 436 CURVE SMOOTH",
"282 503 OFFCURVE",
"238 553 OFFCURVE",
"164 553 CURVE SMOOTH",
"93 553 OFFCURVE",
"46 506 OFFCURVE",
"46 436 CURVE SMOOTH"
);
},
{
closed = 1;
nodes = (
"102 470 OFFCURVE",
"124 499 OFFCURVE",
"164 499 CURVE SMOOTH",
"202 499 OFFCURVE",
"225 473 OFFCURVE",
"225 436 CURVE SMOOTH",
"225 402 OFFCURVE",
"203 374 OFFCURVE",
"164 374 CURVE SMOOTH",
"128 374 OFFCURVE",
"102 400 OFFCURVE",
"102 436 CURVE SMOOTH"
);
}
);
width = 327;
}
);
unicode = 00B0;
},
{
glyphname = twosuperior;
layers = (
{
layerId = "fe8db221-af1a-4d91-ba78-10cb572f3b89";
name = Regular;
paths = (
{
closed = 1;
nodes = (
"114 433 LINE",
"114 453 OFFCURVE",
"120 469 OFFCURVE",
"131 481 CURVE SMOOTH",
"142 493 OFFCURVE",
"157 499 OFFCURVE",
"178 499 CURVE SMOOTH",
"199 499 OFFCURVE",
"214 494 OFFCURVE",
"225 484 CURVE",
"236 475 OFFCURVE",
"242 462 OFFCURVE",
"242 446 CURVE SMOOTH",
"242 436 OFFCURVE",
"240 427 OFFCURVE",
"235 419 CURVE SMOOTH",
"230 411 OFFCURVE",
"224 404 OFFCURVE",
"217 397 CURVE SMOOTH",
"202 384 OFFCURVE",
"185 373 OFFCURVE",
"164 362 CURVE SMOOTH",
"143 351 OFFCURVE",
"124 339 OFFCURVE",
"106 326 CURVE SMOOTH",
"91 315 OFFCURVE",
"78 301 OFFCURVE",
"68 286 CURVE SMOOTH",
"58 271 OFFCURVE",
"53 253 OFFCURVE",
"53 232 CURVE",
"52 215 LINE",
"307 215 LINE",
"307 268 LINE",
"132 268 LINE",
"136 273 OFFCURVE",
"140 278 OFFCURVE",
"145 282 CURVE SMOOTH",
"160 295 OFFCURVE",
"177 306 OFFCURVE",
"198 316 CURVE SMOOTH",
"219 327 OFFCURVE",
"238 339 OFFCURVE",
"257 352 CURVE",
"272 363 OFFCURVE",
"284 376 OFFCURVE",
"295 391 CURVE SMOOTH",
"305 406 OFFCURVE",
"310 424 OFFCURVE",
"310 446 CURVE SMOOTH",
"310 484 OFFCURVE",
"296 511 OFFCURVE",
"267 526 CURVE SMOOTH",
"238 542 OFFCURVE",
"209 550 OFFCURVE",
"178 550 CURVE SMOOTH",
"149 550 OFFCURVE",
"119 541 OFFCURVE",
"90 523 CURVE SMOOTH",
"61 504 OFFCURVE",
"46 474 OFFCURVE",
"46 433 CURVE"
);
}
);
width = 356;
}
);
unicode = 00B2;
},
{
glyphname = threesuperior;
layers = (
{
layerId = "fe8db221-af1a-4d91-ba78-10cb572f3b89";
name = Regular;
paths = (
{
closed = 1;
nodes = (
"153 258 OFFCURVE",
"138 263 OFFCURVE",
"127 273 CURVE SMOOTH",
"116 284 OFFCURVE",
"110 299 OFFCURVE",
"110 318 CURVE",
"41 318 LINE",
"41 278 OFFCURVE",
"55 250 OFFCURVE",
"83 233 CURVE SMOOTH",
"111 216 OFFCURVE",
"141 207 OFFCURVE",
"174 207 CURVE SMOOTH",
"205 207 OFFCURVE",
"235 215 OFFCURVE",
"263 231 CURVE SMOOTH",
"292 247 OFFCURVE",
"306 272 OFFCURVE",
"306 306 CURVE SMOOTH",
"306 330 OFFCURVE",
"297 349 OFFCURVE",
"279 363 CURVE SMOOTH",
"269 371 OFFCURVE",
"258 378 OFFCURVE",
"247 383 CURVE",
"256 388 OFFCURVE",
"266 394 OFFCURVE",
"274 400 CURVE SMOOTH",
"291 413 OFFCURVE",
"300 431 OFFCURVE",
"300 456 CURVE SMOOTH",
"300 489 OFFCURVE",
"287 513 OFFCURVE",
"260 528 CURVE SMOOTH",
"233 543 OFFCURVE",
"205 550 OFFCURVE",
"174 550 CURVE SMOOTH",
"143 550 OFFCURVE",
"113 542 OFFCURVE",
"85 525 CURVE SMOOTH",
"57 508 OFFCURVE",
"43 481 OFFCURVE",
"43 444 CURVE",
"111 444 LINE",
"111 461 OFFCURVE",
"116 474 OFFCURVE",
"127 484 CURVE SMOOTH",
"138 494 OFFCURVE",
"153 499 OFFCURVE",
"174 499 CURVE SMOOTH",
"195 499 OFFCURVE",
"209 495 OFFCURVE",
"218 486 CURVE",
"226 477 OFFCURVE",
"230 466 OFFCURVE",
"230 453 CURVE SMOOTH",
"230 440 OFFCURVE",
"225 429 OFFCURVE",
"215 421 CURVE",
"204 414 OFFCURVE",
"190 410 OFFCURVE",
"171 410 CURVE SMOOTH",
"140 410 LINE",
"140 358 LINE",
"168 358 LINE SMOOTH",
"187 358 OFFCURVE",
"203 354 OFFCURVE",
"217 346 CURVE SMOOTH",
"231 338 OFFCURVE",
"238 325 OFFCURVE",
"238 307 CURVE SMOOTH",
"238 293 OFFCURVE",
"232 281 OFFCURVE",
"221 272 CURVE SMOOTH",
"210 263 OFFCURVE",
"195 258 OFFCURVE",
"174 258 CURVE SMOOTH"
);
}
);
width = 347;
}
);
unicode = 00B3;
},
{
glyphname = paragraph;
layers = (
{
layerId = "fe8db221-af1a-4d91-ba78-10cb572f3b89";
name = Regular;
paths = (
{
closed = 1;
nodes = (
"323 -164 LINE",
"323 476 LINE",
"430 476 LINE",
"430 -164 LINE",
"530 -164 LINE",
"530 553 LINE",
"261 553 LINE SMOOTH",
"133 553 OFFCURVE",
"36 499 OFFCURVE",
"36 380 CURVE",
"36 379 LINE",
"36 273 OFFCURVE",
"112 216 OFFCURVE",
"223 207 CURVE",
"223 -164 LINE"
);
}
);
width = 601;
}
);
unicode = 00B6;
},
{
glyphname = periodcentered;
layers = (
{
layerId = "fe8db221-af1a-4d91-ba78-10cb572f3b89";
name = Regular;
paths = (
{
closed = 1;
nodes = (
"144 197 OFFCURVE",
"160 203 OFFCURVE",
"172 215 CURVE SMOOTH",
"183 227 OFFCURVE",
"189 242 OFFCURVE",
"189 261 CURVE SMOOTH",
"189 280 OFFCURVE",
"183 295 OFFCURVE",
"172 307 CURVE SMOOTH",
"160 319 OFFCURVE",
"144 325 OFFCURVE",
"123 325 CURVE SMOOTH",
"102 325 OFFCURVE",
"86 319 OFFCURVE",
"74 307 CURVE SMOOTH",
"62 295 OFFCURVE",
"56 280 OFFCURVE",
"56 261 CURVE SMOOTH",
"56 242 OFFCURVE",
"62 227 OFFCURVE",
"74 215 CURVE SMOOTH",
"86 203 OFFCURVE",
"102 197 OFFCURVE",
"123 197 CURVE SMOOTH"
);
}
);
width = 246;
}
);
unicode = 00B7;
},
{
glyphname = onesuperior;
layers = (
{
layerId = "fe8db221-af1a-4d91-ba78-10cb572f3b89";
name = Regular;
paths = (
{
closed = 1;
nodes = (
"28 490 LINE",
"28 433 LINE",
"52 443 LINE SMOOTH",
"68 450 OFFCURVE",
"93 464 OFFCURVE",
"128 486 CURVE",
"128 215 LINE",
"194 215 LINE",
"194 543 LINE",
"128 543 LINE",
"93 520 OFFCURVE",
"68 506 OFFCURVE",
"52 500 CURVE"
);
}
);
width = 260;
}
);
unicode = 00B9;
},
{
glyphname = ordmasculine;
layers = (
{
layerId = "fe8db221-af1a-4d91-ba78-10cb572f3b89";
name = Regular;
paths = (
{
closed = 1;
nodes = (
"316 323 OFFCURVE",
"281 272 OFFCURVE",
"217 272 CURVE SMOOTH",
"158 272 OFFCURVE",
"117 315 OFFCURVE",
"117 382 CURVE SMOOTH",
"117 442 OFFCURVE",
"151 493 OFFCURVE",
"217 493 CURVE SMOOTH",
"279 493 OFFCURVE",
"316 446 OFFCURVE",
"316 382 CURVE SMOOTH"
);
},
{
closed = 1;
nodes = (
"45 283 OFFCURVE",
"110 214 OFFCURVE",
"217 214 CURVE SMOOTH",
"322 214 OFFCURVE",
"389 281 OFFCURVE",
"389 382 CURVE SMOOTH",
"389 485 OFFCURVE",
"319 551 OFFCURVE",
"217 551 CURVE SMOOTH",
"112 551 OFFCURVE",
"45 484 OFFCURVE",
"45 382 CURVE SMOOTH"
);
}
);
width = 432;
}
);
unicode = 00BA;
},
{
glyphname = guillemotright;
layers = (
{
layerId = "fe8db221-af1a-4d91-ba78-10cb572f3b89";
name = Regular;
paths = (
{
closed = 1;
nodes = (
"246 230 LINE",
"118 435 LINE",
"46 435 LINE",
"95 333 OFFCURVE",
"127 265 OFFCURVE",
"143 230 CURVE",
"46 26 LINE",
"118 26 LINE"
);
},
{
closed = 1;
nodes = (
"422 230 LINE",
"294 435 LINE",
"223 435 LINE",
"272 333 OFFCURVE",
"304 265 OFFCURVE",
"320 230 CURVE",
"223 26 LINE",
"294 26 LINE"
);
}
);
width = 463;
}
);
unicode = 00BB;
},
{
glyphname = questiondown;
layers = (
{
layerId = "fe8db221-af1a-4d91-ba78-10cb572f3b89";
name = Regular;
paths = (
{
closed = 1;
nodes = (
"228 461 OFFCURVE",
"212 455 OFFCURVE",
"200 443 CURVE SMOOTH",
"188 431 OFFCURVE",
"182 416 OFFCURVE",
"182 397 CURVE SMOOTH",
"182 378 OFFCURVE",
"188 363 OFFCURVE",
"200 351 CURVE SMOOTH",
"212 339 OFFCURVE",
"228 333 OFFCURVE",
"248 333 CURVE SMOOTH",
"269 333 OFFCURVE",
"285 339 OFFCURVE",
"297 351 CURVE SMOOTH",
"309 363 OFFCURVE",
"315 378 OFFCURVE",
"315 397 CURVE SMOOTH",
"315 416 OFFCURVE",
"309 431 OFFCURVE",
"297 443 CURVE SMOOTH",
"285 455 OFFCURVE",
"269 461 OFFCURVE",
"248 461 CURVE SMOOTH"
);
},
{
closed = 1;
nodes = (
"353 67 LINE",
"353 40 OFFCURVE",
"344 17 OFFCURVE",
"325 -1 CURVE SMOOTH",
"306 -19 OFFCURVE",
"280 -28 OFFCURVE",
"248 -28 CURVE SMOOTH",
"213 -28 OFFCURVE",
"187 -20 OFFCURVE",
"169 -5 CURVE SMOOTH",
"150 11 OFFCURVE",
"141 32 OFFCURVE",
"141 59 CURVE SMOOTH",
"141 69 OFFCURVE",
"143 78 OFFCURVE",
"147 86 CURVE",
"150 93 OFFCURVE",
"155 100 OFFCURVE",
"162 106 CURVE SMOOTH",
"174 117 OFFCURVE",
"189 128 OFFCURVE",
"207 137 CURVE SMOOTH",
"224 146 OFFCURVE",
"241 157 OFFCURVE",
"257 171 CURVE SMOOTH",
"270 182 OFFCURVE",
"280 196 OFFCURVE",
"289 213 CURVE SMOOTH",
"298 229 OFFCURVE",
"302 250 OFFCURVE",
"302 276 CURVE",
"195 276 LINE",
"195 259 OFFCURVE",
"190 244 OFFCURVE",
"181 232 CURVE SMOOTH",
"172 221 OFFCURVE",
"162 210 OFFCURVE",
"149 201 CURVE SMOOTH",
"134 190 OFFCURVE",
"117 180 OFFCURVE",
"99 169 CURVE SMOOTH",
"81 158 OFFCURVE",
"66 144 OFFCURVE",
"55 127 CURVE",
"48 118 OFFCURVE",
"43 107 OFFCURVE",
"39 95 CURVE SMOOTH",
"35 83 OFFCURVE",
"33 69 OFFCURVE",
"33 54 CURVE SMOOTH",
"33 14 OFFCURVE",
"44 -18 OFFCURVE",
"66 -42 CURVE SMOOTH",
"88 -65 OFFCURVE",
"114 -82 OFFCURVE",
"145 -93 CURVE SMOOTH",
"162 -99 OFFCURVE",
"179 -103 OFFCURVE",
"196 -106 CURVE SMOOTH",
"214 -109 OFFCURVE",
"231 -110 OFFCURVE",
"248 -110 CURVE SMOOTH",
"277 -110 OFFCURVE",
"308 -105 OFFCURVE",
"341 -94 CURVE SMOOTH",
"374 -83 OFFCURVE",
"401 -65 OFFCURVE",
"422 -40 CURVE SMOOTH",
"434 -27 OFFCURVE",
"443 -11 OFFCURVE",
"450 7 CURVE",
"457 24 OFFCURVE",
"461 44 OFFCURVE",
"461 67 CURVE"
);
}
);
width = 474;
}
);
unicode = 00BF;
},
{
color = 5;
glyphname = AE;
layers = (
{
layerId = "fe8db221-af1a-4d91-ba78-10cb572f3b89";
name = Regular;
paths = (
{
closed = 1;
nodes = (
"121 0 LINE",
"201 121 LINE",
"443 121 LINE",
"443 0 LINE",
"891 0 LINE",
"891 82 LINE",
"543 82 LINE",
"543 241 LINE",
"855 241 LINE",
"855 323 LINE",
"543 323 LINE",
"543 471 LINE",
"891 471 LINE",
"891 553 LINE",
"377 553 LINE",
"10 0 LINE"
);
},
{
closed = 1;
nodes = (
"253 198 LINE",
"443 484 LINE",
"443 198 LINE"
);
}
);
width = 937;
}
);
unicode = 00C6;
},
{
color = 5;
glyphname = Eacute;
layers = (
{
components = (
{
name = E;
alignment = -1;
},
{
name = acutecomb.case;
transform = "{1, 0, 0, 1, -53, 0}";
alignment = -1;
}
);
layerId = "fe8db221-af1a-4d91-ba78-10cb572f3b89";
name = Regular;
paths = (
{
closed = 1;
nodes = (
"72 0 LINE",
"522 0 LINE",
"522 82 LINE",
"174 82 LINE",
"174 241 LINE",
"486 241 LINE",
"486 323 LINE",
"174 323 LINE",
"174 471 LINE",
"522 471 LINE",
"522 553 LINE",
"72 553 LINE"
);
}
);
width = 600;
}
);
unicode = 00C9;
},
{
color = 5;
glyphname = Ecircumflex;
layers = (
{
components = (
{
name = E;
alignment = -1;
},
{
name = circumflexcomb.case;
transform = "{1, 0, 0, 1, -34, 0}";
alignment = -1;
}
);
layerId = "fe8db221-af1a-4d91-ba78-10cb572f3b89";
name = Regular;
paths = (
{
closed = 1;
nodes = (
"72 0 LINE",
"522 0 LINE",
"522 82 LINE",
"174 82 LINE",
"174 241 LINE",
"486 241 LINE",
"486 323 LINE",
"174 323 LINE",
"174 471 LINE",
"522 471 LINE",
"522 553 LINE",
"72 553 LINE"
);
}
);
width = 600;
}
);
unicode = 00CA;
},
{
glyphname = multiply;
layers = (
{
layerId = "fe8db221-af1a-4d91-ba78-10cb572f3b89";
name = Regular;
paths = (
{
closed = 1;
nodes = (
"189 259 LINE",
"56 126 LINE",
"83 99 OFFCURVE",
"102 81 OFFCURVE",
"111 72 CURVE",
"243 204 LINE",
"375 72 LINE",
"429 126 LINE",
"380 175 OFFCURVE",
"336 219 OFFCURVE",
"297 258 CURVE",
"429 391 LINE",
"402 418 OFFCURVE",
"384 436 OFFCURVE",
"375 445 CURVE",
"243 313 LINE",
"111 445 LINE",
"84 418 OFFCURVE",
"65 400 OFFCURVE",
"56 391 CURVE"
);
}
);
width = 485;
}
);
unicode = 00D7;
},
{
color = 5;
glyphname = Thorn;
layers = (
{
anchors = (
{
name = bottom;
position = "{306, 0}";
},
{
name = top;
position = "{306, 860}";
}
);
layerId = "fe8db221-af1a-4d91-ba78-10cb572f3b89";
name = Regular;
paths = (
{
closed = 1;
nodes = (
"471 313 OFFCURVE",
"431 287 OFFCURVE",
"353 287 CURVE SMOOTH",
"174 287 LINE",
"174 471 LINE",
"353 471 LINE SMOOTH",
"429 471 OFFCURVE",
"471 447 OFFCURVE",
"471 379 CURVE SMOOTH"
);
},
{
closed = 1;
nodes = (
"353 205 LINE SMOOTH",
"483 205 OFFCURVE",
"577 259 OFFCURVE",
"579 379 CURVE",
"579 380 LINE",
"579 496 OFFCURVE",
"487 553 OFFCURVE",
"353 553 CURVE SMOOTH",
"174 553 LINE",
"174 758 LINE",
"72 758 LINE",
"72 0 LINE",
"174 0 LINE",
"174 205 LINE"
);
}
);
width = 612;
}
);
unicode = 00DE;
},
{
color = 5;
glyphname = germandbls;
layers = (
{
layerId = "fe8db221-af1a-4d91-ba78-10cb572f3b89";
name = Regular;
paths = (
{
closed = 1;
nodes = (
"367 379 OFFCURVE",
"389 382 OFFCURVE",
"415 421 CURVE SMOOTH",
"427 439 OFFCURVE",
"434 467 OFFCURVE",
"434 490 CURVE SMOOTH",
"434 578 OFFCURVE",
"354 630 OFFCURVE",
"264 630 CURVE SMOOTH",
"147 630 OFFCURVE",
"72 563 OFFCURVE",
"72 438 CURVE SMOOTH",
"72 0 LINE",
"172 0 LINE",
"172 445 LINE SMOOTH",
"172 508 OFFCURVE",
"195 551 OFFCURVE",
"262 551 CURVE SMOOTH",
"302 551 OFFCURVE",
"342 529 OFFCURVE",
"342 486 CURVE SMOOTH",
"342 463 OFFCURVE",
"336 447 OFFCURVE",
"324 436 CURVE SMOOTH",
"292 406 OFFCURVE",
"271 377 OFFCURVE",
"271 330 CURVE SMOOTH",
"271 291 OFFCURVE",
"284 264 OFFCURVE",
"309 247 CURVE SMOOTH",
"405 185 OFFCURVE",
"424 177 OFFCURVE",
"424 135 CURVE SMOOTH",
"424 96 OFFCURVE",
"394 74 OFFCURVE",
"353 74 CURVE SMOOTH",
"307 74 OFFCURVE",
"277 83 OFFCURVE",
"233 105 CURVE",
"233 26 LINE",
"265 5 OFFCURVE",
"315 -5 OFFCURVE",
"359 -5 CURVE SMOOTH",
"451 -5 OFFCURVE",
"522 36 OFFCURVE",
"522 131 CURVE SMOOTH",
"522 207 OFFCURVE",
"491 230 OFFCURVE",
"411 282 CURVE SMOOTH",
"384 299 OFFCURVE",
"367 315 OFFCURVE",
"367 340 CURVE SMOOTH"
);
}
);
width = 558;
}
);
unicode = 00DF;
},
{
color = 5;
glyphname = ae;
layers = (
{
layerId = "fe8db221-af1a-4d91-ba78-10cb572f3b89";
name = Regular;
paths = (
{
closed = 1;
nodes = (
"166 315 LINE",
"166 362 OFFCURVE",
"220 381 OFFCURVE",
"274 381 CURVE SMOOTH",
"343 381 OFFCURVE",
"384 357 OFFCURVE",
"384 294 CURVE SMOOTH",
"384 266 LINE",
"261 266 LINE SMOOTH",
"140 266 OFFCURVE",
"46 235 OFFCURVE",
"46 133 CURVE SMOOTH",
"46 39 OFFCURVE",
"118 -10 OFFCURVE",
"225 -10 CURVE SMOOTH",
"309 -10 OFFCURVE",
"387 13 OFFCURVE",
"424 76 CURVE",
"467 19 OFFCURVE",
"531 -10 OFFCURVE",
"612 -10 CURVE SMOOTH",
"714 -10 OFFCURVE",
"796 39 OFFCURVE",
"832 131 CURVE",
"719 131 LINE",
"694 92 OFFCURVE",
"659 72 OFFCURVE",
"612 72 CURVE SMOOTH",
"535 72 OFFCURVE",
"485 122 OFFCURVE",
"476 200 CURVE",
"839 200 LINE",
"840 206 OFFCURVE",
"840 211 OFFCURVE",
"840 228 CURVE SMOOTH",
"840 367 OFFCURVE",
"746 466 OFFCURVE",
"607 466 CURVE SMOOTH",
"542 466 OFFCURVE",
"483 445 OFFCURVE",
"438 402 CURVE",
"405 448 OFFCURVE",
"341 463 OFFCURVE",
"274 463 CURVE SMOOTH",
"162 463 OFFCURVE",
"64 412 OFFCURVE",
"64 315 CURVE"
);
},
{
closed = 1;
nodes = (
"384 199 LINE",
"384 108 OFFCURVE",
"338 61 OFFCURVE",
"251 61 CURVE SMOOTH",
"194 61 OFFCURVE",
"148 80 OFFCURVE",
"148 128 CURVE SMOOTH",
"148 183 OFFCURVE",
"198 199 OFFCURVE",
"261 200 CURVE"
);
},
{
closed = 1;
nodes = (
"477 266 LINE",
"488 335 OFFCURVE",
"531 384 OFFCURVE",
"607 384 CURVE SMOOTH",
"679 384 OFFCURVE",
"724 336 OFFCURVE",
"735 266 CURVE"
);
}
);
width = 881;
}
);
unicode = 00E6;
},
{
color = 5;
glyphname = edieresis;
layers = (
{
components = (
{
name = e;
alignment = -1;
},
{
name = dieresiscomb;
transform = "{1, 0, 0, 1, 49, 0}";
alignment = -1;
}
);
layerId = "fe8db221-af1a-4d91-ba78-10cb572f3b89";
name = Regular;
paths = (
{
closed = 1;
nodes = (
"41 159 OFFCURVE",
"63 102 OFFCURVE",
"106 57 CURVE SMOOTH",
"149 12 OFFCURVE",
"207 -10 OFFCURVE",
"282 -10 CURVE SMOOTH",
"336 -10 OFFCURVE",
"382 3 OFFCURVE",
"420 28 CURVE SMOOTH",
"458 54 OFFCURVE",
"485 88 OFFCURVE",
"502 131 CURVE",
"389 131 LINE",
"378 113 OFFCURVE",
"363 99 OFFCURVE",
"346 88 CURVE SMOOTH",
"329 77 OFFCURVE",
"307 72 OFFCURVE",
"282 72 CURVE SMOOTH",
"239 72 OFFCURVE",
"206 86 OFFCURVE",
"181 114 CURVE SMOOTH",
"161 137 OFFCURVE",
"149 165 OFFCURVE",
"145 200 CURVE",
"509 200 LINE",
"509 205 OFFCURVE",
"509 209 OFFCURVE",
"510 214 CURVE",
"510 228 LINE SMOOTH",
"510 297 OFFCURVE",
"488 354 OFFCURVE",
"445 399 CURVE SMOOTH",
"402 444 OFFCURVE",
"345 466 OFFCURVE",
"276 466 CURVE SMOOTH",
"205 466 OFFCURVE",
"148 444 OFFCURVE",
"105 399 CURVE SMOOTH",
"62 354 OFFCURVE",
"41 297 OFFCURVE",
"41 228 CURVE SMOOTH"
);
},
{
closed = 1;
nodes = (
"146 266 LINE",
"151 296 OFFCURVE",
"161 321 OFFCURVE",
"178 341 CURVE SMOOTH",
"201 370 OFFCURVE",
"234 384 OFFCURVE",
"276 384 CURVE SMOOTH",
"318 384 OFFCURVE",
"350 370 OFFCURVE",
"373 341 CURVE SMOOTH",
"390 321 OFFCURVE",
"400 296 OFFCURVE",
"405 266 CURVE"
);
}
);
width = 551;
}
);
unicode = 00EB;
},
{
glyphname = divide;
layers = (
{
layerId = "fe8db221-af1a-4d91-ba78-10cb572f3b89";
name = Regular;
paths = (
{
closed = 1;
nodes = (
"297 353 OFFCURVE",
"313 359 OFFCURVE",
"325 371 CURVE SMOOTH",
"337 383 OFFCURVE",
"343 398 OFFCURVE",
"343 417 CURVE SMOOTH",
"343 436 OFFCURVE",
"337 451 OFFCURVE",
"325 463 CURVE SMOOTH",
"313 475 OFFCURVE",
"297 481 OFFCURVE",
"276 481 CURVE SMOOTH",
"256 481 OFFCURVE",
"240 475 OFFCURVE",
"228 463 CURVE SMOOTH",
"216 451 OFFCURVE",
"210 436 OFFCURVE",
"210 417 CURVE SMOOTH",
"210 398 OFFCURVE",
"216 383 OFFCURVE",
"228 371 CURVE SMOOTH",
"240 359 OFFCURVE",
"256 353 OFFCURVE",
"276 353 CURVE SMOOTH"
);
},
{
closed = 1;
nodes = (
"297 36 OFFCURVE",
"313 42 OFFCURVE",
"325 54 CURVE SMOOTH",
"337 66 OFFCURVE",
"343 81 OFFCURVE",
"343 100 CURVE SMOOTH",
"343 119 OFFCURVE",
"337 134 OFFCURVE",
"325 146 CURVE SMOOTH",
"313 158 OFFCURVE",
"297 164 OFFCURVE",
"276 164 CURVE SMOOTH",
"256 164 OFFCURVE",
"240 158 OFFCURVE",
"228 146 CURVE SMOOTH",
"216 134 OFFCURVE",
"210 119 OFFCURVE",
"210 100 CURVE SMOOTH",
"210 81 OFFCURVE",
"216 66 OFFCURVE",
"228 54 CURVE SMOOTH",
"240 42 OFFCURVE",
"256 36 OFFCURVE",
"276 36 CURVE SMOOTH"
);
},
{
closed = 1;
nodes = (
"502 220 LINE",
"502 297 LINE",
"51 297 LINE",
"51 220 LINE"
);
}
);
width = 553;
}
);
unicode = 00F7;
},
{
color = 5;
glyphname = oslash;
layers = (
{
anchors = (
{
name = bottom;
position = "{284, 0}";
},
{
name = center;
position = "{284, 228}";
},
{
name = ogonek;
position = "{511, 10}";
},
{
name = top;
position = "{284, 456}";
},
{
name = topright;
position = "{548, 456}";
}
);
layerId = "fe8db221-af1a-4d91-ba78-10cb572f3b89";
name = Regular;
paths = (
{
closed = 1;
nodes = (
"425 141 OFFCURVE",
"375 72 OFFCURVE",
"284 72 CURVE SMOOTH",
"197 72 OFFCURVE",
"143 138 OFFCURVE",
"143 228 CURVE SMOOTH",
"143 317 OFFCURVE",
"198 384 OFFCURVE",
"284 384 CURVE SMOOTH",
"371 384 OFFCURVE",
"425 317 OFFCURVE",
"425 228 CURVE SMOOTH"
);
},
{
closed = 1;
nodes = (
"41 159 OFFCURVE",
"63 102 OFFCURVE",
"106 57 CURVE SMOOTH",
"149 12 OFFCURVE",
"209 -10 OFFCURVE",
"284 -10 CURVE",
"285 -10 LINE",
"360 -10 OFFCURVE",
"419 12 OFFCURVE",
"462 57 CURVE SMOOTH",
"505 102 OFFCURVE",
"527 159 OFFCURVE",
"527 228 CURVE SMOOTH",
"527 297 OFFCURVE",
"505 354 OFFCURVE",
"462 399 CURVE SMOOTH",
"419 444 OFFCURVE",
"359 466 OFFCURVE",
"284 466 CURVE SMOOTH",
"209 466 OFFCURVE",
"149 444 OFFCURVE",
"106 399 CURVE SMOOTH",
"63 354 OFFCURVE",
"41 297 OFFCURVE",
"41 228 CURVE SMOOTH"
);
},
{
closed = 1;
nodes = (
"491 437 LINE",
"451 470 LINE",
"79 18 LINE",
"119 -14 LINE"
);
}
);
width = 568;
}
);
unicode = 00F8;
},
{
color = 5;
glyphname = thorn;
layers = (
{
anchors = (
{
name = bottom;
position = "{291, 0}";
},
{
name = top;
position = "{291, 456}";
}
);
layerId = "fe8db221-af1a-4d91-ba78-10cb572f3b89";
name = Regular;
paths = (
{
closed = 1;
nodes = (
"540 362 OFFCURVE",
"464 466 OFFCURVE",
"325 466 CURVE SMOOTH",
"244 466 OFFCURVE",
"205 444 OFFCURVE",
"165 383 CURVE",
"161 625 LINE",
"72 625 LINE",
"72 -164 LINE",
"172 -164 LINE",
"172 62 LINE",
"205 12 OFFCURVE",
"253 -10 OFFCURVE",
"325 -10 CURVE SMOOTH",
"462 -10 OFFCURVE",
"540 90 OFFCURVE",
"540 228 CURVE SMOOTH"
);
},
{
closed = 1;
nodes = (
"172 315 OFFCURVE",
"218 387 OFFCURVE",
"307 387 CURVE SMOOTH",
"393 387 OFFCURVE",
"440 316 OFFCURVE",
"440 228 CURVE SMOOTH",
"440 137 OFFCURVE",
"394 69 OFFCURVE",
"307 69 CURVE SMOOTH",
"221 69 OFFCURVE",
"172 138 OFFCURVE",
"172 228 CURVE SMOOTH"
);
}
);
width = 581;
}
);
unicode = 00FE;
},
{
color = 5;
glyphname = idotless;
layers = (
{
anchors = (
{
name = bottom;
position = "{127, 0}";
},
{
name = ogonek;
position = "{182, 10}";
},
{
name = top;
position = "{127, 456}";
}
);
layerId = "fe8db221-af1a-4d91-ba78-10cb572f3b89";
name = Regular;
paths = (
{
closed = 1;
nodes = (
"82 456 LINE",
"82 0 LINE",
"182 0 LINE",
"182 456 LINE"
);
}
);
width = 254;
}
);
unicode = 0131;
},
{
color = 5;
glyphname = Eng;
layers = (
{
anchors = (
{
name = bottom;
position = "{348, 0}";
},
{
name = top;
position = "{348, 860}";
}
);
layerId = "fe8db221-af1a-4d91-ba78-10cb572f3b89";
name = Regular;
paths = (
{
closed = 1;
nodes = (
"522 123 LINE",
"189 553 LINE",
"72 553 LINE",
"72 0 LINE",
"174 0 LINE",
"174 430 LINE",
"522 -19 LINE",
"520 -59 OFFCURVE",
"514 -90 OFFCURVE",
"471 -90 CURVE SMOOTH",
"458 -90 OFFCURVE",
"426 -87 OFFCURVE",
"414 -84 CURVE",
"414 -164 LINE",
"428 -168 OFFCURVE",
"465 -172 OFFCURVE",
"482 -172 CURVE SMOOTH",
"588 -172 OFFCURVE",
"625 -108 OFFCURVE",
"625 0 CURVE SMOOTH",
"625 553 LINE",
"522 553 LINE"
);
}
);
width = 696;
}
);
unicode = 014A;
},
{
color = 5;
glyphname = eng;
layers = (
{
anchors = (
{
name = bottom;
position = "{290, 0}";
},
{
name = top;
position = "{290, 456}";
}
);
layerId = "fe8db221-af1a-4d91-ba78-10cb572f3b89";
name = Regular;
paths = (
{
closed = 1;
nodes = (
"512 264 LINE SMOOTH",
"512 392 OFFCURVE",
"448 463 OFFCURVE",
"325 463 CURVE SMOOTH",
"262 463 OFFCURVE",
"198 440 OFFCURVE",
"165 384 CURVE",
"161 456 LINE",
"72 456 LINE",
"72 0 LINE",
"172 0 LINE",
"172 264 LINE SMOOTH",
"172 339 OFFCURVE",
"227 381 OFFCURVE",
"300 381 CURVE SMOOTH",
"367 381 OFFCURVE",
"412 340 OFFCURVE",
"412 264 CURVE SMOOTH",
"412 0 LINE SMOOTH",
"412 -54 OFFCURVE",
"403 -90 OFFCURVE",
"358 -90 CURVE SMOOTH",
"345 -90 OFFCURVE",
"313 -87 OFFCURVE",
"301 -84 CURVE",
"301 -164 LINE",
"315 -168 OFFCURVE",
"352 -172 OFFCURVE",
"369 -172 CURVE SMOOTH",
"474 -172 OFFCURVE",
"514 -108 OFFCURVE",
"512 0 CURVE"
);
}
);
width = 580;
}
);
unicode = 014B;
},
{
color = 5;
glyphname = OE;
layers = (
{
layerId = "fe8db221-af1a-4d91-ba78-10cb572f3b89";
name = Regular;
paths = (
{
closed = 1;
nodes = (
"406 -15 OFFCURVE",
"474 13 OFFCURVE",
"520 69 CURVE SMOOTH",
"522 71 LINE",
"522 0 LINE",
"970 0 LINE",
"970 82 LINE",
"622 82 LINE",
"622 241 LINE",
"934 241 LINE",
"934 323 LINE",
"622 323 LINE",
"622 471 LINE",
"970 471 LINE",
"970 553 LINE",
"522 553 LINE",
"522 482 LINE",
"520 484 LINE SMOOTH",
"474 540 OFFCURVE",
"406 568 OFFCURVE",
"317 568 CURVE SMOOTH",
"156 568 OFFCURVE",
"41 439 OFFCURVE",
"41 276 CURVE SMOOTH",
"41 114 OFFCURVE",
"162 -15 OFFCURVE",
"317 -15 CURVE SMOOTH"
);
},
{
closed = 1;
nodes = (
"522 156 OFFCURVE",
"448 69 OFFCURVE",
"335 69 CURVE SMOOTH",
"225 69 OFFCURVE",
"148 155 OFFCURVE",
"148 276 CURVE SMOOTH",
"148 396 OFFCURVE",
"223 484 OFFCURVE",
"335 484 CURVE SMOOTH",
"447 484 OFFCURVE",
"522 399 OFFCURVE",
"522 276 CURVE SMOOTH"
);
}
);
width = 1021;
}
);
unicode = 0152;
},
{
color = 5;
glyphname = oe;
layers = (
{
layerId = "fe8db221-af1a-4d91-ba78-10cb572f3b89";
name = Regular;
paths = (
{
closed = 1;
nodes = (
"425 141 OFFCURVE",
"375 72 OFFCURVE",
"284 72 CURVE SMOOTH",
"197 72 OFFCURVE",
"143 138 OFFCURVE",
"143 228 CURVE SMOOTH",
"143 317 OFFCURVE",
"198 384 OFFCURVE",
"284 384 CURVE SMOOTH",
"371 384 OFFCURVE",
"425 317 OFFCURVE",
"425 228 CURVE SMOOTH"
);
},
{
closed = 1;
nodes = (
"41 87 OFFCURVE",
"134 -10 OFFCURVE",
"284 -10 CURVE SMOOTH",
"358 -10 OFFCURVE",
"419 17 OFFCURVE",
"461 75 CURVE",
"507 16 OFFCURVE",
"575 -10 OFFCURVE",
"653 -10 CURVE SMOOTH",
"755 -10 OFFCURVE",
"837 39 OFFCURVE",
"873 131 CURVE",
"760 131 LINE",
"735 92 OFFCURVE",
"700 72 OFFCURVE",
"653 72 CURVE SMOOTH",
"575 72 OFFCURVE",
"526 122 OFFCURVE",
"517 200 CURVE",
"880 200 LINE",
"881 206 OFFCURVE",
"881 211 OFFCURVE",
"881 228 CURVE SMOOTH",
"881 367 OFFCURVE",
"787 466 OFFCURVE",
"648 466 CURVE SMOOTH",
"573 466 OFFCURVE",
"506 438 OFFCURVE",
"461 381 CURVE",
"419 440 OFFCURVE",
"358 466 OFFCURVE",
"284 466 CURVE SMOOTH",
"137 466 OFFCURVE",
"41 371 OFFCURVE",
"41 228 CURVE SMOOTH"
);
},
{
closed = 1;
nodes = (
"518 266 LINE",
"529 336 OFFCURVE",
"572 384 OFFCURVE",
"648 384 CURVE SMOOTH",
"720 384 OFFCURVE",
"765 336 OFFCURVE",
"776 266 CURVE"
);
}
);
width = 923;
}
);
unicode = 0153;
},
{
color = 5;
glyphname = Ydieresis;
layers = (
{
components = (
{
name = Y;
alignment = -1;
},
{
name = dieresiscomb.case;
transform = "{1, 0, 0, 1, -30, 0}";
alignment = -1;
}
);
layerId = "fe8db221-af1a-4d91-ba78-10cb572f3b89";
name = Regular;
paths = (
{
closed = 1;
nodes = (
"244 0 LINE",
"346 0 LINE",
"346 210 LINE",
"574 553 LINE",
"456 553 LINE",
"296 297 LINE",
"139 553 LINE",
"15 553 LINE",
"244 208 LINE"
);
}
);
width = 590;
}
);
unicode = 0178;
},
{
color = 5;
glyphname = gravecomb;
layers = (
{
anchors = (
{
name = _top;
position = "{289, 456}";
},
{
name = top;
position = "{233, 671}";
}
);
layerId = "fe8db221-af1a-4d91-ba78-10cb572f3b89";
name = Regular;
paths = (
{
closed = 1;
nodes = (
"343 517 LINE",
"251 671 LINE",
"123 671 LINE",
"251 517 LINE"
);
}
);
width = 555;
}
);
unicode = 0300;
},
{
color = 5;
glyphname = acutecomb;
layers = (
{
anchors = (
{
name = _top;
position = "{280, 456}";
},
{
name = top;
position = "{315, 671}";
}
);
layerId = "fe8db221-af1a-4d91-ba78-10cb572f3b89";
name = Regular;
paths = (
{
closed = 1;
nodes = (
"297 517 LINE",
"425 671 LINE",
"297 671 LINE",
"205 517 LINE"
);
}
);
width = 555;
}
);
unicode = 0301;
},
{
color = 5;
glyphname = circumflexcomb;
layers = (
{
anchors = (
{
name = _top;
position = "{285, 456}";
},
{
name = top;
position = "{279, 671}";
}
);
layerId = "fe8db221-af1a-4d91-ba78-10cb572f3b89";
name = Regular;
paths = (
{
closed = 1;
nodes = (
"358 517 LINE",
"435 517 LINE",
"435 517 OFFCURVE",
"333 671 OFFCURVE",
"333 671 CURVE",
"225 671 LINE",
"225 671 OFFCURVE",
"123 517 OFFCURVE",
"123 517 CURVE",
"200 517 LINE",
"279 608 LINE"
);
}
);
width = 555;
}
);
unicode = 0302;
},
{
color = 5;
glyphname = tildecomb;
layers = (
{
anchors = (
{
name = _top;
position = "{277, 456}";
},
{
name = top;
position = "{277, 640}";
}
);
layerId = "fe8db221-af1a-4d91-ba78-10cb572f3b89";
name = Regular;
paths = (
{
closed = 1;
nodes = (
"161 522 LINE",
"161 542 OFFCURVE",
"181 568 OFFCURVE",
"210 568 CURVE SMOOTH",
"259 568 OFFCURVE",
"277 517 OFFCURVE",
"338 517 CURVE SMOOTH",
"397 517 OFFCURVE",
"451 567 OFFCURVE",
"451 635 CURVE",
"392 635 LINE",
"392 615 OFFCURVE",
"372 589 OFFCURVE",
"343 589 CURVE SMOOTH",
"294 589 OFFCURVE",
"276 640 OFFCURVE",
"215 640 CURVE SMOOTH",
"156 640 OFFCURVE",
"102 590 OFFCURVE",
"102 522 CURVE"
);
}
);
width = 555;
}
);
unicode = 0303;
},
{
color = 5;
glyphname = macroncomb;
layers = (
{
anchors = (
{
name = _top;
position = "{303, 456}";
},
{
name = top;
position = "{303, 601}";
}
);
layerId = "fe8db221-af1a-4d91-ba78-10cb572f3b89";
name = Regular;
paths = (
{
closed = 1;
nodes = (
"162 517 LINE",
"442 517 LINE",
"442 594 LINE",
"162 594 LINE"
);
}
);
width = 600;
}
);
unicode = 0304;
},
{
color = 5;
glyphname = brevecomb;
layers = (
{
anchors = (
{
name = _top;
position = "{290, 456}";
},
{
name = top;
position = "{290, 670}";
}
);
layerId = "fe8db221-af1a-4d91-ba78-10cb572f3b89";
name = Regular;
paths = (
{
closed = 1;
nodes = (
"462 670 OFFCURVE",
"389 670 OFFCURVE",
"389 670 CURVE",
"389 611 OFFCURVE",
"354 567 OFFCURVE",
"290 567 CURVE SMOOTH",
"231 567 OFFCURVE",
"190 603 OFFCURVE",
"190 670 CURVE",
"190 670 OFFCURVE",
"118 670 OFFCURVE",
"118 670 CURVE",
"118 571 OFFCURVE",
"183 509 OFFCURVE",
"290 509 CURVE SMOOTH",
"395 509 OFFCURVE",
"462 569 OFFCURVE",
"462 670 CURVE"
);
}
);
width = 600;
}
);
unicode = 0306;
},
{
color = 5;
glyphname = dotaccentcomb;
layers = (
{
anchors = (
{
name = _top;
position = "{121, 456}";
},
{
name = top;
position = "{121, 644}";
}
);
layerId = "fe8db221-af1a-4d91-ba78-10cb572f3b89";
name = Regular;
paths = (
{
closed = 1;
nodes = (
"54 544 OFFCURVE",
"78 516 OFFCURVE",
"120 516 CURVE SMOOTH",
"160 516 OFFCURVE",
"187 541 OFFCURVE",
"187 580 CURVE SMOOTH",
"187 616 OFFCURVE",
"163 644 OFFCURVE",
"120 644 CURVE SMOOTH",
"81 644 OFFCURVE",
"54 618 OFFCURVE",
"54 580 CURVE SMOOTH"
);
}
);
width = 240;
}
);
unicode = 0307;
},
{
color = 5;
glyphname = dieresiscomb;
layers = (
{
anchors = (
{
name = _top;
position = "{227, 456}";
},
{
name = top;
position = "{227, 640}";
}
);
layerId = "fe8db221-af1a-4d91-ba78-10cb572f3b89";
name = Regular;
paths = (
{
closed = 1;
nodes = (
"404 611 OFFCURVE",
"379 640 OFFCURVE",
"340 640 CURVE SMOOTH",
"303 640 OFFCURVE",
"276 613 OFFCURVE",
"276 579 CURVE SMOOTH",
"276 546 OFFCURVE",
"301 517 OFFCURVE",
"340 517 CURVE SMOOTH",
"376 517 OFFCURVE",
"404 543 OFFCURVE",
"404 579 CURVE SMOOTH"
);
},
{
closed = 1;
nodes = (
"178 611 OFFCURVE",
"153 640 OFFCURVE",
"114 640 CURVE SMOOTH",
"77 640 OFFCURVE",
"50 613 OFFCURVE",
"50 579 CURVE SMOOTH",
"50 546 OFFCURVE",
"75 517 OFFCURVE",
"114 517 CURVE SMOOTH",
"151 517 OFFCURVE",
"178 543 OFFCURVE",
"178 579 CURVE SMOOTH"
);
}
);
width = 454;
}
);
unicode = 0308;
},
{
color = 5;
glyphname = ringcomb;
layers = (
{
anchors = (
{
name = _top;
position = "{279, 456}";
},
{
name = top;
position = "{279, 701}";
}
);
layerId = "fe8db221-af1a-4d91-ba78-10cb572f3b89";
name = Regular;
paths = (
{
closed = 1;
nodes = (
"182 554 OFFCURVE",
"225 517 OFFCURVE",
"279 517 CURVE SMOOTH",
"333 517 OFFCURVE",
"376 555 OFFCURVE",
"376 609 CURVE SMOOTH",
"376 664 OFFCURVE",
"334 701 OFFCURVE",
"279 701 CURVE SMOOTH",
"227 701 OFFCURVE",
"182 667 OFFCURVE",
"182 609 CURVE SMOOTH"
);
},
{
closed = 1;
nodes = (
"233 632 OFFCURVE",
"249 653 OFFCURVE",
"279 653 CURVE SMOOTH",
"306 653 OFFCURVE",
"325 635 OFFCURVE",
"325 609 CURVE SMOOTH",
"325 587 OFFCURVE",
"308 566 OFFCURVE",
"279 566 CURVE SMOOTH",
"252 566 OFFCURVE",
"233 584 OFFCURVE",
"233 609 CURVE SMOOTH"
);
}
);
width = 555;
}
);
unicode = 030A;
},
{
color = 5;
glyphname = hungarumlautcomb;
layers = (
{
anchors = (
{
name = _top;
position = "{337, 456}";
},
{
name = top;
position = "{337, 671}";
}
);
layerId = "fe8db221-af1a-4d91-ba78-10cb572f3b89";
name = Regular;
paths = (
{
closed = 1;
nodes = (
"262 517 LINE",
"390 671 LINE",
"262 671 LINE",
"170 517 LINE"
);
},
{
closed = 1;
nodes = (
"457 517 LINE",
"585 671 LINE",
"457 671 LINE",
"365 517 LINE"
);
}
);
width = 600;
}
);
unicode = 030B;
},
{
color = 5;
glyphname = caroncomb;
layers = (
{
anchors = (
{
name = _top;
position = "{249, 456}";
},
{
name = top;
position = "{249, 671}";
}
);
layerId = "fe8db221-af1a-4d91-ba78-10cb572f3b89";
name = Regular;
paths = (
{
closed = 1;
nodes = (
"303 517 LINE",
"354 594 OFFCURVE",
"388 645 OFFCURVE",
"405 671 CURVE",
"329 671 LINE",
"297 635 OFFCURVE",
"271 604 OFFCURVE",
"249 579 CURVE",
"170 671 LINE",
"93 671 LINE",
"138 602 OFFCURVE",
"173 551 OFFCURVE",
"196 517 CURVE"
);
}
);
width = 497;
}
);
unicode = 030C;
},
{
color = 5;
glyphname = commaturnedabovecomb;
layers = (
{
anchors = (
{
name = _top;
position = "{313, 456}";
},
{
name = top;
position = "{313, 688}";
}
);
layerId = "fe8db221-af1a-4d91-ba78-10cb572f3b89";
name = Regular;
paths = (
{
closed = 1;
nodes = (
"319 688 LINE",
"248 517 LINE",
"348 517 LINE",
"378 688 LINE"
);
}
);
width = 600;
}
);
unicode = 0312;
},
{
color = 5;
glyphname = commaaccentcomb;
layers = (
{
anchors = (
{
name = _bottom;
position = "{307, 0}";
},
{
name = bottom;
position = "{307, -216}";
}
);
layerId = "fe8db221-af1a-4d91-ba78-10cb572f3b89";
name = Regular;
paths = (
{
closed = 1;
nodes = (
"301 -216 LINE",
"372 -45 LINE",
"272 -45 LINE",
"242 -216 LINE"
);
}
);
width = 600;
}
);
unicode = 0326;
},
{
color = 5;
glyphname = cedillacomb;
layers = (
{
anchors = (
{
name = _bottom;
position = "{289, 0}";
},
{
name = bottom;
position = "{297, -234}";
}
);
layerId = "fe8db221-af1a-4d91-ba78-10cb572f3b89";
name = Regular;
paths = (
{
closed = 1;
nodes = (
"222 -87 LINE",
"277 -85 OFFCURVE",
"314 -94 OFFCURVE",
"314 -132 CURVE SMOOTH",
"314 -176 OFFCURVE",
"263 -185 OFFCURVE",
"211 -178 CURVE",
"211 -232 LINE",
"224 -233 OFFCURVE",
"236 -234 OFFCURVE",
"247 -234 CURVE SMOOTH",
"324 -234 OFFCURVE",
"383 -194 OFFCURVE",
"383 -132 CURVE SMOOTH",
"383 -76 OFFCURVE",
"354 -47 OFFCURVE",
"304 -40 CURVE",
"317 10 LINE",
"246 10 LINE"
);
}
);
width = 600;
}
);
unicode = 0327;
},
{
color = 5;
glyphname = ogonekcomb;
layers = (
{
anchors = (
{
name = _ogonek;
position = "{431, 10}";
}
);
layerId = "fe8db221-af1a-4d91-ba78-10cb572f3b89";
name = Regular;
paths = (
{
closed = 1;
nodes = (
"346 22 LINE",
"292 12 OFFCURVE",
"268 -16 OFFCURVE",
"268 -70 CURVE SMOOTH",
"268 -133 OFFCURVE",
"325 -173 OFFCURVE",
"403 -173 CURVE SMOOTH",
"414 -173 OFFCURVE",
"426 -172 OFFCURVE",
"439 -171 CURVE",
"438 -95 LINE",
"387 -103 OFFCURVE",
"343 -94 OFFCURVE",
"343 -48 CURVE SMOOTH",
"343 -10 OFFCURVE",
"373 2 OFFCURVE",
"428 0 CURVE",
"406 22 LINE"
);
}
);
width = 600;
}
);
unicode = 0328;
},
{
color = 5;
glyphname = strokeshortcomb;
layers = (
{
anchors = (
{
name = _center;
position = "{294, 286}";
}
);
layerId = "fe8db221-af1a-4d91-ba78-10cb572f3b89";
name = Regular;
paths = (
{
closed = 1;
nodes = (
"169 248 LINE",
"419 248 LINE",
"419 323 LINE",
"169 323 LINE"
);
}
);
width = 600;
}
);
unicode = 0335;
},
{
color = 5;
glyphname = strokelongcomb;
layers = (
{
anchors = (
{
name = _center;
position = "{294, 286}";
}
);
layerId = "fe8db221-af1a-4d91-ba78-10cb572f3b89";
name = Regular;
paths = (
{
closed = 1;
nodes = (
"-6 248 LINE",
"594 248 LINE",
"594 323 LINE",
"-6 323 LINE"
);
}
);
width = 600;
}
);
unicode = 0336;
},
{
color = 5;
glyphname = slashshortcomb;
layers = (
{
anchors = (
{
name = _center;
position = "{284, 228}";
}
);
layerId = "fe8db221-af1a-4d91-ba78-10cb572f3b89";
name = Regular;
paths = (
{
closed = 1;
nodes = (
"422 354 LINE",
"382 387 LINE",
"145 96 LINE",
"185 64 LINE"
);
}
);
width = 600;
}
);
unicode = 0337;
},
{
color = 5;
glyphname = slashlongcomb;
layers = (
{
anchors = (
{
name = _center;
position = "{336, 277}";
}
);
layerId = "fe8db221-af1a-4d91-ba78-10cb572f3b89";
name = Regular;
paths = (
{
closed = 1;
nodes = (
"591 545 LINE",
"546 581 LINE",
"81 9 LINE",
"126 -27 LINE"
);
}
);
width = 600;
}
);
unicode = 0338;
},
{
glyphname = uni2010;
layers = (
{
layerId = "fe8db221-af1a-4d91-ba78-10cb572f3b89";
name = Regular;
paths = (
{
closed = 1;
nodes = (
"51 305 LINE",
"51 223 LINE",
"348 223 LINE",
"348 305 LINE"
);
}
);
width = 400;
}
);
unicode = 2010;
},
{
glyphname = uni2011;
layers = (
{
layerId = "fe8db221-af1a-4d91-ba78-10cb572f3b89";
name = Regular;
paths = (
{
closed = 1;
nodes = (
"51 305 LINE",
"51 223 LINE",
"348 223 LINE",
"348 305 LINE"
);
}
);
width = 400;
}
);
unicode = 2011;
},
{
glyphname = uni2012;
layers = (
{
layerId = "fe8db221-af1a-4d91-ba78-10cb572f3b89";
name = Regular;
paths = (
{
closed = 1;
nodes = (
"502 223 LINE",
"502 300 LINE",
"51 300 LINE",
"51 223 LINE"
);
}
);
width = 553;
}
);
unicode = 2012;
},
{
glyphname = endash;
layers = (
{
layerId = "fe8db221-af1a-4d91-ba78-10cb572f3b89";
name = Regular;
paths = (
{
closed = 1;
nodes = (
"502 223 LINE",
"502 300 LINE",
"51 300 LINE",
"51 223 LINE"
);
}
);
width = 553;
}
);
unicode = 2013;
},
{
glyphname = emdash;
layers = (
{
layerId = "fe8db221-af1a-4d91-ba78-10cb572f3b89";
name = Regular;
paths = (
{
closed = 1;
nodes = (
"922 223 LINE",
"922 300 LINE",
"51 300 LINE",
"51 223 LINE"
);
}
);
width = 973;
}
);
unicode = 2014;
},
{
glyphname = quoteleft;
layers = (
{
layerId = "fe8db221-af1a-4d91-ba78-10cb572f3b89";
name = Regular;
paths = (
{
closed = 1;
nodes = (
"128 581 LINE",
"87 466 OFFCURVE",
"60 389 OFFCURVE",
"46 351 CURVE",
"164 351 LINE",
"205 581 LINE"
);
}
);
width = 251;
}
);
unicode = 2018;
},
{
glyphname = quoteright;
layers = (
{
layerId = "fe8db221-af1a-4d91-ba78-10cb572f3b89";
name = Regular;
paths = (
{
closed = 1;
nodes = (
"133 348 LINE",
"174 463 OFFCURVE",
"202 540 OFFCURVE",
"215 579 CURVE",
"97 579 LINE",
"77 464 OFFCURVE",
"63 387 OFFCURVE",
"56 348 CURVE"
);
}
);
width = 246;
}
);
unicode = 2019;
},
{
glyphname = quotesinglbase;
layers = (
{
layerId = "fe8db221-af1a-4d91-ba78-10cb572f3b89";
name = Regular;
paths = (
{
closed = 1;
nodes = (
"118 -108 LINE",
"200 123 LINE",
"82 123 LINE",
"41 -108 LINE"
);
}
);
width = 246;
}
);
unicode = 201A;
},
{
glyphname = quotedblleft;
layers = (
{
layerId = "fe8db221-af1a-4d91-ba78-10cb572f3b89";
name = Regular;
paths = (
{
closed = 1;
nodes = (
"128 579 LINE",
"46 348 LINE",
"164 348 LINE",
"205 579 LINE"
);
},
{
closed = 1;
nodes = (
"307 579 LINE",
"225 348 LINE",
"343 348 LINE",
"384 579 LINE"
);
}
);
width = 430;
}
);
unicode = 201C;
},
{
glyphname = quotedblright;
layers = (
{
layerId = "fe8db221-af1a-4d91-ba78-10cb572f3b89";
name = Regular;
paths = (
{
closed = 1;
nodes = (
"312 348 LINE",
"353 463 OFFCURVE",
"381 540 OFFCURVE",
"394 579 CURVE",
"276 579 LINE",
"236 348 LINE"
);
},
{
closed = 1;
nodes = (
"133 348 LINE",
"174 463 OFFCURVE",
"202 540 OFFCURVE",
"215 579 CURVE",
"97 579 LINE",
"77 464 OFFCURVE",
"63 387 OFFCURVE",
"56 348 CURVE"
);
}
);
width = 425;
}
);
unicode = 201D;
},
{
glyphname = quotedblbase;
layers = (
{
layerId = "fe8db221-af1a-4d91-ba78-10cb572f3b89";
name = Regular;
paths = (
{
closed = 1;
nodes = (
"302 -108 LINE",
"343 7 OFFCURVE",
"371 84 OFFCURVE",
"384 123 CURVE",
"266 123 LINE",
"246 8 OFFCURVE",
"232 -69 OFFCURVE",
"225 -108 CURVE"
);
},
{
closed = 1;
nodes = (
"123 -108 LINE",
"205 123 LINE",
"87 123 LINE",
"46 -108 LINE"
);
}
);
width = 430;
}
);
unicode = 201E;
},
{
glyphname = dagger;
layers = (
{
layerId = "fe8db221-af1a-4d91-ba78-10cb572f3b89";
name = Regular;
paths = (
{
closed = 1;
nodes = (
"212 0 LINE",
"305 0 LINE",
"305 330 LINE",
"476 330 LINE",
"476 407 LINE",
"305 407 LINE",
"305 553 LINE",
"212 553 LINE",
"212 407 LINE",
"41 407 LINE",
"41 330 LINE",
"212 330 LINE"
);
}
);
width = 517;
}
);
unicode = 2020;
},
{
glyphname = daggerdbl;
layers = (
{
layerId = "fe8db221-af1a-4d91-ba78-10cb572f3b89";
name = Regular;
paths = (
{
closed = 1;
nodes = (
"228 407 LINE",
"56 407 LINE",
"56 330 LINE",
"228 330 LINE",
"228 77 LINE",
"56 77 LINE",
"56 0 LINE",
"228 0 LINE",
"228 -146 LINE",
"320 -146 LINE",
"320 0 LINE",
"492 0 LINE",
"492 77 LINE",
"320 77 LINE",
"320 330 LINE",
"492 330 LINE",
"492 407 LINE",
"320 407 LINE",
"320 553 LINE",
"228 553 LINE"
);
}
);
width = 548;
}
);
unicode = 2021;
},
{
glyphname = bullet;
layers = (
{
layerId = "fe8db221-af1a-4d91-ba78-10cb572f3b89";
name = Regular;
paths = (
{
closed = 1;
nodes = (
"195 154 OFFCURVE",
"220 163 OFFCURVE",
"241 182 CURVE SMOOTH",
"261 201 OFFCURVE",
"271 227 OFFCURVE",
"271 261 CURVE",
"271 262 LINE",
"271 296 OFFCURVE",
"261 322 OFFCURVE",
"241 340 CURVE SMOOTH",
"220 359 OFFCURVE",
"195 369 OFFCURVE",
"164 369 CURVE SMOOTH",
"133 369 OFFCURVE",
"108 359 OFFCURVE",
"87 340 CURVE SMOOTH",
"66 321 OFFCURVE",
"56 295 OFFCURVE",
"56 261 CURVE SMOOTH",
"56 227 OFFCURVE",
"66 201 OFFCURVE",
"87 182 CURVE SMOOTH",
"108 163 OFFCURVE",
"133 154 OFFCURVE",
"164 154 CURVE SMOOTH"
);
}
);
width = 328;
}
);
unicode = 2022;
},
{
glyphname = ellipsis;
layers = (
{
layerId = "fe8db221-af1a-4d91-ba78-10cb572f3b89";
name = Regular;
paths = (
{
closed = 1;
nodes = (
"144 -5 OFFCURVE",
"160 1 OFFCURVE",
"172 13 CURVE SMOOTH",
"183 25 OFFCURVE",
"189 40 OFFCURVE",
"189 59 CURVE SMOOTH",
"189 78 OFFCURVE",
"183 93 OFFCURVE",
"172 105 CURVE SMOOTH",
"160 117 OFFCURVE",
"144 123 OFFCURVE",
"123 123 CURVE SMOOTH",
"102 123 OFFCURVE",
"86 117 OFFCURVE",
"74 105 CURVE SMOOTH",
"62 93 OFFCURVE",
"56 78 OFFCURVE",
"56 59 CURVE SMOOTH",
"56 40 OFFCURVE",
"62 25 OFFCURVE",
"74 13 CURVE SMOOTH",
"86 1 OFFCURVE",
"102 -5 OFFCURVE",
"123 -5 CURVE SMOOTH"
);
},
{
closed = 1;
nodes = (
"625 -5 OFFCURVE",
"641 1 OFFCURVE",
"653 13 CURVE SMOOTH",
"665 25 OFFCURVE",
"671 40 OFFCURVE",
"671 59 CURVE SMOOTH",
"671 78 OFFCURVE",
"665 93 OFFCURVE",
"653 105 CURVE SMOOTH",
"641 117 OFFCURVE",
"625 123 OFFCURVE",
"604 123 CURVE SMOOTH",
"583 123 OFFCURVE",
"567 117 OFFCURVE",
"556 105 CURVE SMOOTH",
"544 93 OFFCURVE",
"538 78 OFFCURVE",
"538 59 CURVE SMOOTH",
"538 40 OFFCURVE",
"544 25 OFFCURVE",
"556 13 CURVE SMOOTH",
"567 1 OFFCURVE",
"583 -5 OFFCURVE",
"604 -5 CURVE SMOOTH"
);
},
{
closed = 1;
nodes = (
"384 -5 OFFCURVE",
"400 1 OFFCURVE",
"412 13 CURVE SMOOTH",
"424 25 OFFCURVE",
"430 40 OFFCURVE",
"430 59 CURVE SMOOTH",
"430 78 OFFCURVE",
"424 93 OFFCURVE",
"412 105 CURVE SMOOTH",
"400 117 OFFCURVE",
"384 123 OFFCURVE",
"364 123 CURVE SMOOTH",
"343 123 OFFCURVE",
"327 117 OFFCURVE",
"315 105 CURVE SMOOTH",
"303 93 OFFCURVE",
"297 78 OFFCURVE",
"297 59 CURVE SMOOTH",
"297 40 OFFCURVE",
"303 25 OFFCURVE",
"315 13 CURVE SMOOTH",
"327 1 OFFCURVE",
"343 -5 OFFCURVE",
"364 -5 CURVE SMOOTH"
);
}
);
width = 727;
}
);
unicode = 2026;
},
{
glyphname = guilsinglleft;
layers = (
{
layerId = "fe8db221-af1a-4d91-ba78-10cb572f3b89";
name = Regular;
paths = (
{
closed = 1;
nodes = (
"192 333 OFFCURVE",
"224 401 OFFCURVE",
"241 435 CURVE",
"169 435 LINE",
"41 230 LINE",
"169 26 LINE",
"241 26 LINE",
"192 128 OFFCURVE",
"160 196 OFFCURVE",
"143 230 CURVE"
);
}
);
width = 287;
}
);
unicode = 2039;
},
{
glyphname = guilsinglright;
layers = (
{
layerId = "fe8db221-af1a-4d91-ba78-10cb572f3b89";
name = Regular;
paths = (
{
closed = 1;
nodes = (
"246 230 LINE",
"118 435 LINE",
"46 435 LINE",
"95 333 OFFCURVE",
"127 265 OFFCURVE",
"143 230 CURVE",
"46 26 LINE",
"118 26 LINE"
);
}
);
width = 287;
}
);
unicode = 203A;
},
{
glyphname = euro;
layers = (
{
layerId = "fe8db221-af1a-4d91-ba78-10cb572f3b89";
name = Regular;
paths = (
{
closed = 1;
nodes = (
"517 543 LINE",
"477 561 OFFCURVE",
"439 568 OFFCURVE",
"392 568 CURVE SMOOTH",
"251 568 OFFCURVE",
"141 488 OFFCURVE",
"107 358 CURVE",
"41 358 LINE",
"41 302 LINE",
"98 302 LINE",
"97 293 OFFCURVE",
"97 261 OFFCURVE",
"98 246 CURVE",
"38 246 LINE",
"38 189 LINE",
"109 189 LINE",
"144 64 OFFCURVE",
"251 -15 OFFCURVE",
"392 -15 CURVE SMOOTH",
"432 -15 OFFCURVE",
"478 -8 OFFCURVE",
"517 10 CURVE",
"517 108 LINE",
"480 82 OFFCURVE",
"438 69 OFFCURVE",
"392 69 CURVE SMOOTH",
"312 69 OFFCURVE",
"247 114 OFFCURVE",
"219 189 CURVE",
"415 189 LINE",
"415 246 LINE",
"206 246 LINE",
"206 256 OFFCURVE",
"205 286 OFFCURVE",
"206 302 CURVE",
"415 302 LINE",
"415 358 LINE",
"217 358 LINE",
"242 433 OFFCURVE",
"307 484 OFFCURVE",
"392 484 CURVE SMOOTH",
"429 484 OFFCURVE",
"482 470 OFFCURVE",
"517 445 CURVE"
);
}
);
width = 600;
}
);
unicode = 20AC;
},
{
glyphname = trademark;
layers = (
{
layerId = "fe8db221-af1a-4d91-ba78-10cb572f3b89";
name = Regular;
paths = (
{
closed = 1;
nodes = (
"640 276 LINE",
"691 276 LINE",
"691 553 LINE",
"625 553 LINE",
"523 324 LINE",
"420 553 LINE",
"353 553 LINE",
"353 276 LINE",
"404 276 LINE",
"404 358 LINE",
"399 488 LINE",
"501 276 LINE",
"545 276 LINE",
"645 489 LINE",
"640 358 LINE"
);
},
{
closed = 1;
nodes = (
"36 553 LINE",
"36 512 LINE",
"146 512 LINE",
"146 276 LINE",
"197 276 LINE",
"197 512 LINE",
"307 512 LINE",
"307 553 LINE"
);
}
);
width = 763;
}
);
unicode = 2122;
},
{
glyphname = minus;
layers = (
{
layerId = "fe8db221-af1a-4d91-ba78-10cb572f3b89";
name = Regular;
paths = (
{
closed = 1;
nodes = (
"502 223 LINE",
"502 300 LINE",
"51 300 LINE",
"51 223 LINE"
);
}
);
width = 553;
}
);
unicode = 2212;
},
{
color = 5;
glyphname = acutecomb.case;
layers = (
{
anchors = (
{
name = _top;
position = "{346, 860}";
},
{
name = top;
position = "{384, 758}";
}
);
layerId = "fe8db221-af1a-4d91-ba78-10cb572f3b89";
name = Regular;
paths = (
{
closed = 1;
nodes = (
"366 604 LINE",
"494 758 LINE",
"366 758 LINE",
"274 604 LINE"
);
}
);
width = 655;
}
);
},
{
color = 5;
glyphname = brevecomb.case;
layers = (
{
anchors = (
{
name = _top;
position = "{327, 860}";
},
{
name = top;
position = "{327, 758}";
}
);
layerId = "fe8db221-af1a-4d91-ba78-10cb572f3b89";
name = Regular;
paths = (
{
closed = 1;
nodes = (
"499 758 OFFCURVE",
"426 758 OFFCURVE",
"426 758 CURVE",
"426 699 OFFCURVE",
"391 655 OFFCURVE",
"327 655 CURVE SMOOTH",
"268 655 OFFCURVE",
"227 691 OFFCURVE",
"227 758 CURVE",
"227 758 OFFCURVE",
"155 758 OFFCURVE",
"155 758 CURVE",
"155 659 OFFCURVE",
"220 597 OFFCURVE",
"327 597 CURVE SMOOTH",
"432 597 OFFCURVE",
"499 657 OFFCURVE",
"499 758 CURVE"
);
}
);
width = 655;
}
);
},
{
color = 5;
glyphname = caroncomb.alt;
layers = (
{
anchors = (
{
name = _topright;
position = "{385, 681}";
}
);
layerId = "fe8db221-af1a-4d91-ba78-10cb572f3b89";
name = Regular;
paths = (
{
closed = 1;
nodes = (
"328 510 LINE",
"385 681 LINE",
"298 681 LINE",
"282 510 LINE"
);
}
);
width = 355;
}
);
},
{
color = 5;
glyphname = caroncomb.alt.case;
layers = (
{
anchors = (
{
name = _topright;
position = "{446, 860}";
}
);
layerId = "fe8db221-af1a-4d91-ba78-10cb572f3b89";
name = Regular;
paths = (
{
closed = 1;
nodes = (
"328 383 LINE",
"399 554 LINE",
"299 554 LINE",
"269 383 LINE"
);
}
);
width = 523;
}
);
},
{
color = 5;
glyphname = caroncomb.case;
layers = (
{
anchors = (
{
name = _top;
position = "{277, 860}";
},
{
name = top;
position = "{277, 860}";
}
);
layerId = "fe8db221-af1a-4d91-ba78-10cb572f3b89";
name = Regular;
paths = (
{
closed = 1;
nodes = (
"330 604 LINE",
"433 758 LINE",
"356 758 LINE",
"356 758 OFFCURVE",
"276 666 OFFCURVE",
"276 666 CURVE",
"197 758 LINE",
"120 758 LINE",
"223 604 LINE"
);
}
);
width = 553;
}
);
},
{
color = 5;
glyphname = circumflexcomb.case;
layers = (
{
anchors = (
{
name = _top;
position = "{328, 860}";
},
{
name = top;
position = "{328, 758}";
}
);
layerId = "fe8db221-af1a-4d91-ba78-10cb572f3b89";
name = Regular;
paths = (
{
closed = 1;
nodes = (
"407 604 LINE",
"484 604 LINE",
"381 758 LINE",
"274 758 LINE",
"223 681 OFFCURVE",
"189 630 OFFCURVE",
"172 604 CURVE",
"248 604 LINE",
"328 696 LINE"
);
}
);
width = 655;
}
);
},
{
color = 5;
glyphname = dieresiscomb.case;
layers = (
{
anchors = (
{
name = _top;
position = "{325, 860}";
},
{
name = top;
position = "{325, 860}";
}
);
layerId = "fe8db221-af1a-4d91-ba78-10cb572f3b89";
name = Regular;
paths = (
{
closed = 1;
nodes = (
"419 727 OFFCURVE",
"404 721 OFFCURVE",
"392 709 CURVE SMOOTH",
"380 697 OFFCURVE",
"374 683 OFFCURVE",
"374 666 CURVE SMOOTH",
"374 649 OFFCURVE",
"380 634 OFFCURVE",
"392 622 CURVE SMOOTH",
"404 610 OFFCURVE",
"419 604 OFFCURVE",
"438 604 CURVE SMOOTH",
"457 604 OFFCURVE",
"472 610 OFFCURVE",
"484 622 CURVE SMOOTH",
"496 634 OFFCURVE",
"502 649 OFFCURVE",
"502 666 CURVE SMOOTH",
"502 683 OFFCURVE",
"496 697 OFFCURVE",
"484 709 CURVE SMOOTH",
"472 721 OFFCURVE",
"457 727 OFFCURVE",
"438 727 CURVE SMOOTH"
);
},
{
closed = 1;
nodes = (
"193 727 OFFCURVE",
"178 721 OFFCURVE",
"166 709 CURVE SMOOTH",
"154 697 OFFCURVE",
"148 683 OFFCURVE",
"148 666 CURVE SMOOTH",
"148 649 OFFCURVE",
"154 634 OFFCURVE",
"166 622 CURVE SMOOTH",
"178 610 OFFCURVE",
"193 604 OFFCURVE",
"212 604 CURVE SMOOTH",
"231 604 OFFCURVE",
"247 610 OFFCURVE",
"259 622 CURVE SMOOTH",
"270 634 OFFCURVE",
"276 649 OFFCURVE",
"276 666 CURVE SMOOTH",
"276 683 OFFCURVE",
"270 697 OFFCURVE",
"259 709 CURVE SMOOTH",
"247 721 OFFCURVE",
"231 727 OFFCURVE",
"212 727 CURVE SMOOTH"
);
}
);
width = 655;
}
);
},
{
color = 5;
glyphname = dotaccentcomb.case;
layers = (
{
anchors = (
{
name = _top;
position = "{335, 860}";
},
{
name = top;
position = "{335, 753}";
}
);
layerId = "fe8db221-af1a-4d91-ba78-10cb572f3b89";
name = Regular;
paths = (
{
closed = 1;
nodes = (
"268 653 OFFCURVE",
"292 625 OFFCURVE",
"334 625 CURVE SMOOTH",
"374 625 OFFCURVE",
"401 650 OFFCURVE",
"401 689 CURVE SMOOTH",
"401 725 OFFCURVE",
"377 753 OFFCURVE",
"334 753 CURVE SMOOTH",
"295 753 OFFCURVE",
"268 727 OFFCURVE",
"268 689 CURVE SMOOTH"
);
}
);
width = 637;
}
);
},
{
glyphname = eight.osf;
layers = (
{
layerId = "fe8db221-af1a-4d91-ba78-10cb572f3b89";
name = Regular;
paths = (
{
closed = 1;
nodes = (
"437 207 OFFCURVE",
"471 249 OFFCURVE",
"471 307 CURVE SMOOTH",
"471 413 OFFCURVE",
"378 466 OFFCURVE",
"268 466 CURVE SMOOTH",
"161 466 OFFCURVE",
"67 413 OFFCURVE",
"67 307 CURVE SMOOTH",
"67 249 OFFCURVE",
"95 210 OFFCURVE",
"156 186 CURVE",
"90 158 OFFCURVE",
"46 117 OFFCURVE",
"46 54 CURVE SMOOTH",
"46 -56 OFFCURVE",
"155 -113 OFFCURVE",
"268 -113 CURVE SMOOTH",
"379 -113 OFFCURVE",
"491 -57 OFFCURVE",
"491 54 CURVE SMOOTH",
"491 115 OFFCURVE",
"450 156 OFFCURVE",
"381 185 CURVE"
);
},
{
closed = 1;
nodes = (
"204 -31 OFFCURVE",
"154 2 OFFCURVE",
"154 58 CURVE SMOOTH",
"154 118 OFFCURVE",
"207 151 OFFCURVE",
"268 151 CURVE SMOOTH",
"327 151 OFFCURVE",
"383 121 OFFCURVE",
"383 58 CURVE SMOOTH",
"383 5 OFFCURVE",
"334 -31 OFFCURVE",
"268 -31 CURVE SMOOTH"
);
},
{
closed = 1;
nodes = (
"213 220 OFFCURVE",
"171 254 OFFCURVE",
"171 304 CURVE SMOOTH",
"171 350 OFFCURVE",
"211 384 OFFCURVE",
"268 384 CURVE SMOOTH",
"323 384 OFFCURVE",
"366 353 OFFCURVE",
"366 304 CURVE SMOOTH",
"366 255 OFFCURVE",
"327 220 OFFCURVE",
"268 220 CURVE SMOOTH"
);
}
);
width = 536;
}
);
},
{
glyphname = eight.tf;
layers = (
{
layerId = "fe8db221-af1a-4d91-ba78-10cb572f3b89";
name = Regular;
paths = (
{
closed = 1;
nodes = (
"463 307 OFFCURVE",
"498 349 OFFCURVE",
"498 407 CURVE SMOOTH",
"498 513 OFFCURVE",
"402 566 OFFCURVE",
"288 566 CURVE SMOOTH",
"177 566 OFFCURVE",
"80 513 OFFCURVE",
"80 407 CURVE SMOOTH",
"80 349 OFFCURVE",
"109 310 OFFCURVE",
"172 286 CURVE",
"104 258 OFFCURVE",
"58 217 OFFCURVE",
"58 154 CURVE SMOOTH",
"58 44 OFFCURVE",
"171 -13 OFFCURVE",
"288 -13 CURVE SMOOTH",
"403 -13 OFFCURVE",
"519 43 OFFCURVE",
"519 154 CURVE SMOOTH",
"519 215 OFFCURVE",
"476 256 OFFCURVE",
"405 285 CURVE"
);
},
{
closed = 1;
nodes = (
"222 69 OFFCURVE",
"170 102 OFFCURVE",
"170 158 CURVE SMOOTH",
"170 218 OFFCURVE",
"225 251 OFFCURVE",
"288 251 CURVE SMOOTH",
"349 251 OFFCURVE",
"407 221 OFFCURVE",
"407 158 CURVE SMOOTH",
"407 105 OFFCURVE",
"356 69 OFFCURVE",
"288 69 CURVE SMOOTH"
);
},
{
closed = 1;
nodes = (
"231 320 OFFCURVE",
"188 354 OFFCURVE",
"188 404 CURVE SMOOTH",
"188 450 OFFCURVE",
"229 484 OFFCURVE",
"288 484 CURVE SMOOTH",
"345 484 OFFCURVE",
"389 453 OFFCURVE",
"389 404 CURVE SMOOTH",
"389 355 OFFCURVE",
"349 320 OFFCURVE",
"288 320 CURVE SMOOTH"
);
}
);
width = 580;
}
);
},
{
glyphname = five.osf;
layers = (
{
layerId = "fe8db221-af1a-4d91-ba78-10cb572f3b89";
name = Regular;
paths = (
{
closed = 1;
nodes = (
"190 -28 OFFCURVE",
"148 21 OFFCURVE",
"148 87 CURVE",
"41 87 LINE",
"41 -33 OFFCURVE",
"140 -110 OFFCURVE",
"259 -110 CURVE SMOOTH",
"374 -110 OFFCURVE",
"476 -38 OFFCURVE",
"476 80 CURVE",
"476 81 LINE",
"476 196 OFFCURVE",
"392 267 OFFCURVE",
"278 267 CURVE SMOOTH",
"238 267 OFFCURVE",
"208 261 OFFCURVE",
"174 243 CURVE",
"193 374 LINE",
"445 374 LINE",
"445 456 LINE",
"108 456 LINE",
"69 181 LINE",
"161 149 LINE",
"186 172 OFFCURVE",
"217 185 OFFCURVE",
"259 185 CURVE SMOOTH",
"323 185 OFFCURVE",
"369 137 OFFCURVE",
"369 77 CURVE SMOOTH",
"369 19 OFFCURVE",
"326 -28 OFFCURVE",
"259 -28 CURVE SMOOTH"
);
}
);
width = 517;
}
);
},
{
glyphname = five.tf;
layers = (
{
layerId = "fe8db221-af1a-4d91-ba78-10cb572f3b89";
name = Regular;
paths = (
{
closed = 1;
nodes = (
"217 69 OFFCURVE",
"175 118 OFFCURVE",
"175 184 CURVE",
"68 184 LINE",
"68 64 OFFCURVE",
"167 -13 OFFCURVE",
"286 -13 CURVE SMOOTH",
"401 -13 OFFCURVE",
"503 59 OFFCURVE",
"503 177 CURVE",
"503 178 LINE",
"503 293 OFFCURVE",
"419 364 OFFCURVE",
"305 364 CURVE SMOOTH",
"265 364 OFFCURVE",
"235 358 OFFCURVE",
"201 340 CURVE",
"220 471 LINE",
"472 471 LINE",
"472 553 LINE",
"135 553 LINE",
"96 278 LINE",
"188 246 LINE",
"213 269 OFFCURVE",
"244 282 OFFCURVE",
"286 282 CURVE SMOOTH",
"350 282 OFFCURVE",
"396 234 OFFCURVE",
"396 174 CURVE SMOOTH",
"396 116 OFFCURVE",
"353 69 OFFCURVE",
"286 69 CURVE SMOOTH"
);
}
);
width = 580;
}
);
},
{
glyphname = four.osf;
layers = (
{
layerId = "fe8db221-af1a-4d91-ba78-10cb572f3b89";
name = Regular;
paths = (
{
closed = 1;
nodes = (
"141 195 LINE",
"335 443 LINE",
"335 195 LINE"
);
},
{
closed = 1;
nodes = (
"36 118 LINE",
"335 118 LINE",
"335 0 LINE",
"438 0 LINE",
"438 118 LINE",
"509 118 LINE",
"509 195 LINE",
"438 195 LINE",
"438 553 LINE",
"317 553 LINE",
"36 192 LINE"
);
}
);
width = 545;
}
);
},
{
glyphname = four.tf;
layers = (
{
layerId = "fe8db221-af1a-4d91-ba78-10cb572f3b89";
name = Regular;
paths = (
{
closed = 1;
nodes = (
"151 195 LINE",
"325 443 LINE",
"325 195 LINE"
);
},
{
closed = 1;
nodes = (
"46 118 LINE",
"325 118 LINE",
"325 0 LINE",
"428 0 LINE",
"428 118 LINE",
"509 118 LINE",
"509 195 LINE",
"428 195 LINE",
"428 553 LINE",
"307 553 LINE",
"46 192 LINE"
);
}
);
width = 580;
}
);
},
{
color = 5;
glyphname = gravecomb.case;
layers = (
{
anchors = (
{
name = _top;
position = "{318, 860}";
},
{
name = top;
position = "{271, 758}";
}
);
layerId = "fe8db221-af1a-4d91-ba78-10cb572f3b89";
name = Regular;
paths = (
{
closed = 1;
nodes = (
"381 604 LINE",
"289 758 LINE",
"161 758 LINE",
"289 604 LINE"
);
}
);
width = 655;
}
);
},
{
color = 5;
glyphname = hungarumlautcomb.case;
layers = (
{
anchors = (
{
name = _top;
position = "{351, 860}";
},
{
name = top;
position = "{351, 758}";
}
);
layerId = "fe8db221-af1a-4d91-ba78-10cb572f3b89";
name = Regular;
paths = (
{
closed = 1;
nodes = (
"273 604 LINE",
"401 758 LINE",
"273 758 LINE",
"181 604 LINE"
);
},
{
closed = 1;
nodes = (
"468 604 LINE",
"596 758 LINE",
"468 758 LINE",
"376 604 LINE"
);
}
);
width = 666;
}
);
},
{
color = 5;
glyphname = macroncomb.case;
layers = (
{
anchors = (
{
name = _top;
position = "{289, 860}";
},
{
name = top;
position = "{289, 688}";
}
);
layerId = "fe8db221-af1a-4d91-ba78-10cb572f3b89";
name = Regular;
paths = (
{
closed = 1;
nodes = (
"148 604 LINE",
"428 604 LINE",
"428 681 LINE",
"148 681 LINE"
);
}
);
width = 569;
}
);
},
{
glyphname = nine.osf;
layers = (
{
layerId = "fe8db221-af1a-4d91-ba78-10cb572f3b89";
name = Regular;
paths = (
{
closed = 1;
nodes = (
"325 374 OFFCURVE",
"373 327 OFFCURVE",
"373 269 CURVE SMOOTH",
"373 205 OFFCURVE",
"327 161 OFFCURVE",
"263 161 CURVE SMOOTH",
"203 161 OFFCURVE",
"153 203 OFFCURVE",
"153 269 CURVE SMOOTH",
"153 325 OFFCURVE",
"199 374 OFFCURVE",
"263 374 CURVE SMOOTH"
);
},
{
closed = 1;
nodes = (
"383 40 OFFCURVE",
"353 -41 OFFCURVE",
"258 -41 CURVE SMOOTH",
"205 -41 OFFCURVE",
"164 -9 OFFCURVE",
"164 38 CURVE",
"56 38 LINE",
"56 -55 OFFCURVE",
"134 -123 OFFCURVE",
"259 -123 CURVE SMOOTH",
"421 -123 OFFCURVE",
"486 -6 OFFCURVE",
"486 166 CURVE SMOOTH",
"486 337 OFFCURVE",
"417 456 OFFCURVE",
"251 456 CURVE SMOOTH",
"144 456 OFFCURVE",
"46 379 OFFCURVE",
"46 266 CURVE",
"46 265 LINE",
"46 154 OFFCURVE",
"134 79 OFFCURVE",
"243 79 CURVE SMOOTH",
"299 79 OFFCURVE",
"348 97 OFFCURVE",
"382 147 CURVE"
);
}
);
width = 533;
}
);
},
{
glyphname = nine.tf;
layers = (
{
layerId = "fe8db221-af1a-4d91-ba78-10cb572f3b89";
name = Regular;
paths = (
{
closed = 1;
nodes = (
"345 484 OFFCURVE",
"393 437 OFFCURVE",
"393 379 CURVE SMOOTH",
"393 315 OFFCURVE",
"347 271 OFFCURVE",
"283 271 CURVE SMOOTH",
"223 271 OFFCURVE",
"173 313 OFFCURVE",
"173 379 CURVE SMOOTH",
"173 435 OFFCURVE",
"219 484 OFFCURVE",
"283 484 CURVE SMOOTH"
);
},
{
closed = 1;
nodes = (
"403 150 OFFCURVE",
"373 69 OFFCURVE",
"278 69 CURVE SMOOTH",
"225 69 OFFCURVE",
"184 101 OFFCURVE",
"184 148 CURVE",
"76 148 LINE",
"76 55 OFFCURVE",
"154 -13 OFFCURVE",
"279 -13 CURVE SMOOTH",
"441 -13 OFFCURVE",
"506 104 OFFCURVE",
"506 276 CURVE SMOOTH",
"506 447 OFFCURVE",
"437 566 OFFCURVE",
"271 566 CURVE SMOOTH",
"164 566 OFFCURVE",
"66 489 OFFCURVE",
"66 376 CURVE",
"66 375 LINE",
"66 264 OFFCURVE",
"154 189 OFFCURVE",
"263 189 CURVE SMOOTH",
"319 189 OFFCURVE",
"368 207 OFFCURVE",
"402 257 CURVE"
);
}
);
width = 580;
}
);
},
{
glyphname = notdef_2;
layers = (
{
layerId = "fe8db221-af1a-4d91-ba78-10cb572f3b89";
name = Regular;
paths = (
{
closed = 1;
nodes = (
"471 0 LINE",
"471 553 LINE",
"72 553 LINE",
"72 0 LINE"
);
},
{
closed = 1;
nodes = (
"394 72 LINE",
"148 72 LINE",
"148 481 LINE",
"394 481 LINE"
);
}
);
width = 543;
}
);
},
{
glyphname = one.osf;
layers = (
{
layerId = "fe8db221-af1a-4d91-ba78-10cb572f3b89";
name = Regular;
paths = (
{
closed = 1;
nodes = (
"200 461 LINE",
"128 415 OFFCURVE",
"100 399 OFFCURVE",
"31 369 CURVE",
"31 267 LINE",
"97 295 OFFCURVE",
"132 314 OFFCURVE",
"200 359 CURVE",
"200 0 LINE",
"302 0 LINE",
"302 461 LINE"
);
}
);
width = 379;
}
);
},
{
glyphname = one.tf;
layers = (
{
anchors = (
{
name = _center;
position = "{294, 37}";
}
);
layerId = "fe8db221-af1a-4d91-ba78-10cb572f3b89";
name = Regular;
paths = (
{
closed = 1;
nodes = (
"360 553 LINE",
"258 553 LINE",
"186 507 OFFCURVE",
"158 491 OFFCURVE",
"89 461 CURVE",
"89 369 LINE",
"155 397 OFFCURVE",
"190 416 OFFCURVE",
"258 461 CURVE",
"258 75 LINE",
"71 75 LINE",
"71 0 LINE",
"511 0 LINE",
"511 75 LINE",
"360 75 LINE"
);
}
);
width = 580;
}
);
},
{
color = 5;
glyphname = ringcomb.case;
layers = (
{
layerId = "fe8db221-af1a-4d91-ba78-10cb572f3b89";
name = Regular;
paths = (
{
closed = 1;
nodes = (
"282 708 OFFCURVE",
"299 730 OFFCURVE",
"328 730 CURVE SMOOTH",
"354 730 OFFCURVE",
"374 709 OFFCURVE",
"374 686 CURVE SMOOTH",
"374 665 OFFCURVE",
"357 643 OFFCURVE",
"328 643 CURVE SMOOTH",
"301 643 OFFCURVE",
"282 661 OFFCURVE",
"282 686 CURVE SMOOTH"
);
},
{
closed = 1;
nodes = (
"230 631 OFFCURVE",
"275 594 OFFCURVE",
"328 594 CURVE SMOOTH",
"379 594 OFFCURVE",
"425 629 OFFCURVE",
"425 686 CURVE SMOOTH",
"425 741 OFFCURVE",
"383 778 OFFCURVE",
"328 778 CURVE SMOOTH",
"273 778 OFFCURVE",
"230 741 OFFCURVE",
"230 686 CURVE SMOOTH"
);
}
);
width = 655;
}
);
},
{
glyphname = seven.osf;
layers = (
{
layerId = "fe8db221-af1a-4d91-ba78-10cb572f3b89";
name = Regular;
paths = (
{
closed = 1;
nodes = (
"345 374 LINE",
"232 228 OFFCURVE",
"144 71 OFFCURVE",
"113 -97 CURVE",
"220 -97 LINE",
"249 74 OFFCURVE",
"346 240 OFFCURVE",
"468 395 CURVE",
"468 456 LINE",
"23 456 LINE",
"23 374 LINE"
);
}
);
width = 492;
}
);
},
{
glyphname = seven.tf;
layers = (
{
layerId = "fe8db221-af1a-4d91-ba78-10cb572f3b89";
name = Regular;
paths = (
{
closed = 1;
nodes = (
"385 471 LINE",
"272 325 OFFCURVE",
"184 168 OFFCURVE",
"153 0 CURVE",
"260 0 LINE",
"289 171 OFFCURVE",
"386 337 OFFCURVE",
"508 492 CURVE",
"508 553 LINE",
"53 553 LINE",
"53 471 LINE"
);
}
);
width = 580;
}
);
},
{
glyphname = six.osf;
layers = (
{
layerId = "fe8db221-af1a-4d91-ba78-10cb572f3b89";
name = Regular;
paths = (
{
closed = 1;
nodes = (
"207 69 OFFCURVE",
"159 114 OFFCURVE",
"159 174 CURVE SMOOTH",
"159 238 OFFCURVE",
"205 282 OFFCURVE",
"269 282 CURVE SMOOTH",
"329 282 OFFCURVE",
"379 240 OFFCURVE",
"379 174 CURVE SMOOTH",
"379 116 OFFCURVE",
"335 69 OFFCURVE",
"270 69 CURVE SMOOTH"
);
},
{
closed = 1;
nodes = (
"148 395 OFFCURVE",
"176 484 OFFCURVE",
"275 484 CURVE SMOOTH",
"329 484 OFFCURVE",
"369 451 OFFCURVE",
"369 404 CURVE",
"476 404 LINE",
"476 498 OFFCURVE",
"383 566 OFFCURVE",
"274 566 CURVE SMOOTH",
"112 566 OFFCURVE",
"46 450 OFFCURVE",
"46 276 CURVE SMOOTH",
"46 105 OFFCURVE",
"115 -13 OFFCURVE",
"282 -13 CURVE SMOOTH",
"390 -13 OFFCURVE",
"486 62 OFFCURVE",
"486 177 CURVE",
"486 178 LINE",
"486 290 OFFCURVE",
"400 364 OFFCURVE",
"290 364 CURVE SMOOTH",
"230 364 OFFCURVE",
"184 344 OFFCURVE",
"151 296 CURVE"
);
}
);
width = 533;
}
);
},
{
glyphname = six.tf;
layers = (
{
layerId = "fe8db221-af1a-4d91-ba78-10cb572f3b89";
name = Regular;
paths = (
{
closed = 1;
nodes = (
"227 69 OFFCURVE",
"179 114 OFFCURVE",
"179 174 CURVE SMOOTH",
"179 238 OFFCURVE",
"225 282 OFFCURVE",
"289 282 CURVE SMOOTH",
"349 282 OFFCURVE",
"399 240 OFFCURVE",
"399 174 CURVE SMOOTH",
"399 116 OFFCURVE",
"355 69 OFFCURVE",
"290 69 CURVE SMOOTH"
);
},
{
closed = 1;
nodes = (
"168 395 OFFCURVE",
"196 484 OFFCURVE",
"295 484 CURVE SMOOTH",
"349 484 OFFCURVE",
"389 451 OFFCURVE",
"389 404 CURVE",
"496 404 LINE",
"496 498 OFFCURVE",
"403 566 OFFCURVE",
"294 566 CURVE SMOOTH",
"132 566 OFFCURVE",
"66 450 OFFCURVE",
"66 276 CURVE SMOOTH",
"66 105 OFFCURVE",
"135 -13 OFFCURVE",
"302 -13 CURVE SMOOTH",
"410 -13 OFFCURVE",
"506 62 OFFCURVE",
"506 177 CURVE",
"506 178 LINE",
"506 290 OFFCURVE",
"420 364 OFFCURVE",
"310 364 CURVE SMOOTH",
"250 364 OFFCURVE",
"204 344 OFFCURVE",
"171 296 CURVE"
);
}
);
width = 580;
}
);
},
{
glyphname = three.osf;
layers = (
{
layerId = "fe8db221-af1a-4d91-ba78-10cb572f3b89";
name = Regular;
paths = (
{
closed = 1;
nodes = (
"195 -31 OFFCURVE",
"148 4 OFFCURVE",
"148 74 CURVE",
"41 74 LINE",
"41 -45 OFFCURVE",
"139 -113 OFFCURVE",
"259 -113 CURVE SMOOTH",
"367 -113 OFFCURVE",
"476 -56 OFFCURVE",
"476 54 CURVE SMOOTH",
"476 114 OFFCURVE",
"442 153 OFFCURVE",
"376 184 CURVE",
"427 208 OFFCURVE",
"463 246 OFFCURVE",
"463 307 CURVE SMOOTH",
"463 410 OFFCURVE",
"365 466 OFFCURVE",
"259 466 CURVE SMOOTH",
"146 466 OFFCURVE",
"44 401 OFFCURVE",
"44 287 CURVE",
"151 287 LINE",
"151 345 OFFCURVE",
"191 384 OFFCURVE",
"259 384 CURVE SMOOTH",
"318 384 OFFCURVE",
"356 354 OFFCURVE",
"356 302 CURVE SMOOTH",
"356 252 OFFCURVE",
"314 225 OFFCURVE",
"253 225 CURVE SMOOTH",
"202 225 LINE",
"202 146 LINE",
"248 146 LINE SMOOTH",
"307 146 OFFCURVE",
"369 118 OFFCURVE",
"369 56 CURVE SMOOTH",
"369 2 OFFCURVE",
"324 -31 OFFCURVE",
"259 -31 CURVE SMOOTH"
);
}
);
width = 517;
}
);
},
{
glyphname = three.tf;
layers = (
{
layerId = "fe8db221-af1a-4d91-ba78-10cb572f3b89";
name = Regular;
paths = (
{
closed = 1;
nodes = (
"225 69 OFFCURVE",
"178 104 OFFCURVE",
"178 174 CURVE",
"71 174 LINE",
"71 55 OFFCURVE",
"169 -13 OFFCURVE",
"289 -13 CURVE SMOOTH",
"397 -13 OFFCURVE",
"506 44 OFFCURVE",
"506 154 CURVE SMOOTH",
"506 214 OFFCURVE",
"472 253 OFFCURVE",
"406 284 CURVE",
"457 308 OFFCURVE",
"493 346 OFFCURVE",
"493 407 CURVE SMOOTH",
"493 510 OFFCURVE",
"395 566 OFFCURVE",
"289 566 CURVE SMOOTH",
"176 566 OFFCURVE",
"74 501 OFFCURVE",
"74 387 CURVE",
"181 387 LINE",
"181 445 OFFCURVE",
"221 484 OFFCURVE",
"289 484 CURVE SMOOTH",
"348 484 OFFCURVE",
"386 454 OFFCURVE",
"386 402 CURVE SMOOTH",
"386 352 OFFCURVE",
"344 325 OFFCURVE",
"283 325 CURVE SMOOTH",
"232 325 LINE",
"232 246 LINE",
"278 246 LINE SMOOTH",
"337 246 OFFCURVE",
"399 218 OFFCURVE",
"399 156 CURVE SMOOTH",
"399 102 OFFCURVE",
"354 69 OFFCURVE",
"289 69 CURVE SMOOTH"
);
}
);
width = 580;
}
);
},
{
color = 5;
glyphname = tildecomb.case;
layers = (
{
anchors = (
{
name = _top;
position = "{328, 860}";
},
{
name = top;
position = "{328, 727}";
}
);
layerId = "fe8db221-af1a-4d91-ba78-10cb572f3b89";
name = Regular;
paths = (
{
closed = 1;
nodes = (
"212 609 LINE",
"212 618 OFFCURVE",
"216 628 OFFCURVE",
"225 639 CURVE SMOOTH",
"234 650 OFFCURVE",
"246 655 OFFCURVE",
"261 655 CURVE SMOOTH",
"278 655 OFFCURVE",
"298 647 OFFCURVE",
"319 630 CURVE SMOOTH",
"340 613 OFFCURVE",
"364 604 OFFCURVE",
"389 604 CURVE SMOOTH",
"418 604 OFFCURVE",
"444 615 OFFCURVE",
"467 637 CURVE SMOOTH",
"490 660 OFFCURVE",
"502 688 OFFCURVE",
"502 722 CURVE",
"443 722 LINE",
"443 713 OFFCURVE",
"439 703 OFFCURVE",
"430 692 CURVE SMOOTH",
"421 681 OFFCURVE",
"409 676 OFFCURVE",
"394 676 CURVE SMOOTH",
"377 676 OFFCURVE",
"358 684 OFFCURVE",
"337 701 CURVE SMOOTH",
"316 718 OFFCURVE",
"292 727 OFFCURVE",
"266 727 CURVE SMOOTH",
"237 727 OFFCURVE",
"211 716 OFFCURVE",
"188 694 CURVE SMOOTH",
"165 671 OFFCURVE",
"154 643 OFFCURVE",
"154 609 CURVE"
);
}
);
width = 655;
}
);
},
{
glyphname = two.osf;
layers = (
{
layerId = "fe8db221-af1a-4d91-ba78-10cb572f3b89";
name = Regular;
paths = (
{
closed = 1;
nodes = (
"171 82 LINE",
"171 129 OFFCURVE",
"463 124 OFFCURVE",
"463 307 CURVE SMOOTH",
"463 410 OFFCURVE",
"365 466 OFFCURVE",
"259 466 CURVE SMOOTH",
"146 466 OFFCURVE",
"44 401 OFFCURVE",
"44 287 CURVE",
"151 287 LINE",
"151 345 OFFCURVE",
"191 384 OFFCURVE",
"259 384 CURVE SMOOTH",
"318 384 OFFCURVE",
"356 354 OFFCURVE",
"356 302 CURVE SMOOTH",
"356 175 OFFCURVE",
"52 232 OFFCURVE",
"52 28 CURVE",
"51 0 LINE",
"476 0 LINE",
"476 82 LINE"
);
}
);
width = 517;
}
);
},
{
glyphname = two.tf;
layers = (
{
layerId = "fe8db221-af1a-4d91-ba78-10cb572f3b89";
name = Regular;
paths = (
{
closed = 1;
nodes = (
"171 369 LINE",
"171 433 OFFCURVE",
"201 484 OFFCURVE",
"272 484 CURVE SMOOTH",
"337 484 OFFCURVE",
"382 448 OFFCURVE",
"382 389 CURVE SMOOTH",
"382 331 OFFCURVE",
"333 295 OFFCURVE",
"260 253 CURVE SMOOTH",
"138 183 OFFCURVE",
"65 135 OFFCURVE",
"65 28 CURVE",
"64 0 LINE",
"499 0 LINE",
"499 82 LINE",
"184 82 LINE",
"206 116 OFFCURVE",
"255 148 OFFCURVE",
"300 170 CURVE SMOOTH",
"408 223 OFFCURVE",
"489 286 OFFCURVE",
"489 389 CURVE SMOOTH",
"489 504 OFFCURVE",
"391 566 OFFCURVE",
"272 566 CURVE SMOOTH",
"156 566 OFFCURVE",
"64 491 OFFCURVE",
"64 369 CURVE"
);
}
);
width = 580;
}
);
},
{
glyphname = zero.osf;
layers = (
{
anchors = (
{
name = _top;
position = "{121, 456}";
},
{
name = bottom;
position = "{284, 0}";
},
{
name = center;
position = "{284, 228}";
},
{
name = ogonek;
position = "{511, 10}";
},
{
name = top;
position = "{284, 456}";
},
{
name = topright;
position = "{548, 456}";
}
);
layerId = "fe8db221-af1a-4d91-ba78-10cb572f3b89";
name = Regular;
paths = (
{
closed = 1;
nodes = (
"425 141 OFFCURVE",
"375 72 OFFCURVE",
"284 72 CURVE SMOOTH",
"197 72 OFFCURVE",
"143 138 OFFCURVE",
"143 228 CURVE SMOOTH",
"143 317 OFFCURVE",
"198 384 OFFCURVE",
"284 384 CURVE SMOOTH",
"371 384 OFFCURVE",
"425 317 OFFCURVE",
"425 228 CURVE SMOOTH"
);
},
{
closed = 1;
nodes = (
"41 159 OFFCURVE",
"63 102 OFFCURVE",
"106 57 CURVE SMOOTH",
"149 12 OFFCURVE",
"209 -10 OFFCURVE",
"284 -10 CURVE",
"285 -10 LINE",
"360 -10 OFFCURVE",
"419 12 OFFCURVE",
"462 57 CURVE SMOOTH",
"505 102 OFFCURVE",
"527 159 OFFCURVE",
"527 228 CURVE SMOOTH",
"527 297 OFFCURVE",
"505 354 OFFCURVE",
"462 399 CURVE SMOOTH",
"419 444 OFFCURVE",
"359 466 OFFCURVE",
"284 466 CURVE SMOOTH",
"209 466 OFFCURVE",
"149 444 OFFCURVE",
"106 399 CURVE SMOOTH",
"63 354 OFFCURVE",
"41 297 OFFCURVE",
"41 228 CURVE SMOOTH"
);
}
);
width = 568;
}
);
},
